<svg width="17" height="16" viewBox="0 0 17 16" fill="none" xmlns="http://www.w3.org/2000/svg">
<path d="M3.32031 15.3994C2.51367 15.3994 2.21973 14.6816 2.65039 14.1074C2.94434 13.7178 3.4707 12.9521 3.76465 12.3916C1.625 11.3525 0.223633 9.34277 0.223633 7.10059C0.223633 3.57324 3.74414 0.736328 8.13965 0.736328C12.5352 0.736328 16.0557 3.57324 16.0557 7.10059C16.0557 10.751 12.4531 13.54 7.63379 13.4512C6.19141 14.4766 4.27051 15.3994 3.32031 15.3994ZM4.13379 14.0117C4.74902 13.7656 5.97266 12.9932 6.79297 12.3848C7.06641 12.1729 7.28516 12.084 7.5791 12.084C7.8252 12.0908 8.00977 12.0977 8.13965 12.0977C11.7832 12.0977 14.6816 9.85547 14.6816 7.10059C14.6816 4.3457 11.7832 2.10352 8.13965 2.10352C4.49609 2.10352 1.59766 4.3457 1.59766 7.10059C1.59766 8.8916 2.80762 10.4502 4.89258 11.4346C5.33008 11.6396 5.40527 11.9678 5.2002 12.3438C4.94727 12.8154 4.42773 13.4922 4.0791 13.9297C4.02441 13.998 4.05859 14.0459 4.13379 14.0117Z" fill="#929292"/>
</svg>
