<svg width="13" height="11" viewBox="0 0 13 11" fill="none" xmlns="http://www.w3.org/2000/svg">
<path fill-rule="evenodd" clip-rule="evenodd" d="M10.7897 8.12168C11.5618 7.27107 12.0205 6.20784 12.0205 5.05437C12.0205 2.26292 9.33422 0 6.02051 0C2.7068 0 0.0205078 2.26292 0.0205078 5.05437C0.0205078 7.84582 2.7068 10.1087 6.02051 10.1087C6.4566 10.1087 6.88182 10.0695 7.29148 9.99511C7.49661 9.95785 7.7023 10.0775 7.89619 10.1542L9.90177 10.947C10.2769 11.0953 10.6642 10.7611 10.5725 10.3682L10.2547 9.00821C10.2193 8.85631 10.219 8.66796 10.3366 8.56543C10.4975 8.42509 10.6488 8.27693 10.7897 8.12168Z" fill="#D0D0D0"/>
</svg>
