<svg width="19" height="18" viewBox="0 0 19 18" fill="none" xmlns="http://www.w3.org/2000/svg">
<path d="M16.2564 12.7321L15.8829 12.3997L16.2564 12.7321ZM15.3677 16.9625L15.5546 16.4988L15.3677 16.9625ZM16.042 16.3871L16.5293 16.2754V16.2754L16.042 16.3871ZM15.539 13.4393L15.2114 13.0616L15.539 13.4393ZM17.5 8.30125C17.5 9.83252 16.9039 11.2528 15.8829 12.3997L16.6299 13.0646C17.7965 11.754 18.5 10.1025 18.5 8.30125H17.5ZM9.5 1.5C13.9923 1.5 17.5 4.61364 17.5 8.30125H18.5C18.5 3.92412 14.3965 0.5 9.5 0.5V1.5ZM1.5 8.30125C1.5 4.61364 5.0077 1.5 9.5 1.5V0.5C4.60346 0.5 0.5 3.92412 0.5 8.30125H1.5ZM9.5 15.1025C5.0077 15.1025 1.5 11.9889 1.5 8.30125H0.5C0.5 12.6784 4.60346 16.1025 9.5 16.1025V15.1025ZM11.2601 14.9372C10.6942 15.0453 10.1053 15.1025 9.5 15.1025V16.1025C10.1683 16.1025 10.8201 16.0394 11.4478 15.9194L11.2601 14.9372ZM11.757 16.0462L15.1807 17.4263L15.5546 16.4988L12.1308 15.1187L11.757 16.0462ZM15.1807 17.4263C15.9301 17.7283 16.7098 17.063 16.5293 16.2754L15.5546 16.4988H15.5546L15.1807 17.4263ZM16.5293 16.2754L15.9465 13.7316L14.9717 13.9549L15.5546 16.4988L16.5293 16.2754ZM15.8829 12.3997C15.6761 12.6321 15.4517 12.8532 15.2114 13.0616L15.8666 13.8171C16.1387 13.5811 16.3938 13.3298 16.6299 13.0646L15.8829 12.3997ZM15.9465 13.7316C15.9436 13.7192 15.9421 13.7084 15.9416 13.7004C15.941 13.6922 15.9418 13.6909 15.9411 13.6959C15.9398 13.7044 15.9285 13.7634 15.8666 13.8171L15.2114 13.0616C15.0408 13.2095 14.9735 13.4003 14.9514 13.5522C14.9297 13.7018 14.9463 13.8438 14.9717 13.9549L15.9465 13.7316ZM11.4478 15.9194C11.425 15.9238 11.4286 15.9141 11.4913 15.9356C11.5212 15.9458 11.5554 15.9598 11.6014 15.9797C11.6414 15.997 11.7018 16.024 11.757 16.0462L12.1308 15.1187C12.0919 15.1031 11.923 15.0263 11.8149 14.9894C11.6799 14.9432 11.4832 14.8946 11.2601 14.9372L11.4478 15.9194Z" fill="black"/>
</svg>
