<svg width="34" height="24" viewBox="0 0 34 24" fill="none" xmlns="http://www.w3.org/2000/svg">
<g id="Group 1249">
<path id="Subtract" fill-rule="evenodd" clip-rule="evenodd" d="M22.5331 2.72662C22.5832 2.59238 22.4861 2.44596 22.3428 2.44596H15.02C14.3502 2.44596 13.8072 1.89841 13.8072 1.22298C13.8072 0.547546 13.2643 0 12.5945 0H2.42547C1.08592 0 0 1.09509 0 2.44596V4.13952V5.8C0 5.91046 0.0895431 6 0.2 6H21.9255C22.0456 6 22.1385 5.89474 22.1276 5.77503C22.1087 5.56674 22.0991 5.35576 22.0991 5.1425C22.0991 4.29218 22.2525 3.47801 22.5331 2.72662ZM22.6451 7.83942C22.6132 7.76423 22.54 7.71434 22.4583 7.71434H0.2C0.0895434 7.71434 0 7.80388 0 7.91434V19.7148V20.5721C0 22.4657 1.52222 24.0008 3.39998 24.0008H27.1998C29.0776 24.0008 30.5998 22.4657 30.5998 20.5721V19.7148V12.0422C30.5998 11.9113 30.4762 11.8158 30.3484 11.8437C29.8813 11.946 29.3964 11.9998 28.899 11.9998C26.093 11.9998 23.6839 10.2859 22.6451 7.83942Z" fill="#03B89E"/>
<path id="Vector" d="M28.9008 0C26.8328 0 25.0548 1.24153 24.2538 3.02535C23.9638 3.67165 23.8008 4.3876 23.8008 5.14254C23.8008 5.65141 23.8754 6.14171 24.0116 6.60601C24.2151 7.29688 24.5576 7.92739 25.0079 8.46319C25.9433 9.5775 27.3401 10.286 28.9008 10.286C29.3077 10.286 29.7036 10.2368 30.083 10.1458C32.3287 9.60814 34.0007 7.57267 34.0007 5.14347C34.0007 2.30291 31.7173 0.000928592 28.9017 0.000928592L28.9008 0ZM31.7642 5.87427H29.6263V8.03047C29.6263 8.26354 29.5176 8.47062 29.3492 8.60526C29.2258 8.7037 29.0702 8.7622 28.9008 8.7622C28.6604 8.7622 28.4487 8.64427 28.317 8.46319C28.2286 8.34154 28.1752 8.19297 28.1752 8.03047V5.87427H26.0373C25.6367 5.87427 25.3117 5.54648 25.3117 5.14254C25.3117 4.73861 25.6367 4.41081 26.0373 4.41081H28.1752V2.25462C28.1752 1.85068 28.5002 1.52289 28.9008 1.52289C29.3013 1.52289 29.6263 1.85068 29.6263 2.25462V4.41081H31.7642C32.1648 4.41081 32.4898 4.73861 32.4898 5.14254C32.4898 5.54648 32.1648 5.87427 31.7642 5.87427Z" fill="#03B89E"/>
</g>
</svg>
