<svg width="24" height="24" viewBox="0 0 24 24" fill="none" xmlns="http://www.w3.org/2000/svg">
  <path d="M1.78688 22.1234C1.40438 21.7409 1.40438 21.1259 1.78688 20.7434L8.50687 14.0234L9.88687 15.4034L3.16688 22.1234C2.78438 22.5059 2.16938 22.5059 1.78688 22.1234Z" fill="#D3D3D3"/>
  <path d="M15.0249 14.3777L18.4773 10.9253L17.2502 6.37219L12.9036 5.35156L9.45117 8.80398L10.5002 13.1222L15.0249 14.3777Z" fill="#CA0B4A"/>
  <path d="M12.887 5.34375L18.4895 10.9388C19.2545 11.7038 20.492 11.7038 21.257 10.9388L22.0895 10.1063C22.4045 9.79125 22.4045 9.28125 22.0895 8.96625L14.8595 1.73625C14.5445 1.42125 14.0345 1.42125 13.7195 1.73625L12.887 2.56875C12.122 3.33375 12.122 4.57875 12.887 5.34375Z" fill="#F8312F"/>
  <path d="M4.56203 10.9237L12.902 19.2637C13.292 19.6537 13.9295 19.6537 14.3195 19.2637L15.002 18.5812C16.172 17.4112 16.172 15.5212 15.002 14.3512L9.47453 8.82373C8.30453 7.65373 6.41453 7.65373 5.24453 8.82373L4.56203 9.50623C4.17203 9.89623 4.17203 10.5337 4.56203 10.9237Z" fill="#F8312F"/>
</svg>
