<svg width="21" height="21" viewBox="0 0 21 21" fill="none" xmlns="http://www.w3.org/2000/svg">
<g clip-path="url(#clip0_5061_13861)">
<path d="M10.502 1.5C5.53197 1.5 1.50195 5.53001 1.50195 10.5C1.50195 15.47 5.53197 19.5 10.502 19.5C15.4719 19.5 19.502 15.47 19.502 10.5C19.502 5.53001 15.4719 1.5 10.502 1.5ZM14.102 12.3C14.102 13.3134 13.2808 14.1346 12.2674 14.1346L8.70195 14.1C7.68851 14.1 6.86738 13.2789 6.86738 12.2654V8.73457C6.86738 7.72113 7.68851 6.9 8.70195 6.9L12.2674 6.86543C13.2808 6.86543 14.102 7.68655 14.102 8.7V12.3Z" fill="white"/>
<path fill-rule="evenodd" clip-rule="evenodd" d="M21 10.5C21 16.299 16.299 21 10.5 21C4.70101 21 0 16.299 0 10.5C0 4.70101 4.70101 0 10.5 0C16.299 0 21 4.70101 21 10.5ZM18 10.501C18 14.6431 14.6421 18.001 10.5 18.001C6.35786 18.001 3 14.6431 3 10.501C3 6.35884 6.35786 3.00098 10.5 3.00098C14.6421 3.00098 18 6.35884 18 10.501ZM8.9668 6.67188C7.69827 6.67188 6.66992 7.70022 6.66992 8.96875V12.0312C6.66992 13.2998 7.69827 14.3281 8.9668 14.3281H12.0293C13.2978 14.3281 14.3262 13.2998 14.3262 12.0312V8.96875C14.3262 7.70022 13.2978 6.67188 12.0293 6.67188H8.9668ZM8.20117 8.96875C8.20117 8.54591 8.54395 8.20312 8.9668 8.20312H12.0293C12.4521 8.20312 12.7949 8.54591 12.7949 8.96875V12.0312C12.7949 12.4541 12.4521 12.7969 12.0293 12.7969H8.9668C8.54395 12.7969 8.20117 12.4541 8.20117 12.0312V8.96875Z" fill="black"/>
</g>
<defs>
<clipPath id="clip0_5061_13861">
<rect width="21" height="21" fill="white"/>
</clipPath>
</defs>
</svg>
