<svg width="16" height="16" viewBox="0 0 16 16" fill="none" xmlns="http://www.w3.org/2000/svg">
<path d="M0 10.8002C0 8.31113 1.52091 6.3156 3.51331 6.3156H4.8365C6.47909 4.42021 7.60456 2.9468 8.51711 1.28744C9.01901 0.379079 9.55894 0 10.3346 0C11.3992 0 12.1749 0.751006 12.1749 1.78811C12.1749 3.19714 10.981 4.92088 10.943 5.63612C10.9354 5.76486 11.0342 5.82924 11.1863 5.82924H13.9316C15.1027 5.82924 16 6.68753 16 7.789C16 8.21815 15.8783 8.62584 15.6806 8.91909C15.8251 9.17658 15.9087 9.51989 15.9087 9.8489C15.9087 10.3639 15.7186 10.8502 15.3764 11.1936C15.4753 11.4153 15.5361 11.6871 15.5361 11.966C15.5361 12.5597 15.2471 13.1033 14.7452 13.4823C14.7909 13.6254 14.8137 13.7756 14.8137 13.9401C14.8137 14.8413 14.1293 15.5709 13.0418 15.8212C12.5095 15.9499 11.6958 16 10.73 16H9.70342C8.40304 16 7.21673 15.7282 6.22814 15.249H3.79468C1.6654 15.249 0 13.2392 0 10.8002ZM4.59316 10.743C4.59316 13.0675 6.6692 14.7197 9.77947 14.7269H10.6616C11.5741 14.7269 12.2738 14.684 12.6996 14.5767C13.1939 14.4622 13.4297 14.2262 13.4297 13.9329C13.4297 13.7756 13.4068 13.7112 13.2548 13.3464C13.1559 13.1319 13.2167 12.8958 13.4525 12.7743C13.9164 12.5382 14.1445 12.2879 14.1445 11.9517C14.1445 11.7371 14.0684 11.5941 13.9011 11.308C13.7643 11.0291 13.8479 10.7573 14.0989 10.5928C14.3954 10.3782 14.5399 10.135 14.5399 9.8489C14.5399 9.61287 14.4487 9.43406 14.2357 9.14081C14.0684 8.962 14.0913 8.70451 14.289 8.53286C14.5399 8.28967 14.6388 8.10371 14.6388 7.81046C14.6388 7.40992 14.3194 7.10952 13.8935 7.10952H11.2471C10.2814 7.10952 9.56654 6.57309 9.56654 5.73625C9.56654 4.61332 10.8137 2.89674 10.8137 1.85963C10.8137 1.52347 10.6312 1.33751 10.3498 1.33751C10.1141 1.33751 9.96198 1.43764 9.71863 1.88824C8.60837 3.97675 7.05703 5.66473 5.93916 7.06661C4.94297 8.32544 4.59316 9.26956 4.59316 10.743ZM1.3384 10.8002C1.3384 12.5382 2.43346 13.9616 3.71863 14.0045C4 14.0045 4.27376 14.0045 4.54753 14.0045C3.69582 13.1247 3.23194 12.0089 3.23194 10.743C3.23194 9.54135 3.46008 8.54716 3.97719 7.58158C3.78707 7.58873 3.59696 7.58873 3.40684 7.58873C2.30418 7.63165 1.3384 9.04068 1.3384 10.8002Z" fill="#A9A9A9"/>
</svg>
