<svg width="18" height="20" viewBox="0 0 18 20" fill="none" xmlns="http://www.w3.org/2000/svg">
<g clip-path="url(#clip0_1072_26573)">
<path d="M3.2207 10.5V2.14244C3.2207 1.76356 3.35268 1.4002 3.5876 1.13229C3.82252 0.864377 4.14114 0.713867 4.47337 0.713867H10.7367L17 7.85672V17.8567C17 18.2356 16.8681 18.599 16.6331 18.8669C16.3982 19.1348 16.0796 19.2853 15.7474 19.2853H13.6797" stroke="black" stroke-linecap="round" stroke-linejoin="round"/>
<path d="M10.7363 0.713867V7.85672H16.9997" stroke="black" stroke-linecap="round" stroke-linejoin="round"/>
<rect y="12" width="13" height="7" rx="1" fill="#00D1F2"/>
<path d="M10.2817 17.3901C9.26752 17.3901 8.55664 16.6101 8.55664 15.5051C8.55664 14.3951 9.26752 13.6201 10.2817 13.6201C10.7604 13.6201 11.1869 13.8351 11.4997 14.1701L11.1679 14.5151C10.9594 14.2551 10.6277 14.0851 10.277 14.0851C9.55187 14.0851 9.06373 14.6551 9.06373 15.5051C9.06373 16.3551 9.55187 16.9251 10.277 16.9251C10.6514 16.9251 10.9499 16.7451 11.149 16.5051L11.4997 16.8401C11.1869 17.1751 10.7841 17.3951 10.2817 17.3901Z" fill="white"/>
<path d="M7.14872 13.6602L8.44726 17.3502H7.91173L7.56103 16.3452H6.12506L5.76014 17.3502H5.22461L6.54685 13.6602H7.14872ZM6.28619 15.8852H7.39516L6.85015 14.3302L6.28619 15.8852Z" fill="white"/>
<path d="M3.42411 13.6602L4.72265 17.3502H4.18712L3.83642 16.3452H2.40045L2.03553 17.3502H1.5L2.82224 13.6602H3.42411ZM2.56158 15.8852H3.67055L3.12554 14.3302L2.56158 15.8852Z" fill="white"/>
</g>
<defs>
<clipPath id="clip0_1072_26573">
<rect width="18" height="20" fill="white"/>
</clipPath>
</defs>
</svg>
