<svg width="18" height="20" viewBox="0 0 18 20" fill="none" xmlns="http://www.w3.org/2000/svg">
<g clip-path="url(#clip0_1072_26409)">
<path d="M3.2207 10.5V2.14244C3.2207 1.76356 3.35268 1.4002 3.5876 1.13229C3.82252 0.864377 4.14114 0.713867 4.47337 0.713867H10.7367L17 7.85672V17.8567C17 18.2356 16.8681 18.599 16.6331 18.8669C16.3982 19.1348 16.0796 19.2853 15.7474 19.2853H13.6797" stroke="black" stroke-linecap="round" stroke-linejoin="round"/>
<path d="M10.7363 0.713867V7.85672H16.9997" stroke="black" stroke-linecap="round" stroke-linejoin="round"/>
<rect y="12" width="13" height="7" rx="1" fill="#00D1F2"/>
<path d="M10.2905 17.3901C9.28378 17.3901 8.57812 16.6101 8.57812 15.5051C8.57812 14.3951 9.28378 13.6201 10.2905 13.6201C10.7657 13.6201 11.189 13.8351 11.4995 14.1701L11.1702 14.5151C10.9632 14.2551 10.6339 14.0851 10.2858 14.0851C9.56604 14.0851 9.08149 14.6551 9.08149 15.5051C9.08149 16.3551 9.56604 16.9251 10.2858 16.9251C10.6575 16.9251 10.9538 16.7451 11.1514 16.5051L11.4995 16.8401C11.189 17.1751 10.7892 17.3951 10.2905 17.3901Z" fill="white"/>
<path d="M6.40423 16.9251C7.13811 16.9251 7.63207 16.3551 7.63207 15.5051C7.63207 14.6551 7.13811 14.0851 6.40423 14.0851C5.67035 14.0851 5.1811 14.6551 5.1811 15.5051C5.1811 16.3551 5.67035 16.9251 6.40423 16.9251ZM6.40423 13.6201C7.42038 13.6201 8.13544 14.4001 8.13544 15.5051C8.13544 16.6101 7.42038 17.3901 6.40423 17.3901C5.3928 17.3901 4.67773 16.6101 4.67773 15.5051C4.67773 14.4001 5.3928 13.6201 6.40423 13.6201Z" fill="white"/>
<path d="M2.49262 16.8852C3.23591 16.8852 3.73457 16.3302 3.73457 15.5052C3.73457 14.6802 3.23591 14.1252 2.49262 14.1252L1.99866 14.1302V16.8802L2.49262 16.8852ZM2.49732 13.6602C3.51347 13.6602 4.22853 14.4202 4.22853 15.5052C4.22853 16.5902 3.51347 17.3502 2.49732 17.3502H1.5V13.6602H2.49732Z" fill="white"/>
</g>
<defs>
<clipPath id="clip0_1072_26409">
<rect width="18" height="20" fill="white"/>
</clipPath>
</defs>
</svg>
