<svg width="20" height="20" viewBox="0 0 20 20" fill="none" xmlns="http://www.w3.org/2000/svg">
<path d="M5.2207 10.5V2.14244C5.2207 1.76356 5.35268 1.4002 5.5876 1.13229C5.82252 0.864377 6.14114 0.713867 6.47337 0.713867H12.7367L19 7.85672V17.8567C19 18.2356 18.8681 18.599 18.6331 18.8669C18.3982 19.1348 18.0796 19.2853 17.7474 19.2853H15.6797" stroke="black" stroke-linecap="round" stroke-linejoin="round"/>
<path d="M12.7363 0.713867V7.85672H18.9997" stroke="black" stroke-linecap="round" stroke-linejoin="round"/>
<rect x="1" y="12" width="14" height="7" rx="1" fill="#00D1F2"/>
<path d="M14.5004 13.6602L13.2241 15.5002L14.5004 17.3502H13.8318L12.8898 15.9552L11.9478 17.3502H11.2793L12.5556 15.5002L11.2793 13.6602H11.9478L12.8898 15.0502L13.8318 13.6652L14.5004 13.6602Z" fill="white"/>
<path d="M9.95092 17.3901C8.86711 17.3901 8.10742 16.6101 8.10742 15.5051C8.10742 14.3951 8.86711 13.6201 9.95092 13.6201C10.4624 13.6201 10.9182 13.8351 11.2525 14.1701L10.898 14.5151C10.6752 14.2551 10.3206 14.0851 9.94586 14.0851C9.17098 14.0851 8.64933 14.6551 8.64933 15.5051C8.64933 16.3551 9.17098 16.9251 9.94586 16.9251C10.346 16.9251 10.665 16.7451 10.8777 16.5051L11.2525 16.8401C10.9182 17.1751 10.4878 17.3951 9.95092 17.3901Z" fill="white"/>
<path d="M6.27275 16.9251C7.06282 16.9251 7.5946 16.3551 7.5946 15.5051C7.5946 14.6551 7.06282 14.0851 6.27275 14.0851C5.48268 14.0851 4.95597 14.6551 4.95597 15.5051C4.95597 16.3551 5.48268 16.9251 6.27275 16.9251ZM6.27275 13.6201C7.3667 13.6201 8.13651 14.4001 8.13651 15.5051C8.13651 16.6101 7.3667 17.3901 6.27275 17.3901C5.18387 17.3901 4.41406 16.6101 4.41406 15.5051C4.41406 14.4001 5.18387 13.6201 6.27275 13.6201Z" fill="white"/>
<path d="M2.56862 16.8852C3.36882 16.8852 3.90566 16.3302 3.90566 15.5052C3.90566 14.6802 3.36882 14.1252 2.56862 14.1252L2.03684 14.1302V16.8802L2.56862 16.8852ZM2.57369 13.6602C3.66763 13.6602 4.43744 14.4202 4.43744 15.5052C4.43744 16.5902 3.66763 17.3502 2.57369 17.3502H1.5V13.6602H2.57369Z" fill="white"/>
</svg>
