<svg width="18" height="20" viewBox="0 0 18 20" fill="none" xmlns="http://www.w3.org/2000/svg">
<g clip-path="url(#clip0_1072_26304)">
<path d="M3.2207 10.5V2.14244C3.2207 1.76356 3.35268 1.4002 3.5876 1.13229C3.82252 0.864377 4.14114 0.713867 4.47337 0.713867H10.7367L17 7.85672V17.8567C17 18.2356 16.8681 18.599 16.6331 18.8669C16.3982 19.1348 16.0796 19.2853 15.7474 19.2853H13.6797" stroke="black" stroke-linecap="round" stroke-linejoin="round"/>
<path d="M10.7363 0.713867V7.85672H16.9997" stroke="black" stroke-linecap="round" stroke-linejoin="round"/>
<rect y="12" width="13" height="7" rx="1" fill="#00D1F2"/>
<path d="M10.5008 13.6543V14.1193H8.6854V15.2643H10.2242V15.7243H8.6854V17.3443H8.15234V13.6543H10.5008Z" fill="white"/>
<path d="M6.81836 13.6543H7.35141V17.3443H6.81836V13.6543Z" fill="white"/>
<path d="M6.09058 15.4101L6.08555 15.7301C6.08555 16.7651 5.37649 17.3701 4.34558 17.3851C3.26438 17.3851 2.5 16.6051 2.5 15.5001C2.5 14.3951 3.26438 13.6201 4.34558 13.6201C5.50724 13.6201 5.91457 14.5101 5.91457 14.5101L5.45695 14.7451C5.45695 14.7451 5.16528 14.0851 4.34558 14.0851C3.56108 14.0851 3.03306 14.6551 3.03306 15.5001C3.03306 16.3501 3.56108 16.9201 4.34558 16.9201C5.01944 16.9001 5.55753 16.5751 5.56256 15.8501H4.40593V15.4101H6.09058Z" fill="white"/>
</g>
<defs>
<clipPath id="clip0_1072_26304">
<rect width="18" height="20" fill="white"/>
</clipPath>
</defs>
</svg>
