<svg width="18" height="20" viewBox="0 0 18 20" fill="none" xmlns="http://www.w3.org/2000/svg">
<g clip-path="url(#clip0_1072_26498)">
<path d="M3.2207 10.5V2.14244C3.2207 1.76356 3.35268 1.4002 3.5876 1.13229C3.82252 0.864377 4.14114 0.713867 4.47337 0.713867H10.7367L17 7.85672V17.8567C17 18.2356 16.8681 18.599 16.6331 18.8669C16.3982 19.1348 16.0796 19.2853 15.7474 19.2853H13.6797" stroke="black" stroke-linecap="round" stroke-linejoin="round"/>
<path d="M10.7363 0.713867V7.85672H16.9997" stroke="black" stroke-linecap="round" stroke-linejoin="round"/>
<rect y="12" width="13" height="7" rx="1" fill="#00D1F2"/>
<path d="M11.2407 15.5002C11.6585 15.5002 11.9509 15.2152 11.9509 14.8102C11.9509 14.4102 11.6533 14.1252 11.2355 14.1252H10.3895V15.5002H11.2407ZM11.2564 13.6602C11.9875 13.6602 12.4992 14.1352 12.4992 14.8102C12.4992 15.4852 11.9875 15.9602 11.2564 15.9602H10.3895V17.3502H9.83594V13.6602H11.2564Z" fill="white"/>
<path d="M9.15269 13.6602L8.08214 17.3502H7.56514L6.66171 14.5752L5.81049 17.3502H5.28827L4.11328 13.6602H4.69294L5.54938 16.4002L6.36404 13.6652H6.95415L7.7897 16.4002L8.57302 13.6602H9.15269Z" fill="white"/>
<path d="M3.42964 13.6602V17.3502H2.87087V15.6852H1.05355V17.3502H0.5V13.6602H1.05355V15.2252H2.87087V13.6602H3.42964Z" fill="white"/>
</g>
<defs>
<clipPath id="clip0_1072_26498">
<rect width="18" height="20" fill="white"/>
</clipPath>
</defs>
</svg>
