<svg width="20" height="20" viewBox="0 0 20 20" fill="none" xmlns="http://www.w3.org/2000/svg">
<path d="M5.2207 10.5V2.14244C5.2207 1.76356 5.35268 1.4002 5.5876 1.13229C5.82252 0.864377 6.14114 0.713867 6.47337 0.713867H12.7367L19 7.85672V17.8567C19 18.2356 18.8681 18.599 18.6331 18.8669C18.3982 19.1348 18.0796 19.2853 17.7474 19.2853H15.6797" stroke="black" stroke-linecap="round" stroke-linejoin="round"/>
<path d="M12.7363 0.713867V7.85672H18.9997" stroke="black" stroke-linecap="round" stroke-linejoin="round"/>
<rect x="1" y="12" width="14" height="7" rx="1" fill="#00D1F2"/>
<path d="M14.0008 15.4104L13.9961 15.7126C13.9961 16.6902 13.3302 17.2616 12.3621 17.2758C11.3467 17.2758 10.6289 16.5391 10.6289 15.4954C10.6289 14.4517 11.3467 13.7197 12.3621 13.7197C13.453 13.7197 13.8355 14.5603 13.8355 14.5603L13.4058 14.7823C13.4058 14.7823 13.1319 14.1589 12.3621 14.1589C11.6254 14.1589 11.1295 14.6973 11.1295 15.4954C11.1295 16.2982 11.6254 16.8366 12.3621 16.8366C12.9949 16.8177 13.5002 16.5108 13.5049 15.826H12.4188V15.4104H14.0008Z" fill="white"/>
<path d="M10.0866 13.752V14.1912H8.33458V15.2254H9.84107V15.6599H8.33458V16.798H10.0866V17.2372H7.83398V13.752H10.0866Z" fill="white"/>
<path d="M6.15904 15.4899C6.53684 15.4899 6.80131 15.2207 6.80131 14.8381C6.80131 14.4603 6.53212 14.1912 6.15432 14.1912H5.38926V15.4899H6.15904ZM6.17321 13.752C6.83437 13.752 7.29718 14.2006 7.29718 14.8381C7.29718 15.4757 6.83437 15.9243 6.17321 15.9243H5.38926V17.2372H4.88867V13.752H6.17321Z" fill="white"/>
<path d="M4.09682 16.1746C4.09682 16.8169 3.64345 17.2703 3.00118 17.2703C2.59032 17.2703 2.17473 17.0011 2 16.6233L2.44864 16.406C2.56671 16.6563 2.79339 16.8311 3.0059 16.8311C3.35065 16.8311 3.5915 16.5572 3.5915 16.1746V13.752H4.09682V16.1746Z" fill="white"/>
</svg>
