<svg width="18" height="20" viewBox="0 0 18 20" fill="none" xmlns="http://www.w3.org/2000/svg">
<g clip-path="url(#clip0_1072_26249)">
<path d="M3.2207 10.5V2.14244C3.2207 1.76356 3.35268 1.4002 3.5876 1.13229C3.82252 0.864377 4.14114 0.713867 4.47337 0.713867H10.7367L17 7.85672V17.8567C17 18.2356 16.8681 18.599 16.6331 18.8669C16.3982 19.1348 16.0796 19.2853 15.7474 19.2853H13.6797" stroke="black" stroke-linecap="round" stroke-linejoin="round"/>
<path d="M10.7363 0.713867V7.85672H16.9997" stroke="black" stroke-linecap="round" stroke-linejoin="round"/>
<rect y="12" width="13" height="7" rx="1" fill="#00D1F2"/>
<path d="M11.5004 15.4101L11.4951 15.7301C11.4951 16.7651 10.7588 17.3701 9.68815 17.3851C8.56531 17.3851 7.77148 16.6051 7.77148 15.5001C7.77148 14.3951 8.56531 13.6201 9.68815 13.6201C10.8946 13.6201 11.3176 14.5101 11.3176 14.5101L10.8423 14.7451C10.8423 14.7451 10.5394 14.0851 9.68815 14.0851C8.87344 14.0851 8.32507 14.6551 8.32507 15.5001C8.32507 16.3501 8.87344 16.9201 9.68815 16.9201C10.388 16.9001 10.9468 16.5751 10.952 15.8501H9.75082V15.4101H11.5004Z" fill="white"/>
<path d="M6.10017 15.4943C6.51797 15.4943 6.81044 15.2093 6.81044 14.8043C6.81044 14.4043 6.51275 14.1193 6.09495 14.1193H5.2489V15.4943H6.10017ZM6.11584 13.6543C6.84699 13.6543 7.3588 14.1293 7.3588 14.8043C7.3588 15.4793 6.84699 15.9543 6.11584 15.9543H5.2489V17.3443H4.69531V13.6543H6.11584Z" fill="white"/>
<path d="M3.8188 16.2193C3.8188 16.8993 3.31744 17.3793 2.60718 17.3793C2.15282 17.3793 1.69323 17.0943 1.5 16.6943L1.99614 16.4643C2.1267 16.7293 2.37738 16.9143 2.6124 16.9143C2.99364 16.9143 3.25999 16.6243 3.25999 16.2193V13.6543H3.8188V16.2193Z" fill="white"/>
</g>
<defs>
<clipPath id="clip0_1072_26249">
<rect width="18" height="20" fill="white"/>
</clipPath>
</defs>
</svg>
