<svg width="18" height="20" viewBox="0 0 18 20" fill="none" xmlns="http://www.w3.org/2000/svg">
<g clip-path="url(#clip0_1072_26543)">
<path d="M3.2207 10.5V2.14244C3.2207 1.76356 3.35268 1.4002 3.5876 1.13229C3.82252 0.864377 4.14114 0.713867 4.47337 0.713867H10.7367L17 7.85672V17.8567C17 18.2356 16.8681 18.599 16.6331 18.8669C16.3982 19.1348 16.0796 19.2853 15.7474 19.2853H13.6797" stroke="black" stroke-linecap="round" stroke-linejoin="round"/>
<path d="M10.7363 0.713867V7.85672H16.9997" stroke="black" stroke-linecap="round" stroke-linejoin="round"/>
<rect y="12" width="13" height="7" rx="1" fill="#00D1F2"/>
<path d="M12.4999 13.6602L11.1629 17.3502H10.5178L9.09766 13.6602H9.6855L10.8352 16.6352L11.912 13.6602H12.4999Z" fill="white"/>
<path d="M6.99122 16.9251C7.80276 16.9251 8.34899 16.3551 8.34899 15.5051C8.34899 14.6551 7.80276 14.0851 6.99122 14.0851C6.17969 14.0851 5.63866 14.6551 5.63866 15.5051C5.63866 16.3551 6.17969 16.9251 6.99122 16.9251ZM6.99122 13.6201C8.11489 13.6201 8.90562 14.4001 8.90562 15.5051C8.90562 16.6101 8.11489 17.3901 6.99122 17.3901C5.87276 17.3901 5.08203 16.6101 5.08203 15.5051C5.08203 14.4001 5.87276 13.6201 6.99122 13.6201Z" fill="white"/>
<path d="M2.1907 16.5802L1.05143 14.6352V17.3502H0.5V13.6602H1.09825L2.4352 15.9152L3.76696 13.6602H4.37041V17.3502H3.81898V14.6352L2.6745 16.5802H2.1907Z" fill="white"/>
</g>
<defs>
<clipPath id="clip0_1072_26543">
<rect width="18" height="20" fill="white"/>
</clipPath>
</defs>
</svg>
