<svg width="18" height="20" viewBox="0 0 18 20" fill="none" xmlns="http://www.w3.org/2000/svg">
<g clip-path="url(#clip0_1072_26558)">
<path d="M3.2207 10.5V2.14244C3.2207 1.76356 3.35268 1.4002 3.5876 1.13229C3.82252 0.864377 4.14114 0.713867 4.47337 0.713867H10.7367L17 7.85672V17.8567C17 18.2356 16.8681 18.599 16.6331 18.8669C16.3982 19.1348 16.0796 19.2853 15.7474 19.2853H13.6797" stroke="black" stroke-linecap="round" stroke-linejoin="round"/>
<path d="M10.7363 0.713867V7.85672H16.9997" stroke="black" stroke-linecap="round" stroke-linejoin="round"/>
<rect y="12" width="13" height="7" rx="1" fill="#00D1F2"/>
<path d="M10.9787 15.4404C11.2986 15.6304 11.5003 15.9854 11.5003 16.2904C11.5003 16.9104 10.9984 17.3504 10.2848 17.3504C9.57617 17.3504 9.07422 16.9004 9.07422 16.2604H9.59586C9.59586 16.6254 9.88128 16.8804 10.2848 16.8804C10.6982 16.8804 10.9935 16.6254 10.9935 16.2604C10.9935 15.9104 10.7031 15.6604 10.2947 15.6604H10.0388V15.2154H10.2996C10.6736 15.2154 10.9393 14.9904 10.9393 14.6704C10.9393 14.3454 10.6834 14.1204 10.3193 14.1204C9.9551 14.1204 9.70412 14.3504 9.70412 14.6754H9.18248C9.18248 14.0704 9.64999 13.6504 10.3193 13.6504C10.9787 13.6504 11.4462 14.0604 11.4462 14.6404C11.4462 14.9204 11.269 15.2504 10.9787 15.4404Z" fill="white"/>
<path d="M7.33159 15.4953C7.72528 15.4953 8.00086 15.2103 8.00086 14.8053C8.00086 14.4053 7.72036 14.1203 7.32667 14.1203H6.52945V15.4953H7.33159ZM7.34635 13.6553C8.03531 13.6553 8.51758 14.1303 8.51758 14.8053C8.51758 15.4803 8.03531 15.9553 7.34635 15.9553H6.52945V17.3453H6.00781V13.6553H7.34635Z" fill="white"/>
<path d="M3.09936 16.5753L2.02164 14.6303V17.3453H1.5V13.6553H2.06593L3.33065 15.9103L4.59046 13.6553H5.1613V17.3453H4.63967V14.6303L3.55702 16.5753H3.09936Z" fill="white"/>
</g>
<defs>
<clipPath id="clip0_1072_26558">
<rect width="18" height="20" fill="white"/>
</clipPath>
</defs>
</svg>
