<svg width="18" height="20" viewBox="0 0 18 20" fill="none" xmlns="http://www.w3.org/2000/svg">
<g clip-path="url(#clip0_1072_26513)">
<path d="M3.2207 10.5V2.14244C3.2207 1.76356 3.35268 1.4002 3.5876 1.13229C3.82252 0.864377 4.14114 0.713867 4.47337 0.713867H10.7367L17 7.85672V17.8567C17 18.2356 16.8681 18.599 16.6331 18.8669C16.3982 19.1348 16.0796 19.2853 15.7474 19.2853H13.6797" stroke="black" stroke-linecap="round" stroke-linejoin="round"/>
<path d="M10.7363 0.713867V7.85672H16.9997" stroke="black" stroke-linecap="round" stroke-linejoin="round"/>
<rect y="12" width="13" height="7" rx="1" fill="#00D1F2"/>
<path d="M11.0528 13.6855V15.9255H11.4993V16.3855H11.0528V17.3255H10.5383V16.3855H9.01924L8.9707 15.9255L10.5626 13.6855H11.0528ZM9.58222 15.9255H10.5383V14.5705L9.58222 15.9255Z" fill="white"/>
<path d="M7.25085 15.5002C7.63911 15.5002 7.9109 15.2152 7.9109 14.8102C7.9109 14.4102 7.63426 14.1252 7.246 14.1252H6.45976V15.5002H7.25085ZM7.26541 13.6602C7.94487 13.6602 8.4205 14.1352 8.4205 14.8102C8.4205 15.4852 7.94487 15.9602 7.26541 15.9602H6.45976V17.3502H5.94531V13.6602H7.26541Z" fill="white"/>
<path d="M3.07732 16.5802L2.01445 14.6352V17.3502H1.5V13.6602H2.05813L3.30543 15.9152L4.54787 13.6602H5.11086V17.3502H4.59641V14.6352L3.52868 16.5802H3.07732Z" fill="white"/>
</g>
<defs>
<clipPath id="clip0_1072_26513">
<rect width="18" height="20" fill="white"/>
</clipPath>
</defs>
</svg>
