<svg width="18" height="20" viewBox="0 0 18 20" fill="none" xmlns="http://www.w3.org/2000/svg">
<g clip-path="url(#clip0_1072_26377)">
<path d="M3.2207 10.5V2.14244C3.2207 1.76356 3.35268 1.4002 3.5876 1.13229C3.82252 0.864377 4.14114 0.713867 4.47337 0.713867H10.7367L17 7.85672V17.8567C17 18.2356 16.8681 18.599 16.6331 18.8669C16.3982 19.1348 16.0796 19.2853 15.7474 19.2853H13.6797" stroke="black" stroke-linecap="round" stroke-linejoin="round"/>
<path d="M10.7363 0.713867V7.85672H16.9997" stroke="black" stroke-linecap="round" stroke-linejoin="round"/>
<rect y="12" width="13" height="7" rx="1" fill="#00D1F2"/>
<path d="M10.9997 13.6602V14.1252H9.19722V15.2702H10.7251V15.7302H9.19722V17.3502H8.66797V13.6602H10.9997Z" fill="white"/>
<path d="M6.22734 16.8852C7.01622 16.8852 7.54547 16.3302 7.54547 15.5052C7.54547 14.6802 7.01622 14.1252 6.22734 14.1252L5.70308 14.1302V16.8802L6.22734 16.8852ZM6.23233 13.6602C7.3108 13.6602 8.06973 14.4202 8.06973 15.5052C8.06973 16.5902 7.3108 17.3502 6.23233 17.3502H5.17383V13.6602H6.23233Z" fill="white"/>
<path d="M3.3431 15.5002C3.74253 15.5002 4.02214 15.2152 4.02214 14.8102C4.02214 14.4102 3.73754 14.1252 3.33811 14.1252H2.52925V15.5002H3.3431ZM3.35808 13.6602C4.05709 13.6602 4.5464 14.1352 4.5464 14.8102C4.5464 15.4852 4.05709 15.9602 3.35808 15.9602H2.52925V17.3502H2V13.6602H3.35808Z" fill="white"/>
</g>
<defs>
<clipPath id="clip0_1072_26377">
<rect width="18" height="20" fill="white"/>
</clipPath>
</defs>
</svg>
