<svg width="18" height="20" viewBox="0 0 18 20" fill="none" xmlns="http://www.w3.org/2000/svg">
<g clip-path="url(#clip0_1072_26288)">
<path d="M3.2207 10.5V2.14244C3.2207 1.76356 3.35268 1.4002 3.5876 1.13229C3.82252 0.864377 4.14114 0.713867 4.47337 0.713867H10.7367L17 7.85672V17.8567C17 18.2356 16.8681 18.599 16.6331 18.8669C16.3982 19.1348 16.0796 19.2853 15.7474 19.2853H13.6797" stroke="black" stroke-linecap="round" stroke-linejoin="round"/>
<path d="M10.7363 0.713867V7.85672H16.9997" stroke="black" stroke-linecap="round" stroke-linejoin="round"/>
<rect y="12" width="13" height="7" rx="1" fill="#00D1F2"/>
<path d="M11.5003 15.4101L11.4955 15.7301C11.4955 16.7651 10.8127 17.3701 9.82006 17.3851C8.77898 17.3851 8.04297 16.6051 8.04297 15.5001C8.04297 14.3951 8.77898 13.6201 9.82006 13.6201C10.9386 13.6201 11.3308 14.5101 11.3308 14.5101L10.8902 14.7451C10.8902 14.7451 10.6093 14.0851 9.82006 14.0851C9.06468 14.0851 8.55624 14.6551 8.55624 15.5001C8.55624 16.3501 9.06468 16.9201 9.82006 16.9201C10.4689 16.9001 10.987 16.5751 10.9919 15.8501H9.87817V15.4101H11.5003Z" fill="white"/>
<path d="M7.40488 13.6543V17.3443H6.84802L5.07577 14.5643V17.3443H4.5625V13.6543H5.11935L6.88676 16.4293V13.6543H7.40488Z" fill="white"/>
<path d="M2.80256 15.4943C3.18993 15.4943 3.4611 15.2093 3.4611 14.8043C3.4611 14.4043 3.18509 14.1193 2.79771 14.1193H2.01327V15.4943H2.80256ZM2.81708 13.6543C3.49499 13.6543 3.96953 14.1293 3.96953 14.8043C3.96953 15.4793 3.49499 15.9543 2.81708 15.9543H2.01327V17.3443H1.5V13.6543H2.81708Z" fill="white"/>
</g>
<defs>
<clipPath id="clip0_1072_26288">
<rect width="18" height="20" fill="white"/>
</clipPath>
</defs>
</svg>
