<svg width="18" height="20" viewBox="0 0 18 20" fill="none" xmlns="http://www.w3.org/2000/svg">
<g clip-path="url(#clip0_1072_26483)">
<path d="M3.2207 10.5V2.14244C3.2207 1.76356 3.35268 1.4002 3.5876 1.13229C3.82252 0.864377 4.14114 0.713867 4.47337 0.713867H10.7367L17 7.85672V17.8567C17 18.2356 16.8681 18.599 16.6331 18.8669C16.3982 19.1348 16.0796 19.2853 15.7474 19.2853H13.6797" stroke="black" stroke-linecap="round" stroke-linejoin="round"/>
<path d="M10.7363 0.713867V7.85672H16.9997" stroke="black" stroke-linecap="round" stroke-linejoin="round"/>
<rect y="12" width="13" height="7" rx="1" fill="#00D1F2"/>
<path d="M11.0004 13.6602V14.1252H9.92646V17.3502H9.37401V14.1252H8.29492V13.6602H11.0004Z" fill="white"/>
<path d="M6.66622 15.5002C7.07926 15.5002 7.3684 15.2152 7.3684 14.8102C7.3684 14.4102 7.0741 14.1252 6.66105 14.1252H5.82463V15.5002H6.66622ZM6.68171 13.6602C7.40454 13.6602 7.91052 14.1352 7.91052 14.8102C7.91052 15.4852 7.40454 15.9602 6.68171 15.9602H5.82463V17.3502H5.27734V13.6602H6.68171Z" fill="white"/>
<path d="M3.38887 15.5002C3.80192 15.5002 4.09105 15.2152 4.09105 14.8102C4.09105 14.4102 3.79676 14.1252 3.38371 14.1252H2.54729V15.5002H3.38887ZM3.40436 13.6602C4.12719 13.6602 4.63318 14.1352 4.63318 14.8102C4.63318 15.4852 4.12719 15.9602 3.40436 15.9602H2.54729V17.3502H2V13.6602H3.40436Z" fill="white"/>
</g>
<defs>
<clipPath id="clip0_1072_26483">
<rect width="18" height="20" fill="white"/>
</clipPath>
</defs>
</svg>
