<svg width="20" height="20" viewBox="0 0 20 20" fill="none" xmlns="http://www.w3.org/2000/svg">
<path d="M5.2207 10.5V2.14244C5.2207 1.76356 5.35268 1.4002 5.5876 1.13229C5.82252 0.864377 6.14114 0.713867 6.47337 0.713867H12.7367L19 7.85672V17.8567C19 18.2356 18.8681 18.599 18.6331 18.8669C18.3982 19.1348 18.0796 19.2853 17.7474 19.2853H15.6797" stroke="black" stroke-linecap="round" stroke-linejoin="round"/>
<path d="M12.7363 0.713867V7.85672H18.9997" stroke="black" stroke-linecap="round" stroke-linejoin="round"/>
<rect x="1" y="12" width="14" height="7" rx="1" fill="#00D1F2"/>
<path d="M14.4998 13.6602L13.1905 15.5002L14.4998 17.3502H13.814L12.8476 15.9552L11.8812 17.3502H11.1953L12.5047 15.5002L11.1953 13.6602H11.8812L12.8476 15.0502L13.814 13.6652L14.4998 13.6602Z" fill="white"/>
<path d="M10.5566 13.6602V14.1252H9.47586V17.3502H8.91991V14.1252H7.83398V13.6602H10.5566Z" fill="white"/>
<path d="M6.1965 15.5002C6.61217 15.5002 6.90313 15.2152 6.90313 14.8102C6.90313 14.4102 6.60697 14.1252 6.19131 14.1252H5.34958V15.5002H6.1965ZM6.21209 13.6602C6.9395 13.6602 7.44869 14.1352 7.44869 14.8102C7.44869 15.4852 6.9395 15.9602 6.21209 15.9602H5.34958V17.3502H4.79883V13.6602H6.21209Z" fill="white"/>
<path d="M2.89767 15.5002C3.31334 15.5002 3.6043 15.2152 3.6043 14.8102C3.6043 14.4102 3.30814 14.1252 2.89248 14.1252H2.05076V15.5002H2.89767ZM2.91326 13.6602C3.64067 13.6602 4.14986 14.1352 4.14986 14.8102C4.14986 15.4852 3.64067 15.9602 2.91326 15.9602H2.05076V17.3502H1.5V13.6602H2.91326Z" fill="white"/>
</svg>
