<svg width="18" height="20" viewBox="0 0 18 20" fill="none" xmlns="http://www.w3.org/2000/svg">
<g clip-path="url(#clip0_1072_26319)">
<path d="M3.2207 10.5V2.14244C3.2207 1.76356 3.35268 1.4002 3.5876 1.13229C3.82252 0.864377 4.14114 0.713867 4.47337 0.713867H10.7367L17 7.85672V17.8567C17 18.2356 16.8681 18.599 16.6331 18.8669C16.3982 19.1348 16.0796 19.2853 15.7474 19.2853H13.6797" stroke="black" stroke-linecap="round" stroke-linejoin="round"/>
<path d="M10.7363 0.713867V7.85672H16.9997" stroke="black" stroke-linecap="round" stroke-linejoin="round"/>
<rect y="12" width="13" height="7" rx="1" fill="#00D1F2"/>
<path d="M11.4995 15.416L11.4945 15.736C11.4945 16.771 10.7833 17.376 9.7494 17.391C8.66505 17.391 7.89844 16.611 7.89844 15.506C7.89844 14.401 8.66505 13.626 9.7494 13.626C10.9145 13.626 11.323 14.516 11.323 14.516L10.864 14.751C10.864 14.751 10.5715 14.091 9.7494 14.091C8.96262 14.091 8.43305 14.661 8.43305 15.506C8.43305 16.356 8.96262 16.926 9.7494 16.926C10.4252 16.906 10.9649 16.581 10.9699 15.856H9.80992V15.416H11.4995Z" fill="white"/>
<path d="M7.7672 13.6602L6.47102 17.3502H5.84563L4.46875 13.6602H5.03867L6.15328 16.6352L7.19728 13.6602H7.7672Z" fill="white"/>
<path d="M1.94383 16.3002C2.1607 16.7202 2.46835 16.9302 2.79114 16.9302C3.27027 16.9352 3.53757 16.7052 3.53757 16.3502C3.53757 15.5102 1.66644 15.8702 1.66644 14.5852C1.66644 13.9752 2.17079 13.6152 2.86175 13.6202C3.34088 13.6252 3.79984 13.8902 4.00662 14.4652L3.52749 14.6352C3.39636 14.2502 3.13409 14.0852 2.8567 14.0802C2.45827 14.0802 2.20105 14.2752 2.20105 14.5852C2.20105 15.4152 4.06714 15.1002 4.06714 16.3552C4.06714 16.9752 3.57792 17.4002 2.78609 17.3902C2.24139 17.3852 1.80765 17.0752 1.5 16.5452L1.94383 16.3002Z" fill="white"/>
</g>
<defs>
<clipPath id="clip0_1072_26319">
<rect width="18" height="20" fill="white"/>
</clipPath>
</defs>
</svg>
