<svg width="20" height="20" viewBox="0 0 20 20" fill="none" xmlns="http://www.w3.org/2000/svg">
<path d="M5.2207 10.5V2.14244C5.2207 1.76356 5.35268 1.4002 5.5876 1.13229C5.82252 0.864377 6.14114 0.713867 6.47337 0.713867H12.7367L19 7.85672V17.8567C19 18.2356 18.8681 18.599 18.6331 18.8669C18.3982 19.1348 18.0796 19.2853 17.7474 19.2853H15.6797" stroke="black" stroke-linecap="round" stroke-linejoin="round"/>
<path d="M12.7363 0.713867V7.85672H18.9997" stroke="black" stroke-linecap="round" stroke-linejoin="round"/>
<rect x="1" y="12" width="14" height="7" rx="1" fill="#00D1F2"/>
<path d="M13.2798 15.5002C13.6848 15.5002 13.9684 15.2152 13.9684 14.8102C13.9684 14.4102 13.6798 14.1252 13.2748 14.1252H12.4546V15.5002H13.2798ZM13.295 13.6602C14.0038 13.6602 14.4999 14.1352 14.4999 14.8102C14.4999 15.4852 14.0038 15.9602 13.295 15.9602H12.4546V17.3502H11.918V13.6602H13.295Z" fill="white"/>
<path d="M9.15625 17.3502V13.6602H10.4017C10.9991 13.6602 11.4243 14.0752 11.4243 14.6652C11.4243 14.8952 11.3028 15.1602 11.1206 15.3452L11.2522 15.4252C11.5306 15.6052 11.7332 15.9652 11.7332 16.3002C11.7332 16.9152 11.3079 17.3502 10.7054 17.3502H9.15625ZM10.6497 16.8852C10.9788 16.8852 11.2016 16.6502 11.2016 16.3052C11.2016 15.9302 10.9788 15.6802 10.6497 15.6802H9.69289V16.8852H10.6497ZM10.4118 15.2202C10.7004 15.2052 10.8978 14.9952 10.8978 14.6902C10.8978 14.3502 10.6801 14.1252 10.3561 14.1252H9.69289V15.2202H10.4118Z" fill="white"/>
<path d="M8.90122 13.6602V14.1252H7.02297V15.2202H8.63796V15.6802H7.02297V16.8852H8.90122V17.3502H6.48633V13.6602H8.90122Z" fill="white"/>
<path d="M6.38548 13.6602L5.34763 17.3502H4.84643L3.97059 14.5752L3.14537 17.3502H2.6391L1.5 13.6602H2.06196L2.89224 16.4002L3.68201 13.6652H4.2541L5.06412 16.4002L5.82352 13.6602H6.38548Z" fill="white"/>
</svg>
