<svg width="18" height="20" viewBox="0 0 18 20" fill="none" xmlns="http://www.w3.org/2000/svg">
<g clip-path="url(#clip0_1072_26442)">
<path d="M3.2207 10.5V2.14244C3.2207 1.76356 3.35268 1.4002 3.5876 1.13229C3.82252 0.864377 4.14114 0.713867 4.47337 0.713867H10.7367L17 7.85672V17.8567C17 18.2356 16.8681 18.599 16.6331 18.8669C16.3982 19.1348 16.0796 19.2853 15.7474 19.2853H13.6797" stroke="black" stroke-linecap="round" stroke-linejoin="round"/>
<path d="M10.7363 0.713867V7.85672H16.9997" stroke="black" stroke-linecap="round" stroke-linejoin="round"/>
<rect y="12" width="13" height="7" rx="1" fill="#00D1F2"/>
<path d="M8.91937 16.3002C9.13192 16.7202 9.43345 16.9302 9.74981 16.9302C10.2194 16.9352 10.4814 16.7052 10.4814 16.3502C10.4814 15.5102 8.6475 15.8702 8.6475 14.5852C8.6475 13.9752 9.14181 13.6152 9.81901 13.6202C10.2886 13.6252 10.7384 13.8902 10.9411 14.4652L10.4715 14.6352C10.343 14.2502 10.0859 14.0852 9.81407 14.0802C9.42356 14.0802 9.17147 14.2752 9.17147 14.5852C9.17147 15.4152 11.0004 15.1002 11.0004 16.3552C11.0004 16.9752 10.5209 17.4002 9.74487 17.3902C9.21101 17.3852 8.7859 17.0752 8.48438 16.5452L8.91937 16.3002Z" fill="white"/>
<path d="M6.36577 13.6602V16.8852H8.01676V17.3502H5.8418V13.6602H6.36577Z" fill="white"/>
<path d="M5.14381 13.6602L3.89815 15.5002L5.14381 17.3502H4.49132L3.57191 15.9552L2.65249 17.3502H2L3.24566 15.5002L2 13.6602H2.65249L3.57191 15.0502L4.49132 13.6652L5.14381 13.6602Z" fill="white"/>
</g>
<defs>
<clipPath id="clip0_1072_26442">
<rect width="18" height="20" fill="white"/>
</clipPath>
</defs>
</svg>
