<svg width="20" height="20" viewBox="0 0 20 20" fill="none" xmlns="http://www.w3.org/2000/svg">
<path d="M5.2207 10.5V2.14244C5.2207 1.76356 5.35268 1.4002 5.5876 1.13229C5.82252 0.864377 6.14114 0.713867 6.47337 0.713867H12.7367L19 7.85672V17.8567C19 18.2356 18.8681 18.599 18.6331 18.8669C18.3982 19.1348 18.0796 19.2853 17.7474 19.2853H15.6797" stroke="black" stroke-linecap="round" stroke-linejoin="round"/>
<path d="M12.7363 0.713867V7.85672H18.9997" stroke="black" stroke-linecap="round" stroke-linejoin="round"/>
<rect x="1" y="12" width="14" height="7" rx="1" fill="#00D1F2"/>
<path d="M14.0002 13.6602L12.8269 15.5002L14.0002 17.3502H13.3856L12.5196 15.9552L11.6536 17.3502H11.0391L12.2123 15.5002L11.0391 13.6602H11.6536L12.5196 15.0502L13.3856 13.6652L14.0002 13.6602Z" fill="white"/>
<path d="M8.51714 16.3002C8.71734 16.7202 9.00134 16.9302 9.29932 16.9302C9.74162 16.9352 9.98838 16.7052 9.98838 16.3502C9.98838 15.5102 8.26106 15.8702 8.26106 14.5852C8.26106 13.9752 8.72665 13.6152 9.3645 13.6202C9.80681 13.6252 10.2305 13.8902 10.4214 14.4652L9.97907 14.6352C9.85802 14.2502 9.61592 14.0852 9.35984 14.0802C8.99203 14.0802 8.75458 14.2752 8.75458 14.5852C8.75458 15.4152 10.4772 15.1002 10.4772 16.3552C10.4772 16.9752 10.0256 17.4002 9.29466 17.3902C8.79183 17.3852 8.39143 17.0752 8.10742 16.5452L8.51714 16.3002Z" fill="white"/>
<path d="M6.11266 13.6602V16.8852H7.66771V17.3502H5.61914V13.6602H6.11266Z" fill="white"/>
<path d="M4.96112 13.6602L3.78784 15.5002L4.96112 17.3502H4.34654L3.48056 15.9552L2.61457 17.3502H2L3.17327 15.5002L2 13.6602H2.61457L3.48056 15.0502L4.34654 13.6652L4.96112 13.6602Z" fill="white"/>
</svg>
