<svg width="11" height="20" viewBox="0 0 11 20" fill="none" xmlns="http://www.w3.org/2000/svg">
<path fill-rule="evenodd" clip-rule="evenodd" d="M8.43368 0.558123C8.71844 0.241804 9.23923 0.222785 9.55043 0.517341V0.517341C9.81691 0.769569 9.83406 1.16557 9.59022 1.43644L2.7672 9.01569C2.25331 9.58654 2.25331 10.4122 2.7672 10.983L9.59022 18.5623C9.83406 18.8332 9.81691 19.2292 9.55043 19.4814V19.4814C9.23923 19.7759 8.71844 19.7569 8.43368 19.4406L0.819992 10.983C0.306097 10.4122 0.306096 9.58654 0.819992 9.01569L8.43368 0.558123Z" fill="black"/>
<path fill-rule="evenodd" clip-rule="evenodd" d="M8.17385 0.362022C8.58618 -0.0960036 9.34027 -0.123542 9.79089 0.30297C10.1768 0.668192 10.2016 1.2416 9.8485 1.63381L3.02548 9.21306C2.61437 9.66974 2.61437 10.3303 3.02548 10.7869L9.8485 18.3662C10.2016 18.7584 10.1768 19.3318 9.79089 19.697C9.34027 20.1235 8.58618 20.096 8.17385 19.638L0.560162 11.1804C-0.0565122 10.4954 -0.0565127 9.50461 0.560162 8.81959L8.17385 0.362022ZM9.30843 0.732981C9.13664 0.570382 8.84916 0.58088 8.69197 0.755493L1.07827 9.21306C0.667156 9.66974 0.667156 10.3303 1.07827 10.7869L8.69196 19.2445C8.84915 19.4191 9.13664 19.4296 9.30843 19.267C9.45553 19.1278 9.46499 18.9092 9.33039 18.7597L2.50737 11.1804C1.8907 10.4954 1.8907 9.50461 2.50737 8.81959L9.33039 1.24033C9.46499 1.09081 9.45553 0.872214 9.30843 0.732981Z" fill="black"/>
</svg>
