<svg width="22" height="24" viewBox="0 0 22 24" fill="none" xmlns="http://www.w3.org/2000/svg">
  <path d="M0 18.1947C0 16.9809 1.11134 15.9389 2.13196 14.9313C2.93711 14.1412 3.11856 12.5611 3.26598 10.9924C3.4134 6.65267 4.66082 3.75573 7.62062 2.66794C8.05155 1.15649 9.31031 0 11 0C12.6897 0 13.9485 1.15649 14.3794 2.66794C17.3392 3.75573 18.5866 6.65267 18.734 10.9924C18.8814 12.5611 19.0742 14.1412 19.868 14.9313C20.9 15.9389 22 16.9809 22 18.1947C22 19.1565 21.2856 19.8092 20.1062 19.8092H15.4454C15.3433 22.0076 13.5742 24 11 24C8.42577 24 6.6567 21.9962 6.55464 19.8092H1.89381C0.725773 19.8092 0 19.1565 0 18.1947ZM2.71031 17.7137H19.267V17.5763C18.9835 17.2443 18.3485 16.6374 17.7814 15.9847C17.0103 15.0802 16.6361 13.4427 16.5227 11.2672C16.3979 6.61832 14.9804 5.07252 13.1546 4.5687C12.8711 4.5 12.7124 4.3626 12.6897 4.05344C12.6443 2.8855 11.9979 2.10687 11 2.10687C10.0021 2.10687 9.36701 2.8855 9.31031 4.05344C9.28763 4.3626 9.12887 4.5 8.8567 4.5687C7.01959 5.07252 5.6134 6.61832 5.47732 11.2672C5.36392 13.4427 5.00103 15.0802 4.21856 15.9847C3.66289 16.6374 3.00515 17.2443 2.71031 17.5763V17.7137ZM8.69794 19.8092C8.78866 21.2405 9.71856 22.1679 11 22.1679C12.2928 22.1679 13.2227 21.2405 13.3021 19.8092H8.69794Z" fill="black"/>
</svg>
