<svg width="24" height="26" viewBox="0 0 24 26" fill="none" xmlns="http://www.w3.org/2000/svg">
  <path d="M0 20.1947C0 18.9809 1.11134 17.9389 2.13196 16.9313C2.93711 16.1412 3.11856 14.5611 3.26598 12.9924C3.4134 8.65267 4.66082 5.75573 7.62062 4.66794C8.05155 3.15649 9.31031 2 11 2C12.6897 2 13.9485 3.15649 14.3794 4.66794C17.3392 5.75573 18.5866 8.65267 18.734 12.9924C18.8814 14.5611 19.0742 16.1412 19.868 16.9313C20.9 17.9389 22 18.9809 22 20.1947C22 21.1565 21.2856 21.8092 20.1062 21.8092H15.4454C15.3433 24.0076 13.5742 26 11 26C8.42577 26 6.6567 23.9962 6.55464 21.8092H1.89381C0.725773 21.8092 0 21.1565 0 20.1947ZM2.71031 19.7137H19.267V19.5763C18.9835 19.2443 18.3485 18.6374 17.7814 17.9847C17.0103 17.0802 16.6361 15.4427 16.5227 13.2672C16.3979 8.61832 14.9804 7.07252 13.1546 6.5687C12.8711 6.5 12.7124 6.3626 12.6897 6.05344C12.6443 4.8855 11.9979 4.10687 11 4.10687C10.0021 4.10687 9.36701 4.8855 9.31031 6.05344C9.28763 6.3626 9.12887 6.5 8.8567 6.5687C7.01959 7.07252 5.6134 8.61832 5.47732 13.2672C5.36392 15.4427 5.00103 17.0802 4.21856 17.9847C3.66289 18.6374 3.00515 19.2443 2.71031 19.5763V19.7137ZM8.69794 21.8092C8.78866 23.2405 9.71856 24.1679 11 24.1679C12.2928 24.1679 13.2227 23.2405 13.3021 21.8092H8.69794Z" fill="black"/>
  <circle cx="21" cy="3" r="3" fill="#FF3B30"/>
</svg>
