<svg width="12" height="12" viewBox="0 0 12 12" fill="none" xmlns="http://www.w3.org/2000/svg">
<path d="M6 12C2.70949 12 0 9.29051 0 6C0 2.71524 2.70949 0 5.99425 0C9.28476 0 12 2.71524 12 6C12 9.29051 9.29051 12 6 12ZM5.99425 1.31735C4.907 1.31735 3.91179 1.68552 3.12368 2.30105L9.69895 8.87632C10.3145 8.08821 10.6826 7.08725 10.6826 6C10.6826 3.40556 8.59444 1.31735 5.99425 1.31735ZM6 10.6826C7.0815 10.6826 8.0767 10.3202 8.87057 9.71045L2.2953 3.13519C1.68552 3.9233 1.32311 4.9185 1.32311 6C1.32311 8.59444 3.40556 10.6826 6 10.6826Z" fill="#F46B02"/>
</svg>
