<svg width="16" height="16" viewBox="0 0 16 16" fill="none" xmlns="http://www.w3.org/2000/svg">
<g clip-path="url(#clip0_181_20951)">
<path d="M8.00084 15.4284C12.1035 15.4284 15.4294 12.1025 15.4294 7.99986C15.4294 3.89717 12.1035 0.571289 8.00084 0.571289C3.89815 0.571289 0.572266 3.89717 0.572266 7.99986C0.572266 12.1025 3.89815 15.4284 8.00084 15.4284Z" fill="#00D1F2" stroke="#00D1F2" stroke-linecap="round" stroke-linejoin="round"/>
<path d="M4.57227 9.14272L6.91512 11.017C6.97804 11.0688 7.05172 11.106 7.1308 11.1257C7.20987 11.1455 7.29236 11.1474 7.37227 11.1313C7.45293 11.1162 7.52939 11.0838 7.59644 11.0365C7.6635 10.9892 7.71957 10.9279 7.76084 10.857L11.4294 4.57129" fill="#00D1F2"/>
<path d="M4.57227 9.14272L6.91512 11.017C6.97804 11.0688 7.05172 11.106 7.1308 11.1257C7.20987 11.1455 7.29236 11.1474 7.37227 11.1313C7.45293 11.1162 7.52939 11.0838 7.59644 11.0365C7.6635 10.9892 7.71957 10.9279 7.76084 10.857L11.4294 4.57129" stroke="white" stroke-linecap="round" stroke-linejoin="round"/>
</g>
<defs>
<clipPath id="clip0_181_20951">
<rect width="16" height="16" fill="white"/>
</clipPath>
</defs>
</svg>
