<svg width="16" height="16" viewBox="0 0 16 16" fill="none" xmlns="http://www.w3.org/2000/svg">
<path d="M6.35312 11.9501L3.15636 7.79033L3.15637 7.79033L3.15518 7.78882C3.01534 7.61041 2.86463 7.47081 2.68682 7.37709C2.50752 7.28259 2.31311 7.24128 2.09606 7.24128C1.347 7.24128 0.8 7.79494 0.8 8.54276C0.8 8.87392 0.913021 9.18034 1.16247 9.48973C1.16267 9.48998 1.16287 9.49023 1.16307 9.49048L5.18823 14.581C5.18828 14.581 5.18834 14.5811 5.18839 14.5812C5.34929 14.7855 5.52588 14.9424 5.73014 15.0472C5.93538 15.1526 6.15797 15.2 6.40255 15.2C6.9252 15.2 7.34765 14.9852 7.63526 14.5422L7.63528 14.5422L7.63677 14.5398L14.912 2.98343C15.1168 2.66764 15.2 2.37524 15.2 2.08552C15.2 1.34562 14.6607 0.8 13.9195 0.8C13.6762 0.8 13.4624 0.844953 13.2691 0.96302C13.0785 1.07949 12.9262 1.256 12.7851 1.4861L6.35312 11.9501Z" fill="#03B89E" stroke="#03B89E" stroke-width="0.4"/>
</svg>
