<svg width="14" height="13" viewBox="0 0 14 13" fill="none" xmlns="http://www.w3.org/2000/svg">
<path fill-rule="evenodd" clip-rule="evenodd" d="M13.4785 12.5278C13.2168 12.7888 12.7932 12.7888 12.5315 12.5278L1.39593 1.42172C1.13324 1.15973 1.13324 0.73422 1.39593 0.47223C1.65763 0.211222 2.0812 0.211221 2.3429 0.472229L13.4785 11.5783C13.7412 11.8403 13.7412 12.2658 13.4785 12.5278Z" fill="black" stroke="black" stroke-width="0.4"/>
<path fill-rule="evenodd" clip-rule="evenodd" d="M1.39603 12.5278C1.65773 12.7888 2.0813 12.7888 2.343 12.5278L13.4786 1.42172C13.7413 1.15973 13.7413 0.73422 13.4786 0.47223C13.2169 0.211222 12.7933 0.211221 12.5316 0.472229L1.39603 11.5783C1.13335 11.8403 1.13335 12.2658 1.39603 12.5278Z" fill="black" stroke="black" stroke-width="0.4"/>
</svg>
