<svg width="20" height="20" viewBox="0 0 20 20" fill="none" xmlns="http://www.w3.org/2000/svg">
<path fill-rule="evenodd" clip-rule="evenodd" d="M19.2714 19.2716C18.8691 19.6739 18.2168 19.6739 17.8145 19.2716L0.728431 2.18532C0.326129 1.78302 0.326129 1.13075 0.728431 0.728448V0.728448C1.13074 0.326138 1.78301 0.326138 2.18532 0.728447L19.2714 17.8147C19.6737 18.217 19.6737 18.8692 19.2714 19.2716V19.2716Z" fill="#10DCB3"/>
<path fill-rule="evenodd" clip-rule="evenodd" d="M0.728588 19.2716C1.1309 19.6739 1.78317 19.6739 2.18547 19.2716L19.2716 2.18532C19.6739 1.78302 19.6739 1.13075 19.2716 0.728448V0.728448C18.8693 0.326138 18.217 0.326138 17.8147 0.728448L0.728588 17.8147C0.326286 18.217 0.326285 18.8692 0.728588 19.2716V19.2716Z" fill="#10DCB3"/>
</svg>
