<svg width="50" height="50" viewBox="0 0 50 50" fill="none" xmlns="http://www.w3.org/2000/svg">
<circle cx="25" cy="25" r="25" fill="#03B89E"/>
<path fill-rule="evenodd" clip-rule="evenodd" d="M35.1986 35.1987C34.756 35.6412 34.0385 35.6412 33.596 35.1987L14.8013 16.4039C14.3587 15.9613 14.3587 15.2438 14.8013 14.8013C15.2438 14.3588 15.9613 14.3588 16.4038 14.8013L35.1986 33.5961C35.6411 34.0387 35.6411 34.7562 35.1986 35.1987Z" fill="white" stroke="white" stroke-width="0.4"/>
<path fill-rule="evenodd" clip-rule="evenodd" d="M14.8014 35.1987C15.244 35.6412 15.9615 35.6412 16.404 35.1987L35.1987 16.4039C35.6413 15.9613 35.6413 15.2438 35.1987 14.8013C34.7562 14.3588 34.0387 14.3588 33.5962 14.8013L14.8014 33.5961C14.3589 34.0387 14.3589 34.7562 14.8014 35.1987Z" fill="white" stroke="white" stroke-width="0.4"/>
</svg>
