<svg width="19" height="18" viewBox="0 0 19 18" fill="none" xmlns="http://www.w3.org/2000/svg">
<path d="M16.2564 12.7321L15.8829 12.3997L16.2564 12.7321ZM15.3686 16.9629L15.5556 16.4992L15.3686 16.9629ZM16.0429 16.3875L16.5303 16.2759V16.2759L16.0429 16.3875ZM15.54 13.4384L15.8677 13.8161L15.54 13.4384ZM11.354 15.4283L11.4478 15.9194L11.354 15.4283ZM17.5 8.30125C17.5 9.83252 16.9039 11.2528 15.8829 12.3997L16.6299 13.0646C17.7965 11.754 18.5 10.1025 18.5 8.30125H17.5ZM9.5 1.5C13.9923 1.5 17.5 4.61364 17.5 8.30125H18.5C18.5 3.92412 14.3965 0.5 9.5 0.5V1.5ZM1.5 8.30125C1.5 4.61364 5.0077 1.5 9.5 1.5V0.5C4.60346 0.5 0.5 3.92412 0.5 8.30125H1.5ZM9.5 15.1025C5.0077 15.1025 1.5 11.9889 1.5 8.30125H0.5C0.5 12.6784 4.60346 16.1025 9.5 16.1025V15.1025ZM11.2601 14.9372C10.6943 15.0453 10.1053 15.1025 9.5 15.1025V16.1025C10.1683 16.1025 10.8201 16.0394 11.4478 15.9194L11.2601 14.9372ZM11.758 16.0467L15.1817 17.4267L15.5556 16.4992L12.1318 15.1192L11.758 16.0467ZM15.1817 17.4267C15.9311 17.7287 16.7107 17.0634 16.5303 16.2759L15.5556 16.4992L15.5556 16.4992L15.1817 17.4267ZM16.5303 16.2759L15.9475 13.732L14.9727 13.9554L15.5556 16.4992L16.5303 16.2759ZM15.8829 12.3997C15.6763 12.6318 15.4523 12.8526 15.2124 13.0607L15.8677 13.8161C16.1394 13.5805 16.3941 13.3295 16.6299 13.0646L15.8829 12.3997ZM15.9475 13.732C15.9446 13.7194 15.9431 13.7085 15.9425 13.7003C15.9419 13.6919 15.9426 13.6904 15.942 13.6953C15.9408 13.7035 15.9296 13.7625 15.8677 13.8161L15.2124 13.0607C15.0415 13.209 14.9742 13.4002 14.9522 13.5523C14.9306 13.7021 14.9473 13.8442 14.9727 13.9554L15.9475 13.732ZM11.4478 15.9194C11.425 15.9238 11.4288 15.9141 11.4916 15.9356C11.5216 15.9459 11.5559 15.9599 11.602 15.9799C11.6422 15.9973 11.7026 16.0244 11.758 16.0467L12.1318 15.1192C12.0932 15.1036 11.9234 15.0265 11.8156 14.9896C11.6805 14.9433 11.4835 14.8945 11.2601 14.9372L11.4478 15.9194Z" fill="#03B89E"/>
</svg>
