<svg width="16" height="16" viewBox="0 0 16 16" fill="none" xmlns="http://www.w3.org/2000/svg">
<path fill-rule="evenodd" clip-rule="evenodd" d="M14.359 11.7461C15.3884 10.5159 16 8.97821 16 7.30998C16 3.27279 12.4183 0 8 0C3.58172 0 0 3.27279 0 7.30998C0 11.3472 3.58172 14.62 8 14.62C8.59328 14.62 9.17147 14.5609 9.72793 14.449C9.92373 14.4096 10.1208 14.5225 10.3044 14.6012V14.6012L13.4699 15.9585C13.843 16.1184 14.2412 15.7905 14.1557 15.3936L13.6109 12.8644V12.8644C13.58 12.7209 13.5808 12.5493 13.6887 12.4497C13.928 12.2286 14.1519 11.9936 14.359 11.7461Z" fill="#03B89E"/>
</svg>
