<svg width="16" height="16" viewBox="0 0 16 16" fill="none" xmlns="http://www.w3.org/2000/svg">
<g clip-path="url(#clip0_426_21714)">
<path d="M7.99888 15.4294C12.1016 15.4294 15.4275 12.1035 15.4275 8.00084C15.4275 3.89815 12.1016 0.572266 7.99888 0.572266C3.8962 0.572266 0.570312 3.89815 0.570312 8.00084C0.570312 12.1035 3.8962 15.4294 7.99888 15.4294Z" fill="#00E271" stroke="#00E271" stroke-linecap="round" stroke-linejoin="round"/>
<path d="M4.57031 9.14369L6.91317 11.018C6.97609 11.0698 7.04977 11.1069 7.12884 11.1267C7.20792 11.1465 7.29041 11.1484 7.37031 11.1323C7.45098 11.1171 7.52744 11.0848 7.59449 11.0375C7.66154 10.9901 7.71761 10.9289 7.75888 10.858L11.4275 4.57227" fill="#00E271"/>
<path d="M4.57031 9.14369L6.91317 11.018C6.97609 11.0698 7.04977 11.1069 7.12884 11.1267C7.20792 11.1465 7.29041 11.1484 7.37031 11.1323C7.45098 11.1171 7.52744 11.0848 7.59449 11.0375C7.66154 10.9901 7.71761 10.9289 7.75888 10.858L11.4275 4.57227" stroke="white" stroke-linecap="round" stroke-linejoin="round"/>
</g>
<defs>
<clipPath id="clip0_426_21714">
<rect width="16" height="16" fill="white"/>
</clipPath>
</defs>
</svg>
