<svg width="16" height="16" viewBox="0 0 16 16" fill="none" xmlns="http://www.w3.org/2000/svg">
<path d="M15 9.84766L13.5711 9.84766C13.0188 9.84766 12.5711 9.39994 12.5711 8.84766L12.5711 1.00131C12.5711 0.449022 13.0188 0.00130679 13.5711 0.00130675L15 0.00130662C15.5523 0.00130657 16 0.449022 16 1.00131L16 8.84766C16 9.39994 15.5523 9.84766 15 9.84766Z" fill="#09BBA2"/>
<path d="M11.4297 0.999681L11.4297 9.49088C11.4297 9.82489 11.346 10.1536 11.1864 10.447L8.44817 15.478C8.27307 15.7998 7.93611 16 7.56983 16L7.37052 16C6.85457 16 6.42332 15.6075 6.37492 15.0938L6.28637 14.1538L6.41667 11.0417C6.44047 10.4735 5.98625 9.99988 5.41755 9.99988L1.18612 9.99988C0.5663 9.99988 0.0957655 9.44181 0.2005 8.8309L1.57206 0.830707C1.65436 0.350627 2.07059 -0.000317709 2.55768 -0.000317752L10.4297 -0.00031844C10.982 -0.000318488 11.4297 0.447395 11.4297 0.999681Z" fill="#09BBA2"/>
</svg>
