<svg width="18" height="18" viewBox="0 0 18 18" fill="none" xmlns="http://www.w3.org/2000/svg">
<path d="M17 11.0771L15.1426 11.0771C14.5903 11.0771 14.1426 10.6294 14.1426 10.0771L14.1426 1.00023C14.1426 0.44794 14.5903 0.000225365 15.1426 0.000225317L17 0.000225155C17.5523 0.000225106 18 0.447939 18 1.00022L18 10.0771C18 10.6294 17.5523 11.0771 17 11.0771Z" fill="#E7E7E7"/>
<path d="M12.8584 1L12.8584 10.741C12.8584 11.075 12.7747 11.4037 12.6151 11.6971L9.46875 17.478C9.29366 17.7998 8.95669 18 8.59041 18L8.17816 18C7.66222 18 7.23097 17.6075 7.18257 17.0938L7.07228 15.9231L7.22432 12.2918C7.24811 11.7236 6.7939 11.25 6.2252 11.25L1.18639 11.25C0.566568 11.25 0.0960334 10.6919 0.200768 10.081L1.78659 0.831025C1.8689 0.350944 2.28513 9.24345e-07 2.77221 8.81762e-07L11.8584 8.74228e-08C12.4107 3.91405e-08 12.8584 0.447714 12.8584 1Z" fill="#E7E7E7"/>
</svg>
