<svg width="50" height="50" viewBox="0 0 50 50" fill="none" xmlns="http://www.w3.org/2000/svg">
<circle cx="25" cy="25" r="25" fill="#03B89E"/>
<path fill-rule="evenodd" clip-rule="evenodd" d="M29.5837 18.4014C29.663 18.1268 29.4679 17.8344 29.1821 17.8344H24.1323C23.6359 17.8344 23.2335 17.4237 23.2335 16.9172C23.2335 16.4106 22.831 16 22.3346 16H14.7977C13.8048 16 13 16.8213 13 17.8344V19.1045V20.0999C13 20.3208 13.1791 20.4999 13.4 20.4999H28.9661C29.2063 20.4999 29.3911 20.2896 29.3825 20.0496C29.3801 19.9857 29.379 19.9214 29.379 19.8569C29.379 19.3514 29.4505 18.8629 29.5837 18.4014ZM29.8522 22.0354C29.7838 21.8864 29.6377 21.7856 29.4737 21.7856H13.4C13.1791 21.7856 13 21.9647 13 22.1856V30.7854V31.4288C13 32.8489 14.1282 34.0002 15.52 34.0002H33.1596C34.5513 34.0002 35.6796 32.8489 35.6796 31.4288V30.7854V25.3562C35.6796 25.094 35.4311 24.9031 35.1719 24.9427C34.9262 24.9802 34.6748 24.9997 34.4189 24.9997C32.3986 24.9997 30.6559 23.7867 29.8522 22.0354Z" fill="white"/>
<path d="M34.4186 16C32.8859 16 31.5681 16.9311 30.9744 18.2689C30.7595 18.7536 30.6387 19.2905 30.6387 19.8567C30.6387 20.2384 30.6939 20.6061 30.7949 20.9543C30.9458 21.4724 31.1996 21.9453 31.5333 22.3471C32.2267 23.1828 33.2619 23.7141 34.4186 23.7141C34.7202 23.7141 35.0137 23.6772 35.2948 23.609C36.9593 23.2058 38.1985 21.6792 38.1985 19.8574C38.1985 17.7271 36.5061 16.0007 34.4193 16.0007L34.4186 16ZM36.5409 20.4055H34.9563V22.0226C34.9563 22.1974 34.8758 22.3527 34.7509 22.4536C34.6595 22.5275 34.5442 22.5713 34.4186 22.5713C34.2405 22.5713 34.0835 22.4829 33.9859 22.3471C33.9204 22.2559 33.8809 22.1444 33.8809 22.0226V20.4055H32.2963C31.9994 20.4055 31.7585 20.1597 31.7585 19.8567C31.7585 19.5538 31.9994 19.308 32.2963 19.308H33.8809V17.6909C33.8809 17.3879 34.1217 17.1421 34.4186 17.1421C34.7155 17.1421 34.9563 17.3879 34.9563 17.6909V19.308H36.5409C36.8378 19.308 37.0787 19.5538 37.0787 19.8567C37.0787 20.1597 36.8378 20.4055 36.5409 20.4055Z" fill="white"/>
</svg>
