<svg width="40" height="40" viewBox="0 0 40 40" fill="none" xmlns="http://www.w3.org/2000/svg">
<circle cx="20" cy="20" r="20" fill="#F46B02"/>
<path d="M24.4395 18.7571H12.1275C11.5864 18.7571 11.1475 19.1949 11.1475 19.7345V26.4507C11.1475 26.9903 11.5864 27.4281 12.1275 27.4281H28.8488C29.3898 27.4281 29.8288 26.9903 29.8288 26.4507V21.3709C29.5443 21.4198 29.2531 21.447 28.955 21.447C27.0058 21.447 25.3079 20.3576 24.4395 18.7571Z" fill="white"/>
<path d="M24.0645 14.7822H19.0338C18.4927 14.7822 18.0538 14.3444 18.0538 13.8048C18.0538 13.2652 17.6148 12.8274 17.0738 12.8274H12.1275C11.5864 12.8274 11.1475 13.2652 11.1475 13.8048V16.422C11.1475 16.9617 11.5864 17.3994 12.1275 17.3994H23.9379C23.8637 17.0546 23.8242 16.6969 23.8242 16.3297C23.8242 15.7901 23.9086 15.2702 24.0645 14.7822Z" fill="white"/>
<path d="M28.9547 12.5706C27.4261 12.5706 26.112 13.478 25.5199 14.7819C25.3055 15.2543 25.1851 15.7776 25.1851 16.3295C25.1851 16.7014 25.2402 17.0598 25.3409 17.3992C25.4913 17.9042 25.7445 18.365 26.0773 18.7567C26.7687 19.5712 27.8011 20.0891 28.9547 20.0891C29.2555 20.0891 29.5481 20.0531 29.8285 19.9866C31.4884 19.5936 32.7243 18.1058 32.7243 16.3301C32.7243 14.2539 31.0365 12.5712 28.9554 12.5712L28.9547 12.5706ZM31.0712 16.8643H29.491V18.4404C29.491 18.6107 29.4106 18.7621 29.2861 18.8605C29.1949 18.9325 29.0799 18.9752 28.9547 18.9752C28.777 18.9752 28.6205 18.889 28.5232 18.7567C28.4579 18.6678 28.4184 18.5592 28.4184 18.4404V16.8643H26.8381C26.5421 16.8643 26.3019 16.6247 26.3019 16.3295C26.3019 16.0342 26.5421 15.7946 26.8381 15.7946H28.4184V14.2186C28.4184 13.9233 28.6586 13.6837 28.9547 13.6837C29.2507 13.6837 29.491 13.9233 29.491 14.2186V15.7946H31.0712C31.3673 15.7946 31.6075 16.0342 31.6075 16.3295C31.6075 16.6247 31.3673 16.8643 31.0712 16.8643Z" fill="white"/>
</svg>
