<svg width="21" height="21" viewBox="0 0 21 21" fill="none" xmlns="http://www.w3.org/2000/svg">
<path d="M7.21875 9.1875C7.0447 9.1875 6.87778 9.25664 6.75471 9.37971C6.63164 9.50278 6.5625 9.6697 6.5625 9.84375C6.5625 10.0178 6.63164 10.1847 6.75471 10.3078C6.87778 10.4309 7.0447 10.5 7.21875 10.5H13.7812C13.9553 10.5 14.1222 10.4309 14.2453 10.3078C14.3684 10.1847 14.4375 10.0178 14.4375 9.84375C14.4375 9.6697 14.3684 9.50278 14.2453 9.37971C14.1222 9.25664 13.9553 9.1875 13.7812 9.1875H7.21875ZM6.5625 12.4688C6.5625 12.2947 6.63164 12.1278 6.75471 12.0047C6.87778 11.8816 7.0447 11.8125 7.21875 11.8125H13.7812C13.9553 11.8125 14.1222 11.8816 14.2453 12.0047C14.3684 12.1278 14.4375 12.2947 14.4375 12.4688C14.4375 12.6428 14.3684 12.8097 14.2453 12.9328C14.1222 13.0559 13.9553 13.125 13.7812 13.125H7.21875C7.0447 13.125 6.87778 13.0559 6.75471 12.9328C6.63164 12.8097 6.5625 12.6428 6.5625 12.4688ZM6.5625 15.0938C6.5625 14.9197 6.63164 14.7528 6.75471 14.6297C6.87778 14.5066 7.0447 14.4375 7.21875 14.4375H9.84375C10.0178 14.4375 10.1847 14.5066 10.3078 14.6297C10.4309 14.7528 10.5 14.9197 10.5 15.0938C10.5 15.2678 10.4309 15.4347 10.3078 15.5578C10.1847 15.6809 10.0178 15.75 9.84375 15.75H7.21875C7.0447 15.75 6.87778 15.6809 6.75471 15.5578C6.63164 15.4347 6.5625 15.2678 6.5625 15.0938Z" fill="black"/>
<path d="M12.4688 0H5.25C4.55381 0 3.88613 0.276562 3.39384 0.768845C2.90156 1.26113 2.625 1.92881 2.625 2.625V18.375C2.625 19.0712 2.90156 19.7389 3.39384 20.2312C3.88613 20.7234 4.55381 21 5.25 21H15.75C16.4462 21 17.1139 20.7234 17.6062 20.2312C18.0984 19.7389 18.375 19.0712 18.375 18.375V5.90625L12.4688 0ZM12.4688 1.3125V3.9375C12.4688 4.45964 12.6762 4.9604 13.0454 5.32962C13.4146 5.69883 13.9154 5.90625 14.4375 5.90625H17.0625V18.375C17.0625 18.7231 16.9242 19.0569 16.6781 19.3031C16.4319 19.5492 16.0981 19.6875 15.75 19.6875H5.25C4.9019 19.6875 4.56806 19.5492 4.32192 19.3031C4.07578 19.0569 3.9375 18.7231 3.9375 18.375V2.625C3.9375 2.2769 4.07578 1.94306 4.32192 1.69692C4.56806 1.45078 4.9019 1.3125 5.25 1.3125H12.4688Z" fill="black"/>
</svg>
