<svg width="12" height="15" viewBox="0 0 12 15" fill="none" xmlns="http://www.w3.org/2000/svg">
<path d="M0.821918 13.193H5.81605C5.64384 13.1595 5.48728 13.0591 5.36204 12.9169L0.360078 7.6213C0.172211 7.42052 0.0861057 7.19465 0.0861057 6.95204C0.0861057 6.43335 0.430528 6.05689 0.908024 6.05689C1.15069 6.05689 1.36204 6.15728 1.52642 6.33296L3.13112 8.02287L5.22114 10.4824L5.14286 8.71723V0.928611C5.14286 0.376464 5.49511 0 6.00391 0C6.50489 0 6.85714 0.376464 6.85714 0.928611V8.71723L6.77887 10.4741L8.86889 8.02287L10.4814 6.33296C10.638 6.16564 10.8571 6.05689 11.0998 6.05689C11.5695 6.05689 11.9217 6.43335 11.9217 6.95204C11.9217 7.19465 11.8278 7.42052 11.6399 7.6213L6.63797 12.9169C6.51272 13.0591 6.35616 13.1595 6.18395 13.193H11.1624C11.6478 13.193 12 13.5778 12 14.0965C12 14.6152 11.6478 15 11.1624 15H0.821918C0.344423 15 0 14.6152 0 14.0965C0 13.5778 0.344423 13.193 0.821918 13.193Z" fill="black"/>
</svg>
