<svg width="14" height="14" viewBox="0 0 14 14" fill="none" xmlns="http://www.w3.org/2000/svg">
<g clip-path="url(#clip0_179_20457)">
<path d="M6.54036 11.9995C6.59039 12.0759 6.65864 12.1386 6.73894 12.1819C6.81924 12.2253 6.90908 12.248 7.00036 12.248C7.09163 12.248 7.18147 12.2253 7.26177 12.1819C7.34208 12.1386 7.41032 12.0759 7.46036 11.9995L13.4604 2.49954C13.5042 2.42353 13.5273 2.33731 13.5273 2.24954C13.5273 2.16177 13.5042 2.07555 13.4604 1.99954C13.4112 1.92228 13.3431 1.8588 13.2627 1.81507C13.1822 1.77133 13.0919 1.74879 13.0004 1.74954L1.00036 1.74954C0.908773 1.74879 0.818502 1.77133 0.738032 1.81507C0.657562 1.8588 0.589538 1.92228 0.540356 1.99954C0.496471 2.07555 0.473369 2.16178 0.473369 2.24954C0.473369 2.33731 0.496471 2.42353 0.540356 2.49954L6.54036 11.9995Z" fill="#00D1F2" stroke="#00D1F2" stroke-linecap="round" stroke-linejoin="round"/>
</g>
<defs>
<clipPath id="clip0_179_20457">
<rect width="14" height="14" fill="white" transform="translate(14 14) rotate(180)"/>
</clipPath>
</defs>
</svg>
