<svg width="18" height="18" viewBox="0 0 18 18" fill="none" xmlns="http://www.w3.org/2000/svg">
<path fill-rule="evenodd" clip-rule="evenodd" d="M9 15.1875C10.641 15.1875 12.2148 14.5356 13.3752 13.3752C14.5356 12.2148 15.1875 10.641 15.1875 9C15.1875 7.35897 14.5356 5.78516 13.3752 4.62478C12.2148 3.4644 10.641 2.8125 9 2.8125C7.35897 2.8125 5.78516 3.4644 4.62478 4.62478C3.4644 5.78516 2.8125 7.35897 2.8125 9C2.8125 10.641 3.4644 12.2148 4.62478 13.3752C5.78516 14.5356 7.35897 15.1875 9 15.1875ZM9 16.875C11.0886 16.875 13.0916 16.0453 14.5685 14.5685C16.0453 13.0916 16.875 11.0886 16.875 9C16.875 6.91142 16.0453 4.90838 14.5685 3.43153C13.0916 1.95469 11.0886 1.125 9 1.125C6.91142 1.125 4.90838 1.95469 3.43153 3.43153C1.95469 4.90838 1.125 6.91142 1.125 9C1.125 11.0886 1.95469 13.0916 3.43153 14.5685C4.90838 16.0453 6.91142 16.875 9 16.875ZM10.125 11.8125C10.125 12.1109 10.0065 12.397 9.7955 12.608C9.58452 12.819 9.29837 12.9375 9 12.9375C8.70163 12.9375 8.41548 12.819 8.2045 12.608C7.99353 12.397 7.875 12.1109 7.875 11.8125C7.875 11.5141 7.99353 11.228 8.2045 11.017C8.41548 10.806 8.70163 10.6875 9 10.6875C9.29837 10.6875 9.58452 10.806 9.7955 11.017C10.0065 11.228 10.125 11.5141 10.125 11.8125ZM9.84375 5.625C9.84375 5.40122 9.75486 5.18661 9.59662 5.02838C9.43839 4.87014 9.22378 4.78125 9 4.78125C8.77622 4.78125 8.56161 4.87014 8.40338 5.02838C8.24514 5.18661 8.15625 5.40122 8.15625 5.625V8.4375C8.15625 8.66128 8.24514 8.87589 8.40338 9.03412C8.56161 9.19236 8.77622 9.28125 9 9.28125C9.22378 9.28125 9.43839 9.19236 9.59662 9.03412C9.75486 8.87589 9.84375 8.66128 9.84375 8.4375V5.625Z" fill="#FF3232"/>
</svg>
