<svg width="50" height="50" viewBox="0 0 50 50" fill="none" xmlns="http://www.w3.org/2000/svg">
<circle cx="25" cy="25" r="25" fill="#F46B02"/>
<path d="M28.2578 18.1158L15.2581 31.1152C15.0929 31.2804 15 31.5046 15 31.7384V35.1189C15 35.6056 15.3946 36.0002 15.8813 36.0002H19.2619C19.4957 36.0002 19.7199 35.9073 19.8851 35.7421L32.8848 22.7427C33.229 22.3985 33.229 21.8405 32.8848 21.4963L29.5042 18.1158C29.16 17.7716 28.602 17.7716 28.2578 18.1158Z" fill="white"/>
<path d="M31.4149 14.9583L30.3856 15.9876C30.0414 16.3317 30.0414 16.8897 30.3856 17.2339L33.7662 20.6144C34.1104 20.9586 34.6684 20.9586 35.0126 20.6144L36.0419 19.5852C37.3196 18.3075 37.3196 16.2359 36.0419 14.9583C34.7642 13.6806 32.6926 13.6806 31.4149 14.9583Z" fill="white"/>
</svg>
