<svg width="18" height="24" viewBox="0 0 18 24" fill="none" xmlns="http://www.w3.org/2000/svg">
  <path d="M18 14.8628C18 20.0908 13.6707 24.2958 8.44297 23.9837C3.06981 23.6629 -0.609259 18.4955 0.0837754 13.0941C0.503018 9.80818 2.04309 6.99042 3.72007 4.80557C4.01097 4.42409 4.43656 6.07533 4.73602 5.7372C5.03548 5.3904 7.69004 1.99648 8.65687 0.305823C8.83654 -0.00629854 9.24723 -0.101669 9.53813 0.123752C11.4803 1.58899 18 7.09446 18 14.8628Z" fill="#FF6723"/>
  <path d="M14.4426 18.4731C14.4426 21.6348 11.8243 24.1779 8.66275 23.9892C5.41319 23.7951 3.18817 20.6701 3.60731 17.4034C3.86085 15.4161 4.79226 13.712 5.80645 12.3907C5.98238 12.16 6.23977 13.1586 6.42088 12.9541C6.60199 12.7444 8.2074 10.6918 8.79212 9.66933C8.90078 9.48057 9.14915 9.42289 9.32508 9.55922C10.4997 10.4454 14.4426 13.7749 14.4426 18.4731Z" fill="#FFB02E"/>
</svg>
