<svg width="21" height="19" viewBox="0 0 21 19" fill="none" xmlns="http://www.w3.org/2000/svg">
<path d="M11.4288 0.97022C11.1826 0.724164 10.8489 0.585938 10.5008 0.585938C10.1528 0.585938 9.81902 0.724164 9.57289 0.97022L0.848704 9.6931C0.787689 9.75411 0.739288 9.82655 0.706267 9.90627C0.673246 9.98599 0.65625 10.0714 0.65625 10.1577C0.65625 10.244 0.673246 10.3295 0.706267 10.4092C0.739288 10.4889 0.787689 10.5613 0.848704 10.6223C0.97193 10.7456 1.13906 10.8148 1.31333 10.8148C1.39962 10.8148 1.48506 10.7978 1.56478 10.7648C1.6445 10.7318 1.71694 10.6834 1.77795 10.6223L2.62583 9.77316V16.7202C2.62583 17.2424 2.83325 17.7431 3.20246 18.1123C3.57167 18.4815 4.07243 18.689 4.59458 18.689H16.4071C16.9292 18.689 17.43 18.4815 17.7992 18.1123C18.1684 17.7431 18.3758 17.2424 18.3758 16.7202V9.77316L19.2237 10.6223C19.3469 10.7456 19.5141 10.8148 19.6883 10.8148C19.8626 10.8148 20.0297 10.7456 20.153 10.6223C20.2762 10.4991 20.3454 10.332 20.3454 10.1577C20.3454 9.98345 20.2762 9.81632 20.153 9.6931L17.0633 6.60478V2.28272C17.0633 2.10867 16.9942 1.94175 16.8711 1.81868C16.748 1.69561 16.5811 1.62647 16.4071 1.62647H15.0946C14.9205 1.62647 14.7536 1.69561 14.6305 1.81868C14.5075 1.94175 14.4383 2.10867 14.4383 2.28272V3.97978L11.4288 0.97022ZM17.0633 8.46066V16.7202C17.0633 16.8943 16.9942 17.0612 16.8711 17.1843C16.748 17.3073 16.5811 17.3765 16.4071 17.3765H4.59458C4.42053 17.3765 4.25361 17.3073 4.13054 17.1843C4.00747 17.0612 3.93833 16.8943 3.93833 16.7202V8.46066L10.5008 1.89816L17.0633 8.46066Z" fill="black"/>
</svg>
