<svg width="12" height="12" viewBox="0 0 12 12" fill="none" xmlns="http://www.w3.org/2000/svg">
<g clip-path="url(#clip0_12_18758)">
<path d="M7.92746 0.428711L10.0703 2.57157L7.92746 4.71442" stroke="white" stroke-linecap="round" stroke-linejoin="round"/>
<path d="M10.5 7.07129C10.5 7.96131 10.2361 8.83133 9.74161 9.57136C9.24715 10.3114 8.54434 10.8882 7.72208 11.2287C6.89981 11.5693 5.99501 11.6585 5.12209 11.4848C4.24918 11.3112 3.44736 10.8826 2.81802 10.2533C2.18868 9.62393 1.7601 8.82211 1.58647 7.9492C1.41283 7.07628 1.50195 6.17148 1.84254 5.34921C2.18314 4.52695 2.75991 3.82414 3.49993 3.32968C4.23996 2.83521 5.10998 2.57129 6 2.57129H10.0714" stroke="white" stroke-linecap="round" stroke-linejoin="round"/>
</g>
<defs>
<clipPath id="clip0_12_18758">
<rect width="12" height="12" fill="white" transform="matrix(-1 0 0 1 12 0)"/>
</clipPath>
</defs>
</svg>
