<svg width="47" height="47" viewBox="0 0 47 47" fill="none" xmlns="http://www.w3.org/2000/svg">
<circle cx="23.5" cy="23.5" r="23.5" transform="rotate(-180 23.5 23.5)" fill="#E8E8E8"/>
<path d="M17.25 23.9492C17.25 23.7051 17.3379 23.4805 17.5234 23.3047L25.2676 15.7266C25.4336 15.5605 25.6484 15.4727 25.9023 15.4727C26.4102 15.4727 26.8008 15.8535 26.8008 16.3613C26.8008 16.6055 26.6934 16.8301 26.5371 16.9961L19.4277 23.9492L26.5371 30.9023C26.6934 31.0684 26.8008 31.2832 26.8008 31.5371C26.8008 32.0449 26.4102 32.4258 25.9023 32.4258C25.6484 32.4258 25.4336 32.3379 25.2676 32.1621L17.5234 24.5938C17.3379 24.4082 17.25 24.1934 17.25 23.9492Z" fill="#707070"/>
</svg>
