<svg width="16" height="16" viewBox="0 0 16 16" fill="none" xmlns="http://www.w3.org/2000/svg">
<g id="&#236;&#162;&#139;&#236;&#149;&#132;&#236;&#154;&#148; &#236;&#149;&#132;&#236;&#157;&#180;&#236;&#189;&#152;">
<path id="Vector 8" d="M1 6.15381H2.42888C2.98116 6.15381 3.42888 6.60152 3.42888 7.15381V15.0002C3.42888 15.5524 2.98116 16.0002 2.42888 16.0002H1C0.447715 16.0002 0 15.5524 0 15.0002V7.15381C0 6.60152 0.447715 6.15381 1 6.15381Z" fill="#03B89E"/>
<path id="Vector 9" d="M4.57031 15.0003V6.50912C4.57031 6.17511 4.65397 5.84642 4.81364 5.55304L7.55183 0.52196C7.72693 0.200246 8.0639 0 8.43017 0H8.62948C9.14543 0 9.57668 0.392531 9.62508 0.906205L9.71363 1.84619L9.58333 4.95829C9.55953 5.52649 10.0138 6.00012 10.5824 6.00012H14.8139C15.4337 6.00012 15.9042 6.55819 15.7995 7.1691L14.4279 15.1693C14.3456 15.6494 13.9294 16.0003 13.4423 16.0003H5.57031C5.01803 16.0003 4.57031 15.5526 4.57031 15.0003Z" fill="#03B89E"/>
</g>
</svg>
