<svg width="18" height="18" viewBox="0 0 18 18" fill="none" xmlns="http://www.w3.org/2000/svg">
<path d="M0.999999 6.92285H2.85741C3.4097 6.92285 3.85741 7.37057 3.85741 7.92285V16.9998C3.85741 17.5521 3.4097 17.9998 2.85741 17.9998H1C0.447715 17.9998 0 17.5521 0 16.9998V7.92285C0 7.37057 0.447715 6.92285 0.999999 6.92285Z" fill="#F46B01"/>
<path d="M5.1416 17V7.259C5.1416 6.92499 5.22525 6.5963 5.38493 6.30292L8.53125 0.52196C8.70634 0.200246 9.04331 0 9.40959 0H9.82184C10.3378 0 10.769 0.392531 10.8174 0.906205L10.9277 2.07692L10.7757 5.70817C10.7519 6.27637 11.2061 6.75 11.7748 6.75H16.8136C17.4334 6.75 17.904 7.30807 17.7992 7.91898L16.2134 17.169C16.1311 17.6491 15.7149 18 15.2278 18H6.1416C5.58932 18 5.1416 17.5523 5.1416 17Z" fill="#F46B01"/>
</svg>
