<svg width="18" height="18" viewBox="0 0 18 18" fill="none" xmlns="http://www.w3.org/2000/svg">
<g id="Group 1274">
<g id="&#236;&#162;&#139;&#236;&#149;&#132;&#236;&#154;&#148; &#236;&#149;&#132;&#236;&#157;&#180;&#236;&#189;&#152;">
<path id="Vector 8" d="M2 7.1543H3.2543C3.80658 7.1543 4.2543 7.60201 4.2543 8.1543V16.0002C4.2543 16.5525 3.80659 17.0002 3.2543 17.0002H2C1.44772 17.0002 1 16.5525 1 16.0002V8.1543C1 7.60201 1.44771 7.1543 2 7.1543Z" stroke="#737373"/>
<path id="Vector 9" d="M6.15234 15.9997V7.48593C6.15234 7.16654 6.22884 6.8518 6.37542 6.56803L8.97219 1.54105C9.14385 1.20874 9.48662 1 9.86065 1H9.95415C10.4719 1 10.9041 1.39523 10.9502 1.91094L11.0338 2.84612L10.91 5.96017C10.8875 6.52758 11.3414 6.99988 11.9093 6.99988H15.8241C16.4405 6.99988 16.9102 7.5521 16.8112 8.16048L15.5094 16.1603C15.4307 16.6442 15.0127 16.9997 14.5224 16.9997H7.15234C6.60006 16.9997 6.15234 16.552 6.15234 15.9997Z" stroke="#737373"/>
</g>
</g>
</svg>
