<svg width="14" height="12" viewBox="0 0 14 12" fill="none" xmlns="http://www.w3.org/2000/svg">
<path d="M1.09766 4.61548H1.86689C2.41917 4.61548 2.86689 5.06319 2.86689 5.61548V11.0001C2.86689 11.5524 2.41917 12.0001 1.86689 12.0001H1.09766C0.545372 12.0001 0.0976562 11.5524 0.0976562 11.0001V5.61548C0.0976562 5.06319 0.545371 4.61548 1.09766 4.61548Z" fill="#D0D0D0"/>
<path d="M3.79004 11V5.0429C3.79004 4.6874 3.88479 4.33832 4.06455 4.03162L6.15742 0.460657C6.32465 0.175315 6.63061 0 6.96134 0C7.43956 0 7.84014 0.362001 7.88841 0.837772L7.9365 1.31178C7.94142 1.36027 7.94278 1.40906 7.94059 1.45775L7.85054 3.45496C7.82486 4.02434 8.27956 4.5 8.84952 4.5H11.8193C12.4443 4.5 12.9161 5.06693 12.8027 5.68155L11.7873 11.1815C11.6997 11.6558 11.2862 12 10.8039 12H4.79004C4.23775 12 3.79004 11.5523 3.79004 11Z" fill="#D0D0D0"/>
</svg>
