<svg width="24" height="24" viewBox="0 0 24 24" fill="none" xmlns="http://www.w3.org/2000/svg">
<path d="M19.6357 14.7089C21.1766 14.7089 22.4257 13.4598 22.4257 11.9189C22.4257 10.378 21.1766 9.12891 19.6357 9.12891C18.0948 9.12891 16.8457 10.378 16.8457 11.9189C16.8457 13.4598 18.0948 14.7089 19.6357 14.7089Z" fill="#FF9F00"/>
<path d="M8.24944 8.24893L8.75942 7.49891C9.69692 7.49891 10.6269 7.28141 11.4669 6.87641L16.1619 4.56641V19.2814L11.4669 16.9714C10.6269 16.5589 9.69692 16.3414 8.75942 16.3414L8.24944 14.9989V8.24893ZM4.66141 21.7551H6.59193C7.09443 21.7551 7.49943 21.3501 7.49943 20.8476V14.9164H3.75391V20.8476C3.75391 21.3501 4.15891 21.7551 4.66141 21.7551Z" fill="#FFCC51"/>
<path d="M18.0525 2.25C16.785 2.25 15.75 3.2775 15.75 4.5525V19.29C15.75 20.5575 16.7775 21.5925 18.0525 21.5925C19.32 21.5925 20.355 20.565 20.355 19.29V4.5525C20.3475 3.2775 19.32 2.25 18.0525 2.25Z" fill="#FFB02E"/>
<path d="M2.79496 7.5H9V16.335H2.79496C2.07811 16.335 1.5 15.7725 1.5 15.0825V8.76C1.5 8.0625 2.07811 7.5 2.79496 7.5Z" fill="#FFB02E"/>
</svg>
