<svg width="32" height="32" viewBox="0 0 32 32" fill="none" xmlns="http://www.w3.org/2000/svg">
  <path fill-rule="evenodd" clip-rule="evenodd" d="M17.44 3.385C17.77 3.765 18.33 3.835 18.74 3.545C19.54 2.975 20.58 3.835 20.17 4.715L17.75 7.485H13.88L11.44 4.685C11.03 3.795 12.07 2.935 12.87 3.505L12.94 3.555C13.35 3.845 13.91 3.765 14.23 3.385L15.1 2.345C15.48 1.885 16.19 1.885 16.57 2.345L17.44 3.385ZM4 21.2249C4 14.6849 9.3 9.38489 15.84 9.38489C22.38 9.38489 27.68 14.6849 27.67 21.2249C27.67 26.0549 23.75 29.9749 18.92 29.9749H12.75C7.92 29.9749 4 26.0549 4 21.2249Z" fill="#FFCC00"/>
  <path fill-rule="evenodd" clip-rule="evenodd" d="M14.1217 7.46875H17.5617C18.1717 7.46875 18.6717 7.96875 18.6717 8.57875C18.6717 9.18875 18.1717 9.68875 17.5617 9.68875H14.1217C13.5117 9.68875 13.0117 9.18875 13.0117 8.57875C13.0117 7.96875 13.5117 7.46875 14.1217 7.46875ZM15.8418 19.3488H15.9118C17.4118 19.3888 18.6118 20.6088 18.6118 22.1088C18.6118 23.3888 17.7418 24.4588 16.5618 24.7788V25.8988C16.5618 26.2988 16.2418 26.6188 15.8418 26.6188C15.4418 26.6188 15.1218 26.2988 15.1218 25.8988V24.7788C13.9418 24.4588 13.0718 23.3888 13.0718 22.1088C13.0718 21.7088 13.3918 21.3888 13.7918 21.3888C14.1918 21.3888 14.5118 21.7088 14.5118 22.1088C14.5118 22.8488 15.1018 23.4388 15.8318 23.4388C16.5618 23.4388 17.1618 22.8388 17.1618 22.1088C17.1618 21.3788 16.5618 20.7788 15.8318 20.7788H15.7618C14.2718 20.7388 13.0718 19.5188 13.0718 18.0188C13.0718 16.7388 13.9418 15.6688 15.1218 15.3488V14.2288C15.1218 13.8288 15.4418 13.5088 15.8418 13.5088C16.2418 13.5088 16.5618 13.8288 16.5618 14.2288V15.3488C17.7418 15.6688 18.6118 16.7388 18.6118 18.0188C18.6118 18.4188 18.2918 18.7388 17.8918 18.7388C17.4918 18.7388 17.1718 18.4188 17.1718 18.0188C17.1718 17.2888 16.5718 16.6888 15.8418 16.6888C15.1118 16.6888 14.5118 17.2888 14.5118 18.0188C14.5118 18.7488 15.1118 19.3488 15.8418 19.3488Z" fill="#8C5543"/>
</svg>
