<svg width="8" height="14" viewBox="0 0 8 14" fill="none" xmlns="http://www.w3.org/2000/svg">
<path fill-rule="evenodd" clip-rule="evenodd" d="M1.99838 12.6654C1.82753 12.8552 1.51505 12.8666 1.32833 12.6899V12.6899C1.16844 12.5386 1.15816 12.3009 1.30446 12.1384L5.39827 7.59088C5.70661 7.24837 5.70661 6.75298 5.39827 6.41047L1.30446 1.86291C1.15816 1.7004 1.16844 1.4628 1.32833 1.31146V1.31146C1.51505 1.13473 1.82753 1.14614 1.99838 1.33593L6.5666 6.41047C6.87494 6.75298 6.87494 7.24837 6.5666 7.59088L1.99838 12.6654Z" fill="#74D7CB"/>
<path fill-rule="evenodd" clip-rule="evenodd" d="M2.15428 12.7828C1.90688 13.0576 1.45443 13.0741 1.18406 12.8182C0.952542 12.5991 0.937649 12.255 1.14949 12.0197L5.2433 7.47217C5.48997 7.19816 5.48997 6.80184 5.2433 6.52783L1.14949 1.98028C0.93765 1.74496 0.952543 1.40091 1.18406 1.18178C1.45443 0.925873 1.90689 0.942397 2.15428 1.21721L6.7225 6.29175C7.0925 6.70277 7.0925 7.29723 6.7225 7.70825L2.15428 12.7828ZM1.47354 12.5602C1.57661 12.6578 1.7491 12.6515 1.84341 12.5467L6.41163 7.47217C6.6583 7.19816 6.6583 6.80184 6.41163 6.52783L1.84341 1.4533C1.7491 1.34853 1.57661 1.34223 1.47354 1.43979C1.38528 1.52333 1.3796 1.65449 1.46036 1.7442L5.55417 6.29175C5.92418 6.70277 5.92418 7.29723 5.55417 7.70825L1.46036 12.2558C1.3796 12.3455 1.38528 12.4767 1.47354 12.5602Z" fill="#74D7CB" stroke="#74D7CB" stroke-width="0.4"/>
</svg>
