<svg width="41" height="40" viewBox="0 0 41 40" fill="none" xmlns="http://www.w3.org/2000/svg">
<g id="Group 1248">
<path id="Ellipse 59" d="M28.2462 14.6923C28.2462 18.9407 24.6675 22.3846 20.253 22.3846C15.8385 22.3846 12.2598 18.9407 12.2598 14.6923C12.2598 10.444 15.8385 7 20.253 7C24.6675 7 28.2462 10.444 28.2462 14.6923Z" fill="white"/>
<path id="Vector 824" d="M13.8547 25.459H26.6438C30.8027 25.459 33.9158 27.1219 34.724 30.5349C35.0093 31.74 34.6676 32.9834 34.1597 34.1128C34.0674 34.3182 34.0011 34.5508 33.8287 34.6956C32.5717 35.7517 25.5086 38.0694 24.7046 38.0694L17.4146 38.8794C16.5938 38.8794 8.19794 35.0631 7.02131 33.8437C6.89933 33.7173 6.81121 33.5466 6.68212 33.4274C5.97215 32.7721 5.52524 31.8404 5.69998 30.8901C6.37168 27.2372 9.55408 25.459 13.8547 25.459Z" fill="white"/>
<path id="Ellipse 147" d="M39.499 20C39.499 30.4818 30.8924 39 20.2495 39C9.60658 39 1 30.4818 1 20C1 9.51824 9.60658 1 20.2495 1C30.8924 1 39.499 9.51824 39.499 20Z" stroke="white" stroke-width="2"/>
</g>
</svg>
