<svg width="14" height="14" viewBox="0 0 14 14" fill="none" xmlns="http://www.w3.org/2000/svg">
<g clip-path="url(#clip0_1_14673)">
<path d="M7 1C5.91468 1.00034 4.84978 1.29505 3.91872 1.85275C2.98765 2.41045 2.22529 3.21025 1.71283 4.16696C1.20038 5.12368 0.957013 6.20147 1.00867 7.28556C1.06032 8.36965 1.40506 9.41942 2.00615 10.3231L1 13L4.36923 12.3908C5.18053 12.7872 6.07085 12.9955 6.97383 12.9999C7.8768 13.0044 8.76914 12.805 9.58433 12.4166C10.3995 12.0282 11.1165 11.4608 11.6819 10.7567C12.2473 10.0526 12.6464 9.23002 12.8496 8.35019C13.0528 7.47037 13.0548 6.55602 12.8555 5.67532C12.6561 4.79461 12.2605 3.97026 11.6982 3.26372C11.1359 2.55718 10.4214 1.98667 9.60793 1.59471C8.79445 1.20276 7.90299 0.999468 7 1V1Z" stroke="#00D1F2" stroke-linecap="round" stroke-linejoin="round"/>
</g>
<defs>
<clipPath id="clip0_1_14673">
<rect width="14" height="14" fill="white"/>
</clipPath>
</defs>
</svg>
