<svg width="20" height="20" viewBox="0 0 20 20" fill="none" xmlns="http://www.w3.org/2000/svg">
<g clip-path="url(#clip0_102_19269)">
<path d="M5.21094 11.7384L8.56009 17.7954C8.68988 18.0348 8.87227 18.2321 9.08948 18.3681C9.30669 18.504 9.55132 18.574 9.79953 18.5712V18.5712C9.99502 18.5792 10.1899 18.5427 10.3728 18.464C10.5556 18.3853 10.7226 18.266 10.864 18.113C11.0054 17.96 11.1182 17.7765 11.1958 17.5733C11.2734 17.3701 11.3142 17.1514 11.3159 16.9301V12.5887H17.1044C17.3183 12.5809 17.5283 12.5219 17.7206 12.4157C17.9129 12.3094 18.0831 12.1583 18.2201 11.9723C18.3571 11.7863 18.4578 11.5696 18.5154 11.3364C18.5731 11.1032 18.5865 10.8589 18.5548 10.6194L17.4999 2.92132C17.4549 2.50991 17.2787 2.13126 17.0043 1.85654C16.73 1.58182 16.3763 1.42993 16.01 1.42943H7.36019C6.94843 1.42761 6.54201 1.5349 6.17349 1.74273L5.22412 2.27981" stroke="#C5C5C5" stroke-linecap="round" stroke-linejoin="round"/>
<path d="M5.21094 11.7422V2.3284" stroke="#C5C5C5" stroke-linecap="round" stroke-linejoin="round"/>
<path d="M2.08897 11.7422H5.21396V2.3284H2.08897C1.91412 2.3284 1.74643 2.40698 1.62279 2.54688C1.49915 2.68677 1.42969 2.8765 1.42969 3.07434V10.9962C1.42969 11.1941 1.49915 11.3838 1.62279 11.5237C1.74643 11.6636 1.91412 11.7422 2.08897 11.7422V11.7422Z" stroke="#C5C5C5" stroke-linecap="round" stroke-linejoin="round"/>
</g>
<defs>
<clipPath id="clip0_102_19269">
<rect width="20" height="20" fill="white" transform="matrix(1 0 0 -1 0 20)"/>
</clipPath>
</defs>
</svg>
