<svg width="14" height="14" viewBox="0 0 14 14" fill="none" xmlns="http://www.w3.org/2000/svg">
<g clip-path="url(#clip0_1_14699)">
<path d="M3.64844 5.78374L5.99284 1.5438C6.0837 1.37622 6.21137 1.23811 6.36342 1.14295C6.51546 1.04778 6.6867 0.998792 6.86046 1.00075V1.00075C6.9973 0.995166 7.13374 1.02067 7.26173 1.07576C7.38971 1.13086 7.50663 1.21442 7.60558 1.32151C7.70454 1.4286 7.78351 1.55705 7.83784 1.69927C7.89217 1.84148 7.92075 1.99458 7.9219 2.14951V5.18848H11.9738C12.1236 5.19397 12.2706 5.23526 12.4052 5.30963C12.5398 5.384 12.659 5.48976 12.7549 5.61997C12.8508 5.75018 12.9212 5.90188 12.9616 6.0651C13.002 6.22832 13.0114 6.39936 12.9891 6.56698L12.2507 11.9557C12.2192 12.2436 12.0959 12.5087 11.9038 12.701C11.7117 12.8933 11.4642 12.9996 11.2078 13H5.15292C4.86468 13.0013 4.58019 12.9262 4.32222 12.7807L3.65767 12.4047" stroke="#00E8BB" stroke-linecap="round" stroke-linejoin="round"/>
<path d="M3.64844 5.78125V12.3709" stroke="#00E8BB" stroke-linecap="round" stroke-linejoin="round"/>
<path d="M1.4615 5.78125H3.64899V12.3709H1.4615C1.3391 12.3709 1.22172 12.3159 1.13517 12.218C1.04862 12.12 1 11.9872 1 11.8487V6.30341C1 6.16492 1.04862 6.03211 1.13517 5.93419C1.22172 5.83626 1.3391 5.78125 1.4615 5.78125Z" fill="#00E8BB" stroke="#00E8BB" stroke-linecap="round" stroke-linejoin="round"/>
</g>
<defs>
<clipPath id="clip0_1_14699">
<rect width="14" height="14" fill="white"/>
</clipPath>
</defs>
</svg>
