<svg width="28" height="30" viewBox="0 0 28 30" fill="none" xmlns="http://www.w3.org/2000/svg">
<path fill-rule="evenodd" clip-rule="evenodd" d="M22.2349 2.00315C22.2349 0.439245 20.5207 -0.519571 19.1881 0.298977L9.25743 6.39896C9.24553 6.40627 9.23828 6.41923 9.23828 6.43319C9.23828 6.45538 9.2203 6.47336 9.19811 6.47336H2C0.895431 6.47336 0 7.36879 0 8.47336V20.5849C0 21.6894 0.895429 22.5849 2 22.5849H8.8625C9.28956 22.5849 9.70541 22.7216 10.0492 22.975L19.0483 29.6082C20.3687 30.5816 22.2349 29.6388 22.2349 27.9983V2.00315Z" fill="#03B89E"/>
<path fill-rule="evenodd" clip-rule="evenodd" d="M23.8828 18.9644C23.8828 19.1993 24.0848 19.385 24.3161 19.3442C26.4162 18.9737 28 17.3187 28 15.3331C28 13.3476 26.4162 11.6926 24.3161 11.3221C24.0848 11.2812 23.8828 11.467 23.8828 11.7019V18.9644Z" fill="#03B89E"/>
</svg>
