<svg width="24" height="24" viewBox="0 0 24 24" fill="none" xmlns="http://www.w3.org/2000/svg">
<path d="M12 0.919434C13.7504 0.919434 15.4292 1.6878 16.6669 3.0555C17.9046 4.42321 18.6 6.27821 18.6 8.21243C18.6 16.3214 21.2769 17.9194 22 17.9194H2C2.73846 17.9194 5.4 16.3044 5.4 8.21243C5.4 6.27821 6.09536 4.42321 7.3331 3.0555C8.57084 1.6878 10.2496 0.919434 12 0.919434V0.919434Z" stroke="#00D1F2" stroke-linecap="round" stroke-linejoin="round"/>
<path d="M10 20.9194C10.1153 21.4921 10.3741 21.9992 10.7361 22.3611C11.098 22.7231 11.5425 22.9194 12 22.9194C12.4575 22.9194 12.902 22.7231 13.2639 22.3611C13.6259 21.9992 13.8847 21.4921 14 20.9194" stroke="#00D1F2" stroke-linecap="round" stroke-linejoin="round"/>
</svg>
