<svg width="24" height="24" viewBox="0 0 24 24" fill="none" xmlns="http://www.w3.org/2000/svg">
<path d="M12.625 7.5H18.75C19.6115 7.5 20.25 8.13844 20.25 9V9.75L10.5 17.625L1.95703 21.1729C1.66574 20.7227 1.5 20.0796 1.5 19.5V6.06025C1.5 5.1987 2.19867 4.5 3.0602 4.5H8.0665C8.67299 4.5 9.25467 4.74007 9.68473 5.16781L11.5243 7.04068C11.8168 7.33129 12.2127 7.5 12.625 7.5Z" fill="#FFB02E"/>
<path d="M20.933 9.75H8.16425C7.5956 9.75011 7.04086 9.92592 6.57594 10.2534C6.11103 10.5808 5.75865 11.0438 5.56699 11.5792C2.12374 21.453 2.40798 20.7434 2.32098 20.8544C2.28418 20.9112 2.23391 20.9581 2.17464 20.9908C2.11537 21.0236 2.04892 21.0411 1.98123 21.0419C1.93286 21.0413 1.88561 21.0273 1.84473 21.0015C2.10099 21.4837 2.491 21.8818 2.96794 22.1479C3.44488 22.414 3.9885 22.5367 4.53349 22.5015H17.9975C18.3247 22.4999 18.6428 22.3931 18.9047 22.1969C19.1666 22.0006 19.3584 21.7254 19.4517 21.4117L22.4232 11.7855C22.4973 11.5512 22.5152 11.3028 22.4754 11.0603C22.4356 10.8178 22.3392 10.5882 22.1941 10.39C22.0489 10.1917 21.8591 10.0305 21.64 9.91928C21.4209 9.80809 21.1787 9.7501 20.933 9.75Z" fill="#FCD53F"/>
</svg>
