<svg width="20" height="20" viewBox="0 0 20 20" fill="none" xmlns="http://www.w3.org/2000/svg">
<path d="M1.48906 18.4346C1.17031 18.1158 1.17031 17.6033 1.48906 17.2846L7.08906 11.6846L8.23906 12.8346L2.63906 18.4346C2.32031 18.7533 1.80781 18.7533 1.48906 18.4346Z" fill="#D3D3D3"/>
<path d="M12.5198 11.9837L15.3968 9.10668L14.3742 5.31244L10.752 4.46191L7.875 7.33893L8.74922 10.9374L12.5198 11.9837Z" fill="#00D1F2"/>
<path d="M10.7398 4.45312L15.4086 9.11562C16.0461 9.75312 17.0773 9.75312 17.7148 9.11562L18.4086 8.42188C18.6711 8.15938 18.6711 7.73438 18.4086 7.47188L12.3836 1.44688C12.1211 1.18438 11.6961 1.18438 11.4336 1.44688L10.7398 2.14063C10.1023 2.77813 10.1023 3.81562 10.7398 4.45312Z" fill="#8FEFFF"/>
<path d="M3.80234 9.10311L10.7523 16.0531C11.0773 16.3781 11.6086 16.3781 11.9336 16.0531L12.5023 15.4844C13.4773 14.5094 13.4773 12.9344 12.5023 11.9594L7.89609 7.35311C6.92109 6.37811 5.34609 6.37811 4.37109 7.35311L3.80234 7.92186C3.47734 8.24686 3.47734 8.77811 3.80234 9.10311Z" fill="#8FEFFF"/>
</svg>
