<svg width="21" height="21" viewBox="0 0 21 21" fill="none" xmlns="http://www.w3.org/2000/svg">
<g clip-path="url(#clip0_5044_21757)">
<path d="M18.375 1.3125C18.7231 1.3125 19.0569 1.45078 19.3031 1.69692C19.5492 1.94306 19.6875 2.2769 19.6875 2.625V18.375C19.6875 18.7231 19.5492 19.0569 19.3031 19.3031C19.0569 19.5492 18.7231 19.6875 18.375 19.6875H2.625C2.2769 19.6875 1.94306 19.5492 1.69692 19.3031C1.45078 19.0569 1.3125 18.7231 1.3125 18.375V2.625C1.3125 2.2769 1.45078 1.94306 1.69692 1.69692C1.94306 1.45078 2.2769 1.3125 2.625 1.3125H18.375ZM2.625 0C1.92881 0 1.26113 0.276562 0.768845 0.768845C0.276562 1.26113 0 1.92881 0 2.625L0 18.375C0 19.0712 0.276562 19.7389 0.768845 20.2312C1.26113 20.7234 1.92881 21 2.625 21H18.375C19.0712 21 19.7389 20.7234 20.2312 20.2312C20.7234 19.7389 21 19.0712 21 18.375V2.625C21 1.92881 20.7234 1.26113 20.2312 0.768845C19.7389 0.276562 19.0712 0 18.375 0L2.625 0Z" fill="black"/>
<path d="M6.89676 7.59412C6.89497 7.63651 6.90186 7.67882 6.91702 7.71844C6.93218 7.75806 6.95528 7.79417 6.9849 7.82453C7.01453 7.8549 7.05006 7.87888 7.0893 7.89501C7.12854 7.91114 7.17066 7.91907 7.21308 7.91831H8.29589C8.47701 7.91831 8.62139 7.77 8.64501 7.59019C8.76314 6.72919 9.35376 6.10181 10.4064 6.10181C11.3068 6.10181 12.131 6.552 12.131 7.63481C12.131 8.46825 11.6401 8.8515 10.8645 9.43425C9.98114 10.0761 9.28158 10.8255 9.33145 12.0422L9.33539 12.327C9.33677 12.4131 9.37194 12.4952 9.43333 12.5556C9.49472 12.616 9.57739 12.6499 9.66351 12.6499H10.728C10.815 12.6499 10.8984 12.6153 10.96 12.5538C11.0215 12.4922 11.0561 12.4088 11.0561 12.3217V12.1839C11.0561 11.2416 11.4144 10.9672 12.3817 10.2336C13.181 9.62587 14.0145 8.95125 14.0145 7.53506C14.0145 5.55188 12.3397 4.59375 10.5061 4.59375C8.8432 4.59375 7.02145 5.36812 6.89676 7.59412ZM8.94033 15.1581C8.94033 15.8576 9.49814 16.3748 10.266 16.3748C11.0653 16.3748 11.6152 15.8576 11.6152 15.1581C11.6152 14.4336 11.064 13.9243 10.2646 13.9243C9.49814 13.9243 8.94033 14.4336 8.94033 15.1581Z" fill="black"/>
</g>
<defs>
<clipPath id="clip0_5044_21757">
<rect width="21" height="21" fill="white"/>
</clipPath>
</defs>
</svg>
