<svg width="30" height="30" viewBox="0 0 30 30" fill="none" xmlns="http://www.w3.org/2000/svg">
<g id="Group 1250">
<path id="Union" fill-rule="evenodd" clip-rule="evenodd" d="M26.9231 21.8074C28.8533 19.5235 30 16.6686 30 13.5714C30 6.07614 23.2843 0 15 0C6.71573 0 0 6.07614 0 13.5714C0 21.0667 6.71573 27.1429 15 27.1429C16.1583 27.1429 17.2859 27.0241 18.3688 26.7992C18.5569 26.7602 18.7456 26.8658 18.9224 26.9409L26.0329 29.9598C26.4063 30.1183 26.8031 29.7896 26.7169 29.3932L25.4449 23.5458C25.4223 23.4416 25.4332 23.3228 25.5128 23.252C26.0195 22.8015 26.4909 22.3188 26.9231 21.8074Z" fill="#03B89E"/>
<path id="?" d="M13.1924 16.2262C13.2135 13.4656 13.9112 12.5973 15.1797 11.7736C16.0888 11.1502 16.7865 10.46 16.7865 9.43589C16.7865 8.32272 15.9619 7.58803 14.9471 7.58803C14.3843 7.58803 13.8485 7.8095 13.4821 8.24032C12.9542 8.86099 12.3552 9.59174 11.5404 9.59174C10.6947 9.59174 9.98314 8.88188 10.2273 8.07226C10.8616 5.96918 12.7435 4.96094 14.9683 4.96094C17.907 4.96094 20 6.58617 20 9.32457C20 11.1502 19.1121 12.3301 17.7167 13.1984C16.5328 13.9554 16.0042 14.6678 15.9831 16.2262C15.9831 16.3615 15.8734 16.4711 15.7382 16.4711H13.4373C13.302 16.4711 13.1924 16.3615 13.1924 16.2262ZM14.6512 21.5027C13.6575 21.5027 12.8541 20.6567 12.8753 19.6326C12.8541 18.6084 13.6575 17.7847 14.6512 17.7847C15.5814 17.7847 16.4059 18.6084 16.4059 19.6326C16.4059 20.6567 15.5814 21.5027 14.6512 21.5027Z" fill="white"/>
</g>
</svg>
