<svg width="40" height="40" viewBox="0 0 40 40" fill="none" xmlns="http://www.w3.org/2000/svg">
<circle cx="20" cy="20" r="20" fill="#F46B02"/>
<path fill-rule="evenodd" clip-rule="evenodd" d="M26.7394 26.0698C28.4533 24.4368 29.5092 22.2053 29.5092 19.7449C29.5092 14.7397 25.1395 10.6821 19.7492 10.6821C14.3589 10.6821 9.98926 14.7397 9.98926 19.7449C9.98926 24.7502 14.3589 28.8078 19.7492 28.8078C21.1726 28.8078 22.5248 28.5248 23.7442 28.0162L27.1643 29.7262C27.5159 29.902 27.9044 29.565 27.7801 29.1921L26.7394 26.0698Z" fill="white"/>
<path d="M18.1886 22.2511C18.2031 20.4392 18.6815 19.8693 19.5513 19.3286C20.1747 18.9195 20.6531 18.4665 20.6531 17.7943C20.6531 17.0637 20.0877 16.5815 19.3918 16.5815C19.0063 16.5815 18.6394 16.7265 18.3881 17.0086C18.0295 17.4112 17.6304 17.8966 17.0912 17.8966H17.0208C16.4603 17.8966 15.9881 17.4249 16.1581 16.8907C16.5957 15.5162 17.8839 14.8572 19.4063 14.8572C21.4214 14.8572 22.8567 15.9239 22.8567 17.7212C22.8567 18.9195 22.2478 19.6939 21.291 20.2638C20.4791 20.7607 20.1167 21.2283 20.1022 22.2511V22.2511C20.1022 22.3399 20.0302 22.4119 19.9415 22.4119H18.3493C18.2605 22.4119 18.1886 22.3399 18.1886 22.2511V22.2511ZM19.1889 25.7143C18.5075 25.7143 17.9566 25.159 17.9711 24.4869C17.9566 23.8147 18.5075 23.274 19.1889 23.274C19.8268 23.274 20.3921 23.8147 20.3921 24.4869C20.3921 25.159 19.8268 25.7143 19.1889 25.7143Z" fill="#F46B02"/>
</svg>
