<svg width="50" height="50" viewBox="0 0 50 50" fill="none" xmlns="http://www.w3.org/2000/svg">
<circle cx="25" cy="25" r="25" fill="#03B89E"/>
<path fill-rule="evenodd" clip-rule="evenodd" d="M34.5384 30.5178C36.0825 28.6831 36.9999 26.3898 36.9999 23.9019C36.9999 17.8809 31.6273 13 24.9999 13C18.3726 13 13 17.8809 13 23.9019C13 29.9228 18.3726 34.8037 24.9999 34.8037C25.9275 34.8037 26.8304 34.7081 27.6975 34.5272C27.8472 34.4959 27.9975 34.5797 28.1382 34.6397L33.8278 37.0653C34.1264 37.1926 34.4443 36.9299 34.3756 36.6126L33.3573 31.912C33.3393 31.8287 33.3479 31.7338 33.4115 31.677C33.8163 31.3155 34.193 30.9281 34.5384 30.5178Z" fill="white"/>
<path d="M23.5519 26.0357C23.5689 23.8181 24.127 23.1206 25.1418 22.4589C25.8691 21.9581 26.4272 21.4037 26.4272 20.581C26.4272 19.6868 25.7676 19.0967 24.9557 19.0967C24.5041 19.0967 24.0743 19.2756 23.7811 19.6237C23.3612 20.1223 22.8821 20.7062 22.2302 20.7062C21.5538 20.7062 20.9847 20.1386 21.1785 19.4905C21.6844 17.7978 23.1911 16.9863 24.9727 16.9863C27.3236 16.9863 28.998 18.2919 28.998 20.4916C28.998 21.9581 28.2877 22.906 27.1714 23.6035C26.2242 24.2115 25.8014 24.7838 25.7845 26.0357C25.7845 26.1444 25.6964 26.2324 25.5878 26.2324H23.7487C23.64 26.2324 23.5519 26.1444 23.5519 26.0357ZM24.719 30.2742C23.924 30.2742 23.2813 29.5946 23.2982 28.772C23.2813 27.9493 23.924 27.2876 24.719 27.2876C25.4631 27.2876 26.1228 27.9493 26.1228 28.772C26.1228 29.5946 25.4631 30.2742 24.719 30.2742Z" fill="#03B89E"/>
</svg>
