<svg width="12" height="12" viewBox="0 0 12 12" fill="none" xmlns="http://www.w3.org/2000/svg">
<path d="M6 12C2.7183 12 0 9.28751 0 6C0 2.7183 2.71249 0 5.99419 0C9.2817 0 12 2.7183 12 6C12 9.28751 9.2817 12 6 12ZM6 10.8209C8.67183 10.8209 10.8209 8.67183 10.8209 6C10.8209 3.32817 8.66602 1.1849 5.99419 1.1849C3.32236 1.1849 1.1849 3.32817 1.1849 6C1.1849 8.67183 3.32817 10.8209 6 10.8209ZM5.99419 6.96999C5.66893 6.96999 5.48887 6.78412 5.47725 6.45886L5.39593 3.6302C5.38432 3.29332 5.62827 3.04937 5.98838 3.04937C6.34269 3.04937 6.59826 3.29332 6.58664 3.63601L6.49952 6.45886C6.4879 6.78993 6.30784 6.96999 5.99419 6.96999ZM5.99419 8.89255C5.62246 8.89255 5.31462 8.61955 5.31462 8.25363C5.31462 7.89351 5.61665 7.62052 5.99419 7.62052C6.37173 7.62052 6.67377 7.88771 6.67377 8.25363C6.67377 8.62536 6.36592 8.89255 5.99419 8.89255Z" fill="#F46B02"/>
</svg>
