<svg width="20" height="20" viewBox="0 0 20 20" fill="none" xmlns="http://www.w3.org/2000/svg">
<g clip-path="url(#clip0_175_18964)">
<path d="M10 7.14258V11.4283" stroke="#000001" stroke-linecap="round" stroke-linejoin="round"/>
<path d="M9.99944 16.4286C10.3939 16.4286 10.7137 16.1088 10.7137 15.7143C10.7137 15.3198 10.3939 15 9.99944 15C9.60495 15 9.28516 15.3198 9.28516 15.7143C9.28516 16.1088 9.60495 16.4286 9.99944 16.4286Z" stroke="#000001" stroke-linecap="round" stroke-linejoin="round"/>
<path d="M11.2716 1.49986C11.1517 1.26585 10.9696 1.06947 10.7452 0.932345C10.5209 0.795216 10.2631 0.722656 10.0001 0.722656C9.73722 0.722656 9.47939 0.795216 9.25506 0.932345C9.03073 1.06947 8.8486 1.26585 8.72871 1.49986L0.87157 17.2141C0.761984 17.4316 0.70981 17.6735 0.720002 17.9168C0.730194 18.1601 0.802414 18.3968 0.929803 18.6043C1.05719 18.8119 1.23552 18.9834 1.44786 19.1026C1.66019 19.2219 1.89948 19.2848 2.143 19.2856H17.8573C18.1008 19.2848 18.3401 19.2219 18.5524 19.1026C18.7648 18.9834 18.9431 18.8119 19.0705 18.6043C19.1979 18.3968 19.2701 18.1601 19.2803 17.9168C19.2905 17.6735 19.2383 17.4316 19.1287 17.2141L11.2716 1.49986Z" stroke="#000001" stroke-linecap="round" stroke-linejoin="round"/>
</g>
<defs>
<clipPath id="clip0_175_18964">
<rect width="20" height="20" fill="white"/>
</clipPath>
</defs>
</svg>
