<svg width="14" height="17" viewBox="0 0 14 17" fill="none" xmlns="http://www.w3.org/2000/svg">
<path fill-rule="evenodd" clip-rule="evenodd" d="M7.75482 5.05731C6.74533 4.90315 5.71283 5.06178 4.79619 5.51189C3.87954 5.962 3.12269 6.68199 2.62742 7.57504C2.13214 8.46809 1.9222 9.49139 2.02581 10.5073C2.12942 11.5232 2.54162 12.4831 3.20698 13.2578C3.87234 14.0324 4.75896 14.5848 5.7476 14.8406C6.73624 15.0964 7.7795 15.0433 8.73708 14.6886C9.69467 14.3338 10.5207 13.6943 11.104 12.8561C11.6873 12.0179 12 11.0212 12 10C12 9.44772 12.4477 9.00001 13 9.00001C13.5523 9.00001 14 9.44772 14 10C14 11.4297 13.5622 12.8251 12.7456 13.9985C11.9289 15.172 10.7725 16.0673 9.43192 16.564C8.09129 17.0607 6.63073 17.135 5.24663 16.7769C3.86254 16.4187 2.62128 15.6454 1.68977 14.5609C0.758267 13.4763 0.181186 12.1325 0.0361293 10.7102C-0.108927 9.28794 0.184999 7.85533 0.87838 6.60505C1.57176 5.35478 2.63135 4.34679 3.91466 3.71664C5.19797 3.0865 6.64345 2.8644 8.05674 3.08023C8.6027 3.1636 8.97769 3.67378 8.89432 4.21973C8.81095 4.76569 8.30077 5.14068 7.75482 5.05731Z" fill="#A4A4A4"/>
<path fill-rule="evenodd" clip-rule="evenodd" d="M10 4.00006C10 4.31482 9.85181 4.6112 9.6 4.80006L5.6 7.80006C5.15817 8.13143 4.53137 8.04189 4.2 7.60006C3.86863 7.15823 3.95817 6.53143 4.4 6.20006L7.33333 4.00006L4.4 1.80006C3.95817 1.46869 3.86863 0.841886 4.2 0.400059C4.53137 -0.0417692 5.15817 -0.131312 5.6 0.200059L9.6 3.20006C9.85181 3.38891 10 3.6853 10 4.00006Z" fill="#A4A4A4"/>
</svg>
