<svg width="47" height="47" viewBox="0 0 47 47" fill="none" xmlns="http://www.w3.org/2000/svg">
<circle cx="23.5" cy="23.5" r="23.5" fill="#DAD9D9"/>
<path d="M29.75 23.0508C29.75 23.2949 29.6621 23.5195 29.4766 23.6953L21.7324 31.2734C21.5664 31.4395 21.3516 31.5273 21.0977 31.5273C20.5898 31.5273 20.1992 31.1465 20.1992 30.6387C20.1992 30.3945 20.3066 30.1699 20.4629 30.0039L27.5723 23.0508L20.4629 16.0977C20.3066 15.9316 20.1992 15.7168 20.1992 15.4629C20.1992 14.9551 20.5898 14.5742 21.0977 14.5742C21.3516 14.5742 21.5664 14.6621 21.7324 14.8379L29.4766 22.4062C29.6621 22.5918 29.75 22.8066 29.75 23.0508Z" fill="black"/>
</svg>
