<svg width="30" height="30" viewBox="0 0 30 30" fill="none" xmlns="http://www.w3.org/2000/svg">
<circle cx="15" cy="15" r="14" fill="#03B89E" stroke="#03B89E" stroke-width="2"/>
<path d="M14.9889 6C15.9506 6 16.7241 6.79113 16.7023 7.75259L16.491 17.1064C16.4727 17.9176 15.8099 18.5656 14.9985 18.5656C14.1883 18.5656 13.526 17.9194 13.506 17.1094L13.2755 7.7561C13.2518 6.79331 14.0258 6 14.9889 6ZM15.0129 24C13.9032 24 13 23.1393 13 22.082C13 21.0492 13.9032 20.1885 15.0129 20.1885C16.071 20.1885 17 21.0492 17 22.082C17 23.1393 16.071 24 15.0129 24Z" fill="white"/>
</svg>
