<svg width="24" height="24" viewBox="0 0 24 24" fill="none" xmlns="http://www.w3.org/2000/svg">
<ellipse cx="12" cy="12" rx="12" ry="12" fill="#D9D9D9"/>
<path d="M11.9975 7C11.5688 7 11.2748 7.31332 11.2748 7.78329V13.5796L11.3246 14.7128L10.3227 13.5013L9.20125 12.3316C9.07165 12.1906 8.90218 12.0966 8.68287 12.0966C8.29408 12.0966 8 12.3995 8 12.8277C8 13.0261 8.07477 13.2089 8.2243 13.3708L11.4642 16.7702C11.5988 16.9164 11.8031 17 11.9975 17C12.1969 17 12.3963 16.9164 12.5308 16.7702L15.7757 13.3708C15.9252 13.2089 16 13.0261 16 12.8277C16 12.3995 15.7059 12.0966 15.3171 12.0966C15.1028 12.0966 14.9333 12.1906 14.7988 12.3316L13.6773 13.5013L12.6754 14.7128L12.7202 13.5796V7.78329C12.7202 7.31332 12.4312 7 11.9975 7Z" fill="white"/>
</svg>
