<svg width="24" height="13" viewBox="0 0 24 13" fill="none" xmlns="http://www.w3.org/2000/svg">
<path fill-rule="evenodd" clip-rule="evenodd" d="M1.61291 2.82988C1.26496 2.51665 1.24404 1.94378 1.56805 1.60146V1.60146C1.8455 1.30833 2.2811 1.28947 2.57905 1.55769L10.9162 9.06301C11.5442 9.6283 12.4524 9.6283 13.0803 9.06301L21.4175 1.55769C21.7154 1.28947 22.1511 1.30833 22.4285 1.60146V1.60146C22.7525 1.94378 22.7316 2.51665 22.3836 2.82988L13.0803 11.2049C12.4524 11.7702 11.5442 11.7702 10.9162 11.2049L1.61291 2.82988Z" fill="white"/>
<path fill-rule="evenodd" clip-rule="evenodd" d="M1.39822 3.11618C0.894396 2.66262 0.864103 1.83312 1.33327 1.33744C1.73501 0.912996 2.36576 0.885692 2.79719 1.27407L11.1344 8.77939C11.6367 9.23162 12.3633 9.23162 12.8656 8.77939L21.2028 1.27407C21.6342 0.885692 22.265 0.912995 22.6667 1.33744C23.1359 1.83312 23.1056 2.66262 22.6018 3.11618L13.2985 11.4912C12.5449 12.1696 11.4551 12.1696 10.7015 11.4912L1.39822 3.11618ZM1.80628 1.86815C1.62742 2.05712 1.63897 2.37335 1.83104 2.54626L11.1344 10.9213C11.6367 11.3735 12.3633 11.3735 12.8656 10.9213L22.169 2.54626C22.361 2.37335 22.3726 2.05712 22.1937 1.86815C22.0406 1.70634 21.8001 1.69593 21.6356 1.84399L13.2985 9.34931C12.5449 10.0277 11.4551 10.0277 10.7015 9.34931L2.36437 1.84399C2.19989 1.69593 1.95944 1.70634 1.80628 1.86815Z" fill="white" stroke="white"/>
</svg>
