<svg width="24" height="14" viewBox="0 0 24 14" fill="none" xmlns="http://www.w3.org/2000/svg">
<rect width="11.2245" height="22" transform="translate(1 12.6533) rotate(-90)" fill="white" fill-opacity="0.4"/>
<path fill-rule="evenodd" clip-rule="evenodd" d="M1.61291 3.29679C1.26496 2.97717 1.24404 2.39261 1.56805 2.0433V2.0433C1.8455 1.74419 2.2811 1.72495 2.57905 1.99864L10.9162 9.65713C11.5442 10.234 12.4524 10.234 13.0803 9.65713L21.4175 1.99864C21.7154 1.72495 22.1511 1.74419 22.4285 2.0433V2.0433C22.7525 2.39261 22.7316 2.97717 22.3836 3.29679L13.0803 11.8428C12.4524 12.4196 11.5442 12.4196 10.9162 11.8428L1.61291 3.29679Z" fill="#BCBCBC"/>
<path fill-rule="evenodd" clip-rule="evenodd" d="M1.39822 3.5882C0.894396 3.12539 0.864103 2.27895 1.33327 1.77316C1.73501 1.34005 2.36576 1.31219 2.79719 1.7085L11.1344 9.36698C11.6367 9.82844 12.3633 9.82844 12.8656 9.36698L21.2028 1.7085C21.6342 1.31219 22.265 1.34005 22.6667 1.77316C23.1359 2.27895 23.1056 3.12539 22.6018 3.5882L13.2985 12.1342C12.5449 12.8264 11.4551 12.8264 10.7015 12.1342L1.39822 3.5882ZM1.80628 2.3147C1.62742 2.50752 1.63897 2.83021 1.83104 3.00665L11.1344 11.5526C11.6367 12.0141 12.3633 12.0141 12.8656 11.5526L22.169 3.00665C22.361 2.83021 22.3726 2.50752 22.1937 2.3147C22.0406 2.14959 21.8001 2.13896 21.6356 2.29005L13.2985 9.94854C12.5449 10.6407 11.4551 10.6407 10.7015 9.94854L2.36437 2.29005C2.19989 2.13896 1.95944 2.14959 1.80628 2.3147Z" fill="#BCBCBC" stroke="#BCBCBC"/>
</svg>
