<svg width="13" height="13" viewBox="0 0 13 13" fill="none" xmlns="http://www.w3.org/2000/svg">
<g id="&#234;&#178;&#128;&#236;&#131;&#137;&#237;&#149;&#152;&#234;&#184;&#176;">
<path id="Union" fill-rule="evenodd" clip-rule="evenodd" d="M9.77692 5.4707C9.77692 7.84896 7.84896 9.77692 5.4707 9.77692C3.09244 9.77692 1.16449 7.84896 1.16449 5.4707C1.16449 3.09244 3.09244 1.16449 5.4707 1.16449C7.84896 1.16449 9.77692 3.09244 9.77692 5.4707ZM8.84712 9.52548C7.93216 10.2882 6.75502 10.7471 5.4707 10.7471C2.55665 10.7471 0.194336 8.38476 0.194336 5.4707C0.194336 2.55665 2.55665 0.194336 5.4707 0.194336C8.38476 0.194336 10.7471 2.55665 10.7471 5.4707C10.7471 6.75502 10.2882 7.93216 9.52548 8.84712L12.6658 11.9874C12.8531 12.1748 12.8531 12.4785 12.6658 12.6658C12.4785 12.8531 12.1748 12.8531 11.9874 12.6658L8.84712 9.52548Z" fill="black"/>
<path id="Union (Stroke)" fill-rule="evenodd" clip-rule="evenodd" d="M0 5.4704C0 2.44918 2.44918 0 5.4704 0C8.49161 0 10.9408 2.44918 10.9408 5.4704C10.9408 6.738 10.5094 7.90531 9.78565 8.8329L12.8027 11.8499C13.0658 12.113 13.0658 12.5396 12.8027 12.8027C12.5396 13.0658 12.113 13.0658 11.8499 12.8027L8.8329 9.78565C7.90531 10.5094 6.738 10.9408 5.4704 10.9408C2.44918 10.9408 0 8.49161 0 5.4704ZM5.4704 0.38806C2.6635 0.38806 0.38806 2.6635 0.38806 5.4704C0.38806 8.27729 2.6635 10.5527 5.4704 10.5527C6.70765 10.5527 7.84119 10.1109 8.72258 9.37613L8.8587 9.26266L12.1243 12.5283C12.2359 12.6398 12.4167 12.6398 12.5283 12.5283C12.6398 12.4167 12.6398 12.2359 12.5283 12.1243L9.26266 8.8587L9.37614 8.72258C10.1109 7.84119 10.5527 6.70765 10.5527 5.4704C10.5527 2.6635 8.27729 0.38806 5.4704 0.38806ZM0.970149 5.4704C0.970149 2.98498 2.98498 0.970149 5.4704 0.970149C7.95581 0.970149 9.97064 2.98498 9.97064 5.4704C9.97064 7.95581 7.95581 9.97064 5.4704 9.97064C2.98498 9.97064 0.970149 7.95581 0.970149 5.4704ZM5.4704 1.35821C3.1993 1.35821 1.35821 3.1993 1.35821 5.4704C1.35821 7.74149 3.1993 9.58258 5.4704 9.58258C7.74149 9.58258 9.58258 7.74149 9.58258 5.4704C9.58258 3.1993 7.74149 1.35821 5.4704 1.35821Z" fill="black"/>
</g>
</svg>
