<svg width="20" height="20" viewBox="0 0 20 20" fill="none" xmlns="http://www.w3.org/2000/svg">
<path fill-rule="evenodd" clip-rule="evenodd" d="M15.0413 8.41631C15.0413 12.0752 12.0752 15.0413 8.41631 15.0413C4.75746 15.0413 1.79137 12.0752 1.79137 8.41631C1.79137 4.75746 4.75746 1.79137 8.41631 1.79137C12.0752 1.79137 15.0413 4.75746 15.0413 8.41631ZM13.6108 14.6544C12.2032 15.8279 10.3922 16.5338 8.41631 16.5338C3.93315 16.5338 0.298828 12.8995 0.298828 8.41631C0.298828 3.93315 3.93315 0.298828 8.41631 0.298828C12.8995 0.298828 16.5338 3.93315 16.5338 8.41631C16.5338 10.3922 15.8279 12.2032 14.6544 13.6108L19.4857 18.442C19.7739 18.7302 19.7739 19.1975 19.4857 19.4857C19.1975 19.7739 18.7302 19.7739 18.442 19.4857L13.6108 14.6544Z" fill="black"/>
<path fill-rule="evenodd" clip-rule="evenodd" d="M0 8.41599C0 3.76797 3.76797 0 8.41599 0C13.064 0 16.832 3.76797 16.832 8.41599C16.832 10.3662 16.1683 12.162 15.0548 13.5891L19.6964 18.2307C20.1012 18.6354 20.1012 19.2917 19.6964 19.6964C19.2917 20.1012 18.6354 20.1012 18.2307 19.6964L13.5891 15.0548C12.162 16.1683 10.3662 16.832 8.41599 16.832C3.76797 16.832 0 13.064 0 8.41599ZM8.41599 0.597015C4.09769 0.597015 0.597015 4.09769 0.597015 8.41599C0.597015 12.7343 4.09769 16.235 8.41599 16.235C10.3195 16.235 12.0634 15.5552 13.4194 14.4248L13.6288 14.2502L18.6528 19.2743C18.8244 19.4459 19.1027 19.4459 19.2743 19.2743C19.4459 19.1027 19.4459 18.8244 19.2743 18.6528L14.2502 13.6288L14.4248 13.4194C15.5552 12.0634 16.235 10.3195 16.235 8.41599C16.235 4.09769 12.7343 0.597015 8.41599 0.597015ZM1.49254 8.41599C1.49254 4.59227 4.59227 1.49254 8.41599 1.49254C12.2397 1.49254 15.3395 4.59227 15.3395 8.41599C15.3395 12.2397 12.2397 15.3395 8.41599 15.3395C4.59227 15.3395 1.49254 12.2397 1.49254 8.41599ZM8.41599 2.08955C4.922 2.08955 2.08955 4.922 2.08955 8.41599C2.08955 11.91 4.922 14.7424 8.41599 14.7424C11.91 14.7424 14.7424 11.91 14.7424 8.41599C14.7424 4.922 11.91 2.08955 8.41599 2.08955Z" fill="black"/>
</svg>
