<svg width="20" height="20" viewBox="0 0 20 20" fill="none" xmlns="http://www.w3.org/2000/svg">
<path fill-rule="evenodd" clip-rule="evenodd" d="M8.125 15C11.922 15 15 11.922 15 8.125C15 4.32804 11.922 1.25 8.125 1.25C4.32804 1.25 1.25 4.32804 1.25 8.125C1.25 11.922 4.32804 15 8.125 15ZM16.25 8.125C16.25 12.6123 12.6123 16.25 8.125 16.25C3.63769 16.25 0 12.6123 0 8.125C0 3.63769 3.63769 0 8.125 0C12.6123 0 16.25 3.63769 16.25 8.125Z" fill="#10DCB3"/>
<path d="M12.9299 14.6777C12.9667 14.7277 13.0078 14.7755 13.053 14.8208L17.8661 19.6339C18.3543 20.122 19.1457 20.122 19.6339 19.6339C20.122 19.1457 20.122 18.3543 19.6339 17.8661L14.8208 13.053C14.7755 13.0078 14.7277 12.9667 14.6777 12.9299C14.1874 13.5974 13.5974 14.1874 12.9299 14.6777Z" fill="#10DCB3"/>
</svg>
