<svg width="12" height="15" viewBox="0 0 12 15" fill="none" xmlns="http://www.w3.org/2000/svg">
<path d="M5.99662 9.79619C5.70592 9.79619 5.46253 9.55693 5.46253 9.2778V2.45237L5.5031 1.45547L5.04338 1.92734L4.02253 3.00399C3.92789 3.11032 3.77915 3.16349 3.6507 3.16349C3.36676 3.16349 3.16394 2.96411 3.16394 2.69163C3.16394 2.55206 3.21803 2.44572 3.31944 2.34603L5.60451 0.179442C5.74648 0.0465219 5.86141 0 5.99662 0C6.13859 0 6.25352 0.0465219 6.38873 0.179442L8.6738 2.34603C8.77521 2.44572 8.83606 2.55206 8.83606 2.69163C8.83606 2.96411 8.61972 3.16349 8.34254 3.16349C8.20732 3.16349 8.07211 3.11032 7.97746 3.00399L6.94986 1.92734L6.4969 1.45547L6.53746 2.45237V9.2778C6.53746 9.55693 6.28732 9.79619 5.99662 9.79619ZM2.12282 15C0.709859 15 0 14.3088 0 12.9397V6.30704C0 4.93797 0.709859 4.24679 2.12282 4.24679H4.15775V5.31679H2.13634C1.46028 5.31679 1.08845 5.67568 1.08845 6.36686V12.8799C1.08845 13.5711 1.46028 13.93 2.13634 13.93H9.8569C10.5262 13.93 10.9115 13.5711 10.9115 12.8799V6.36686C10.9115 5.67568 10.5262 5.31679 9.8569 5.31679H7.84225V4.24679H9.87718C11.2901 4.24679 12 4.93797 12 6.30704V12.9397C12 14.3088 11.2901 15 9.87718 15H2.12282Z" fill="#F46B02"/>
</svg>
