<svg width="12" height="6" viewBox="0 0 12 6" fill="none" xmlns="http://www.w3.org/2000/svg">
<path fill-rule="evenodd" clip-rule="evenodd" d="M0.334825 0.998383C0.145033 0.827528 0.133622 0.515056 0.310356 0.328334C0.461692 0.168446 0.699294 0.158161 0.861812 0.304463L5.40936 4.39827C5.75188 4.70661 6.24726 4.70661 6.58978 4.39827L11.1373 0.304462C11.2998 0.15816 11.5374 0.168445 11.6888 0.328334C11.8655 0.515055 11.8541 0.827528 11.6643 0.998383L6.58978 5.5666C6.24726 5.87494 5.75188 5.87494 5.40936 5.5666L0.334825 0.998383Z" fill="#ABABAB"/>
<path fill-rule="evenodd" clip-rule="evenodd" d="M0.217213 1.15428C-0.0576024 0.906887 -0.0741257 0.45443 0.181782 0.184061C0.400915 -0.0474558 0.744959 -0.0623494 0.980283 0.149495L5.52783 4.2433C5.80184 4.48997 6.19816 4.48997 6.47217 4.2433L11.0197 0.149494C11.255 -0.0623493 11.5991 -0.0474563 11.8182 0.18406C12.0741 0.45443 12.0576 0.906887 11.7828 1.15428L6.70825 5.7225C6.29723 6.0925 5.70277 6.0925 5.29175 5.7225L0.217213 1.15428ZM0.439788 0.473538C0.342229 0.576611 0.348528 0.749101 0.453296 0.843415L5.52783 5.41163C5.80185 5.6583 6.19816 5.6583 6.47217 5.41163L11.5467 0.843415C11.6515 0.749101 11.6578 0.576611 11.5602 0.473538C11.4767 0.385277 11.3455 0.379599 11.2558 0.46036L6.70825 4.55417C6.29723 4.92417 5.70277 4.92417 5.29175 4.55417L0.7442 0.46036C0.654488 0.3796 0.523328 0.385278 0.439788 0.473538Z" fill="#ABABAB"/>
</svg>
