<svg width="16" height="16" viewBox="0 0 16 16" fill="none" xmlns="http://www.w3.org/2000/svg">
<path d="M6.24907 12.7879L2.64011 8.02506C2.52869 7.86832 2.40759 7.7447 2.26227 7.66155C2.11382 7.5766 1.95424 7.54195 1.78003 7.54195C1.50129 7.54195 1.2538 7.63892 1.0754 7.81612C0.89699 7.99332 0.8 8.23857 0.8 8.512C0.8 8.75566 0.903518 9.0108 1.07814 9.23327C1.07821 9.23336 1.07827 9.23344 1.07834 9.23352L5.29369 14.6462C5.29389 14.6464 5.29409 14.6467 5.29429 14.647C5.42608 14.8196 5.56872 14.9595 5.73591 15.0556C5.90582 15.1533 6.091 15.2 6.29774 15.2C6.71847 15.2 7.05661 15.0069 7.28659 14.6495L7.2866 14.6495L7.28762 14.6479L14.9661 2.45827L14.9661 2.45827L14.9672 2.45652C15.1261 2.19845 15.2 1.982 15.2 1.74547C15.2 1.47615 15.1117 1.23621 14.9399 1.06293C14.7679 0.889501 14.529 0.8 14.2606 0.8C14.0759 0.8 13.9107 0.83038 13.7599 0.920467C13.6117 1.009 13.4979 1.14315 13.3923 1.31161L13.392 1.3121L6.24907 12.7879Z" fill="#C9C9C9" stroke="#C9C9C9" stroke-width="0.4"/>
</svg>
