<svg width="50" height="50" viewBox="0 0 50 50" fill="none" xmlns="http://www.w3.org/2000/svg">
<circle cx="25" cy="25" r="25" fill="#03B89E"/>
<path d="M28.2578 18.1156L15.2581 31.1149C15.0929 31.2802 15 31.5044 15 31.7381V35.1186C15 35.6054 15.3946 36 15.8813 36H19.2619C19.4957 36 19.7199 35.9071 19.8851 35.7418L32.8848 22.7424C33.229 22.3983 33.229 21.8403 32.8848 21.4961L29.5042 18.1156C29.16 17.7714 28.602 17.7714 28.2578 18.1156Z" fill="white"/>
<path d="M31.4144 14.9583L30.3851 15.9876C30.0409 16.3317 30.0409 16.8897 30.3851 17.2339L33.7657 20.6144C34.1099 20.9586 34.6679 20.9586 35.0121 20.6144L36.0414 19.5852C37.3191 18.3075 37.3191 16.2359 36.0414 14.9583C34.7637 13.6806 32.6921 13.6806 31.4144 14.9583Z" fill="white"/>
</svg>