<svg width="20" height="20" viewBox="0 0 20 20" fill="none" xmlns="http://www.w3.org/2000/svg">
<path d="M17.5583 7.71387C18.1011 8.19958 18.5583 8.67101 18.9011 9.04244C19.138 9.30494 19.2692 9.64598 19.2692 9.99958C19.2692 10.3532 19.138 10.6942 18.9011 10.9567C17.4011 12.571 13.9868 15.7139 10.0011 15.7139H9.42969" stroke="#C5C5C5" stroke-linecap="round" stroke-linejoin="round"/>
<path d="M5.52905 14.4709C3.87424 13.5441 2.37901 12.3575 1.10048 10.9566C0.863563 10.6941 0.732422 10.353 0.732422 9.99944C0.732422 9.64584 0.863563 9.3048 1.10048 9.0423C2.60048 7.42801 6.01476 4.28516 10.0005 4.28516C11.5716 4.31799 13.1092 4.74538 14.4719 5.52801" stroke="#C5C5C5" stroke-linecap="round" stroke-linejoin="round"/>
<path d="M17.8569 2.14258L2.14258 17.8569" stroke="#C5C5C5" stroke-linecap="round" stroke-linejoin="round"/>
<path d="M7.98544 12.014C7.44888 11.4806 7.14577 10.7563 7.14258 9.99972C7.14258 9.24196 7.4436 8.51523 7.97942 7.97942C8.51523 7.4436 9.24196 7.14258 9.99972 7.14258C10.7563 7.14577 11.4806 7.44888 12.014 7.98544" stroke="#C5C5C5" stroke-linecap="round" stroke-linejoin="round"/>
<path d="M12.4868 11.4287C12.2325 11.8634 11.8678 12.2232 11.4297 12.4716" stroke="#C5C5C5" stroke-linecap="round" stroke-linejoin="round"/>
</svg>
