<svg width="13" height="8" viewBox="0 0 13 8" fill="none" xmlns="http://www.w3.org/2000/svg">
<path fill-rule="evenodd" clip-rule="evenodd" d="M12.2729 2.44043C9.01904 -0.813477 3.7417 -0.813477 0.487793 2.44043C-0.162598 3.09082 -0.162598 4.14648 0.487793 4.79785C3.7417 8.05176 9.01904 8.05176 12.2729 4.79785C12.6987 4.37207 12.8452 3.77246 12.7144 3.22656C12.645 2.93848 12.4976 2.66504 12.2729 2.44043ZM6.31006 5.54785C7.41455 5.54785 8.31006 4.65234 8.31006 3.54785C8.31006 2.44336 7.41455 1.54785 6.31006 1.54785C5.20557 1.54785 4.31006 2.44336 4.31006 3.54785C4.31006 4.65234 5.20557 5.54785 6.31006 5.54785Z" fill="#BCBCBC"/>
</svg>
