<svg width="20" height="20" viewBox="0 0 20 20" fill="none" xmlns="http://www.w3.org/2000/svg">
<path d="M18.9005 9.04328C19.1374 9.30578 19.2685 9.64682 19.2685 10.0004C19.2685 10.354 19.1374 10.6951 18.9005 10.9576C17.4005 12.5718 13.9862 15.7147 10.0005 15.7147C6.01476 15.7147 2.60048 12.5718 1.10048 10.9576C0.863563 10.6951 0.732422 10.354 0.732422 10.0004C0.732422 9.64682 0.863563 9.30578 1.10048 9.04328C2.60048 7.42899 6.01476 4.28613 10.0005 4.28613C13.9862 4.28613 17.4005 7.42899 18.9005 9.04328Z" stroke="#C5C5C5" stroke-linecap="round" stroke-linejoin="round"/>
<path d="M9.99972 12.8578C11.5777 12.8578 12.8569 11.5787 12.8569 10.0007C12.8569 8.42274 11.5777 7.14355 9.99972 7.14355C8.42176 7.14355 7.14258 8.42274 7.14258 10.0007C7.14258 11.5787 8.42176 12.8578 9.99972 12.8578Z" stroke="#C5C5C5" stroke-linecap="round" stroke-linejoin="round"/>
</svg>
