<svg width="16" height="16" viewBox="0 0 16 16" fill="none" xmlns="http://www.w3.org/2000/svg">
<path d="M7.3371 1.37976L0.102287 13.8564C-0.189163 14.3628 0.176578 15 0.765192 15H15.2348C15.8234 15 16.1892 14.3685 15.8977 13.8564L8.6629 1.37976C8.36574 0.873413 7.63426 0.873413 7.3371 1.37976Z" fill="#FFDA00"/>
<path d="M7.29883 10.7479C7.29883 11.1329 7.60883 11.4479 7.99883 11.4479C8.38883 11.4479 8.69883 11.1329 8.69883 10.7429V6.16289C8.69883 5.77789 8.38883 5.46289 7.99883 5.46289C7.61383 5.46289 7.29883 5.77289 7.29883 6.16289V10.7479Z" fill="black"/>
<path d="M8.69883 12.7379C8.69883 13.1245 8.38543 13.4379 7.99883 13.4379C7.61223 13.4379 7.29883 13.1245 7.29883 12.7379C7.29883 12.3513 7.61223 12.0379 7.99883 12.0379C8.38543 12.0379 8.69883 12.3513 8.69883 12.7379Z" fill="black"/>
</svg>
