<svg xmlns="http://www.w3.org/2000/svg" width="28" height="28" viewBox="0 0 28 28" fill="none">
  <path d="M21.2563 0.256282C21.598 -0.0854272 22.152 -0.0854272 22.4937 0.256282L27.7437 5.50628C28.0855 5.84799 28.0855 6.40201 27.7437 6.74372L10.2437 24.2437C10.16 24.3275 10.06 24.3934 9.94999 24.4374L1.19999 27.9374C0.875003 28.0674 0.503812 27.9912 0.256307 27.7437C0.0088023 27.4962 -0.0673875 27.125 0.0626084 26.8L3.56261 18.05C3.60662 17.94 3.67252 17.8401 3.75631 17.7563L21.2563 0.256282ZM19.6125 4.375L23.625 8.38756L25.8876 6.125L21.875 2.11244L19.6125 4.375ZM22.3876 9.625L18.375 5.61244L7.00003 16.9874V17.5H7.87503C8.35828 17.5 8.75003 17.8918 8.75003 18.375V19.25H9.62503C10.1083 19.25 10.5 19.6418 10.5 20.125V21H11.0126L22.3876 9.625ZM5.30541 18.682L5.12074 18.8667L2.4457 25.5543L9.1333 22.8793L9.31798 22.6946C8.98619 22.5703 8.75003 22.2502 8.75003 21.875V21H7.87503C7.39178 21 7.00003 20.6082 7.00003 20.125V19.25H6.12503C5.74982 19.25 5.42977 19.0138 5.30541 18.682Z" fill="white"/>
</svg>