<svg width="12" height="12" viewBox="0 0 12 12" fill="none" xmlns="http://www.w3.org/2000/svg">
<path d="M0.233383 11.7667C-0.0822875 11.451 -0.0732683 10.928 0.233383 10.6214L4.86021 5.99549L0.233383 1.37856C-0.0732683 1.07196 -0.0822875 0.539932 0.233383 0.233339C0.540034 -0.082272 1.07216 -0.0732546 1.37881 0.233339L5.99662 4.85929L10.6234 0.233339C10.9301 -0.0732546 11.4532 -0.082272 11.7599 0.233339C12.0845 0.539932 12.0755 1.07196 11.7599 1.37856L7.14205 5.99549L11.7599 10.6214C12.0755 10.928 12.0845 11.451 11.7599 11.7667C11.4532 12.0823 10.9301 12.0733 10.6234 11.7667L5.99662 7.14071L1.37881 11.7667C1.07216 12.0733 0.540034 12.0823 0.233383 11.7667Z" fill="black"/>
</svg>
