<svg width="25" height="25" viewBox="0 0 25 25" fill="none" xmlns="http://www.w3.org/2000/svg">
  <path d="M3.90625 20.3125H21.875V22.6562C21.875 23.0877 21.5252 23.4375 21.0938 23.4375H4.6875C4.25603 23.4375 3.90625 23.0877 3.90625 22.6562V20.3125Z" fill="#F9C23C"/>
  <path d="M4.6875 20.3125H21.0938V21.4844C21.0938 22.1316 20.5691 22.6562 19.9219 22.6562H5.85938C5.21217 22.6562 4.6875 22.1316 4.6875 21.4844V20.3125Z" fill="#D3D3D3"/>
  <path d="M3.90625 2.34375C3.90625 1.91228 4.25603 1.5625 4.6875 1.5625H21.0938C21.5252 1.5625 21.875 1.91228 21.875 2.34375V20.3125C21.875 20.744 21.5252 21.0938 21.0938 21.0938H4.6875C4.25603 21.0938 3.90625 20.744 3.90625 20.3125V2.34375Z" fill="#FCD53F"/>
  <path d="M8.59375 7.03125C8.59375 6.59978 8.94353 6.25 9.375 6.25H15.625C16.0565 6.25 16.4062 6.59978 16.4062 7.03125V8.59375C16.4062 9.02522 16.0565 9.375 15.625 9.375H9.375C8.94353 9.375 8.59375 9.02522 8.59375 8.59375V7.03125Z" fill="#FFB02E"/>
  <path d="M5.84553 4.6875C5.75076 4.02494 5.18095 3.51562 4.49219 3.51562C3.73711 3.51562 3.125 4.12774 3.125 4.88281C3.125 5.4282 3.44435 5.899 3.90625 6.11843V6.51325C4.09434 6.46882 4.29052 6.44531 4.49219 6.44531C5.82876 6.44531 6.92412 7.47804 7.02385 8.78906H7.03125C7.03125 8.86601 7.01609 8.9422 6.98665 9.01329C6.9572 9.08438 6.91404 9.14897 6.85963 9.20338C6.80522 9.25779 6.74063 9.30095 6.66954 9.3304C6.59845 9.35984 6.52226 9.375 6.44531 9.375C6.36837 9.375 6.29217 9.35984 6.22108 9.3304C6.14999 9.30095 6.0854 9.25779 6.03099 9.20338C5.97658 9.14897 5.93342 9.08438 5.90398 9.01329C5.87453 8.9422 5.85938 8.86601 5.85938 8.78906H5.84553C5.75076 8.1265 5.18095 7.61719 4.49219 7.61719C3.73711 7.61719 3.125 8.2293 3.125 8.98438C3.125 9.52977 3.44435 10.0006 3.90625 10.22V10.6148C4.09434 10.5704 4.29052 10.5469 4.49219 10.5469C5.82876 10.5469 6.92412 11.5796 7.02385 12.8906H7.03125C7.03125 12.9676 7.01609 13.0438 6.98665 13.1149C6.9572 13.1859 6.91404 13.2505 6.85963 13.3049C6.80522 13.3594 6.74063 13.4025 6.66954 13.432C6.59845 13.4614 6.52226 13.4766 6.44531 13.4766C6.36837 13.4766 6.29217 13.4614 6.22108 13.432C6.14999 13.4025 6.0854 13.3594 6.03099 13.3049C5.97658 13.2505 5.93342 13.1859 5.90398 13.1149C5.87453 13.0438 5.85938 12.9676 5.85938 12.8906H5.84553C5.75076 12.2281 5.18095 11.7188 4.49219 11.7188C3.73711 11.7188 3.125 12.3309 3.125 13.0859C3.125 13.6313 3.44435 14.1021 3.90625 14.3216V14.7164C4.09434 14.6719 4.29052 14.6484 4.49219 14.6484C5.82876 14.6484 6.92412 15.6812 7.02385 16.9922H7.03125C7.03125 17.0691 7.01609 17.1453 6.98665 17.2164C6.9572 17.2875 6.91404 17.3521 6.85963 17.4065C6.80522 17.4609 6.74063 17.5041 6.66954 17.5335C6.59845 17.563 6.52226 17.5781 6.44531 17.5781C6.36837 17.5781 6.29217 17.563 6.22108 17.5335C6.14999 17.5041 6.0854 17.4609 6.03099 17.4065C5.97658 17.3521 5.93342 17.2875 5.90398 17.2164C5.87453 17.1453 5.85938 17.0691 5.85938 16.9922H5.84553C5.75076 16.3296 5.18095 15.8203 4.49219 15.8203C3.73711 15.8203 3.125 16.4324 3.125 17.1875C3.125 17.7329 3.44435 18.2037 3.90625 18.4231V19.6586C2.78645 19.3941 1.95312 18.3881 1.95312 17.1875C1.95312 16.3451 2.36332 15.5986 2.99485 15.1367C2.36332 14.6748 1.95312 13.9283 1.95312 13.0859C1.95312 12.2436 2.36332 11.497 2.99485 11.0352C2.36332 10.5733 1.95312 9.82673 1.95312 8.98438C1.95312 8.14203 2.36332 7.39548 2.99485 6.93359C2.36332 6.47171 1.95312 5.72516 1.95312 4.88281C1.95312 3.48053 3.0899 2.34375 4.49219 2.34375C5.82876 2.34375 6.92412 3.37648 7.02385 4.6875H7.03125C7.03125 4.76445 7.01609 4.84064 6.98665 4.91173C6.9572 4.98282 6.91404 5.04741 6.85963 5.10182C6.80522 5.15623 6.74063 5.19939 6.66954 5.22884C6.59845 5.25828 6.52226 5.27344 6.44531 5.27344C6.36837 5.27344 6.29217 5.25828 6.22108 5.22884C6.14999 5.19939 6.0854 5.15623 6.03099 5.10182C5.97658 5.04741 5.93342 4.98282 5.90398 4.91173C5.87453 4.84064 5.85938 4.76445 5.85938 4.6875H5.84553Z" fill="#9B9B9B"/>
</svg>
