<svg width="18" height="18" viewBox="0 0 18 18" fill="none" xmlns="http://www.w3.org/2000/svg">
<rect x="7" y="7" width="4" height="4" fill="#F5F5F5"/>
<path d="M8.99993 1.28613C4.73994 1.28613 1.28564 4.74043 1.28564 9.00042C1.28564 13.2604 4.73994 16.7147 8.99993 16.7147C13.2599 16.7147 16.7142 13.2604 16.7142 9.00042C16.7142 4.74043 13.2599 1.28613 8.99993 1.28613ZM12.0856 10.5433C12.0856 11.4119 11.3818 12.1158 10.5132 12.1158L7.45707 12.0861C6.58841 12.0861 5.88458 11.3823 5.88458 10.5136V7.4872C5.88458 6.61853 6.58841 5.9147 7.45707 5.9147L10.5132 5.88507C11.3818 5.88507 12.0856 6.58889 12.0856 7.45756V10.5433Z" fill="#FFB000"/>
<path fill-rule="evenodd" clip-rule="evenodd" d="M18 9C18 13.9706 13.9706 18 9 18C4.02944 18 0 13.9706 0 9C0 4.02944 4.02944 0 9 0C13.9706 0 18 4.02944 18 9ZM15.4286 9C15.4286 12.5504 12.5504 15.4286 9 15.4286C5.4496 15.4286 2.57143 12.5504 2.57143 9C2.57143 5.4496 5.4496 2.57143 9 2.57143C12.5504 2.57143 15.4286 5.4496 15.4286 9ZM7.68729 5.71854C6.59998 5.71854 5.71854 6.59998 5.71854 7.68729V10.3123C5.71854 11.3996 6.59998 12.281 7.68729 12.281H10.3123C11.3996 12.281 12.281 11.3996 12.281 10.3123V7.68729C12.281 6.59998 11.3996 5.71854 10.3123 5.71854H7.68729ZM7.03104 7.68729C7.03104 7.32485 7.32485 7.03104 7.68729 7.03104H10.3123C10.6747 7.03104 10.9685 7.32485 10.9685 7.68729V10.3123C10.9685 10.6747 10.6747 10.9685 10.3123 10.9685H7.68729C7.32485 10.9685 7.03104 10.6747 7.03104 10.3123V7.68729Z" fill="#FFDA00"/>
</svg>
