<svg width="16" height="16" viewBox="0 0 16 16" fill="none" xmlns="http://www.w3.org/2000/svg">
<path d="M16 8C16 12.4183 12.4183 16 8 16C3.58172 16 0 12.4183 0 8C0 3.58172 3.58172 0 8 0C12.4183 0 16 3.58172 16 8Z" fill="#FF9500"/>
<path d="M13.8672 8C13.8672 4.75993 11.2401 2.13281 8 2.13281C4.75993 2.13281 2.13281 4.75993 2.13281 8C2.13281 11.2401 4.75993 13.8672 8 13.8672V16C3.58172 16 0 12.4183 0 8C0 3.58172 3.58172 0 8 0C12.4183 0 16 3.58172 16 8C16 12.4183 12.4183 16 8 16V13.8672C11.2401 13.8672 13.8672 11.2401 13.8672 8Z" fill="#FFDA00"/>
<path d="M6.66602 7.19935C6.66602 6.9048 6.9048 6.66602 7.19935 6.66602H8.79935C9.0939 6.66602 9.33268 6.9048 9.33268 7.19935V8.79935C9.33268 9.0939 9.0939 9.33268 8.79935 9.33268H7.19935C6.9048 9.33268 6.66602 9.0939 6.66602 8.79935V7.19935Z" fill="white"/>
<path d="M6.66732 8.80013C6.66732 9.05787 6.85006 9.27384 7.0931 9.32357L7.20117 9.33398H8.80013C9.09468 9.33398 9.33398 9.09468 9.33398 8.80013V7.20117C9.33398 6.90662 9.09468 6.66732 8.80013 6.66732V5.33398C9.83106 5.33398 10.6673 6.17024 10.6673 7.20117V8.80013C10.6673 9.83106 9.83106 10.6673 8.80013 10.6673H7.20117C6.17024 10.6673 5.33398 9.83106 5.33398 8.80013V7.20117C5.33398 6.17024 6.17024 5.33398 7.20117 5.33398V6.66732L7.0931 6.67773C6.85006 6.72746 6.66732 6.94343 6.66732 7.20117V8.80013ZM8.80013 5.33398V6.66732H7.20117V5.33398H8.80013Z" fill="#FFDA00"/>
</svg>
