<svg width="9" height="16" viewBox="0 0 9 16" fill="none" xmlns="http://www.w3.org/2000/svg">
<path fill-rule="evenodd" clip-rule="evenodd" d="M6.65334 1.25342C6.94197 0.932798 7.46983 0.91352 7.78526 1.21208C8.05537 1.46773 8.07274 1.86912 7.82559 2.14366L3.04948 7.44914C2.7617 7.76882 2.7617 8.23118 3.04948 8.55086L7.82559 13.8563C8.07274 14.1309 8.05537 14.5323 7.78526 14.7879C7.46983 15.0865 6.94197 15.0672 6.65334 14.7466L1.32375 8.82629C0.892082 8.34677 0.892082 7.65323 1.32375 7.17371L6.65334 1.25342ZM7.44754 1.51309C7.32729 1.39927 7.12605 1.40662 7.01602 1.52885L1.68643 7.44914C1.39865 7.76882 1.39865 8.23118 1.68643 8.55086L7.01602 14.4712C7.12605 14.5934 7.32729 14.6007 7.44754 14.4869C7.55051 14.3895 7.55713 14.2364 7.46291 14.1318L2.6868 8.82629C2.25513 8.34677 2.25513 7.65323 2.6868 7.17371L7.46291 1.86823C7.55713 1.76357 7.55051 1.61055 7.44754 1.51309Z" fill="#03B8A3" stroke="#03B8A3"/>
</svg>
