<svg width="9" height="16" viewBox="0 0 9 16" fill="none" xmlns="http://www.w3.org/2000/svg">
<path fill-rule="evenodd" clip-rule="evenodd" d="M6.83522 1.39083C7.03455 1.16941 7.3991 1.1561 7.61694 1.36229V1.36229C7.80348 1.53884 7.81548 1.81605 7.64479 2.00565L2.86868 7.31113C2.50896 7.71073 2.50896 8.28868 2.86868 8.68828L7.64479 13.9938C7.81548 14.1834 7.80348 14.4606 7.61694 14.6371V14.6371C7.3991 14.8433 7.03455 14.83 6.83522 14.6086L1.50564 8.68828C1.14591 8.28868 1.14591 7.71073 1.50563 7.31113L6.83522 1.39083Z" fill="#03B8A3"/>
<path fill-rule="evenodd" clip-rule="evenodd" d="M6.65334 1.25342C6.94197 0.932798 7.46983 0.91352 7.78526 1.21208C8.05537 1.46773 8.07274 1.86912 7.82559 2.14366L3.04948 7.44914C2.7617 7.76882 2.7617 8.23118 3.04948 8.55086L7.82559 13.8563C8.07274 14.1309 8.05537 14.5323 7.78526 14.7879C7.46983 15.0865 6.94197 15.0672 6.65334 14.7466L1.32375 8.82629C0.892082 8.34677 0.892082 7.65323 1.32375 7.17371L6.65334 1.25342ZM7.44754 1.51309C7.32729 1.39927 7.12605 1.40662 7.01602 1.52885L1.68643 7.44914C1.39865 7.76882 1.39865 8.23118 1.68643 8.55086L7.01602 14.4712C7.12605 14.5934 7.32729 14.6007 7.44754 14.4869C7.55051 14.3895 7.55713 14.2364 7.46291 14.1318L2.6868 8.82629C2.25513 8.34677 2.25513 7.65323 2.6868 7.17371L7.46291 1.86823C7.55713 1.76357 7.55051 1.61055 7.44754 1.51309Z" fill="#03B8A3" stroke="#ABABAB"/>
</svg>
