<svg width="9" height="16" viewBox="0 0 9 16" fill="none" xmlns="http://www.w3.org/2000/svg">
<path fill-rule="evenodd" clip-rule="evenodd" d="M2.16478 1.39083C1.96545 1.16941 1.6009 1.1561 1.38306 1.36229V1.36229C1.19652 1.53884 1.18452 1.81605 1.35521 2.00565L6.13132 7.31113C6.49104 7.71073 6.49104 8.28868 6.13132 8.68828L1.35521 13.9938C1.18452 14.1834 1.19652 14.4606 1.38306 14.6371V14.6371C1.6009 14.8433 1.96545 14.83 2.16478 14.6086L7.49436 8.68828C7.85409 8.28868 7.85409 7.71073 7.49437 7.31113L2.16478 1.39083Z" fill="#03B8A3"/>
<path fill-rule="evenodd" clip-rule="evenodd" d="M2.34666 1.25342C2.05803 0.932798 1.53017 0.91352 1.21474 1.21208C0.944634 1.46773 0.927259 1.86912 1.17441 2.14366L5.95052 7.44914C6.2383 7.76882 6.2383 8.23118 5.95052 8.55086L1.17441 13.8563C0.927259 14.1309 0.944634 14.5323 1.21474 14.7879C1.53017 15.0865 2.05803 15.0672 2.34666 14.7466L7.67625 8.82629C8.10792 8.34677 8.10792 7.65323 7.67625 7.17371L2.34666 1.25342ZM1.55246 1.51309C1.67271 1.39927 1.87395 1.40662 1.98398 1.52885L7.31357 7.44914C7.60135 7.76882 7.60135 8.23118 7.31357 8.55086L1.98398 14.4712C1.87395 14.5934 1.67271 14.6007 1.55246 14.4869C1.44949 14.3895 1.44287 14.2364 1.53709 14.1318L6.3132 8.82629C6.74487 8.34677 6.74487 7.65323 6.3132 7.17371L1.53709 1.86823C1.44287 1.76357 1.44949 1.61055 1.55246 1.51309Z" fill="#03B8A3" stroke="#ABABAB"/>
</svg>
