<svg width="12" height="12" viewBox="0 0 12 12" fill="none" xmlns="http://www.w3.org/2000/svg">
<g clip-path="url(#clip0_62_20115)">
<path d="M11.3383 5.42655C11.4805 5.58405 11.5592 5.78868 11.5592 6.00084C11.5592 6.213 11.4805 6.41762 11.3383 6.57512C10.4383 7.54369 8.38976 9.42941 5.99833 9.42941C3.6069 9.42941 1.55833 7.54369 0.658333 6.57512C0.516185 6.41762 0.4375 6.213 0.4375 6.00084C0.4375 5.78868 0.516185 5.58405 0.658333 5.42655C1.55833 4.45798 3.6069 2.57227 5.99833 2.57227C8.38976 2.57227 10.4383 4.45798 11.3383 5.42655Z" stroke="#C5C5C5" stroke-linecap="round" stroke-linejoin="round"/>
<path d="M5.99554 7.71568C6.94231 7.71568 7.70982 6.94817 7.70982 6.0014C7.70982 5.05462 6.94231 4.28711 5.99554 4.28711C5.04876 4.28711 4.28125 5.05462 4.28125 6.0014C4.28125 6.94817 5.04876 7.71568 5.99554 7.71568Z" stroke="#C5C5C5" stroke-linecap="round" stroke-linejoin="round"/>
</g>
<defs>
<clipPath id="clip0_62_20115">
<rect width="12" height="12" fill="white"/>
</clipPath>
</defs>
</svg>
