<svg width="18" height="18" viewBox="0 0 18 18" fill="none" xmlns="http://www.w3.org/2000/svg">
<path fill-rule="evenodd" clip-rule="evenodd" d="M16.1538 13.1833C17.312 11.8025 18 10.0767 18 8.20435C18 3.67321 13.9706 0 9 0C4.02944 0 0 3.67321 0 8.20435C0 12.7355 4.02944 16.4087 9 16.4087C9.67406 16.4087 10.3308 16.3412 10.9625 16.2131C11.1576 16.1735 11.3538 16.2859 11.5368 16.3642L15.2655 17.9592C15.6387 18.1188 16.0365 17.7907 15.9509 17.394L15.3024 14.3905C15.2725 14.2518 15.275 14.0872 15.3796 13.9914C15.6564 13.7379 15.9151 13.4679 16.1538 13.1833Z" fill="#03B89E"/>
</svg>
