<svg width="18" height="14" viewBox="0 0 18 14" fill="none" xmlns="http://www.w3.org/2000/svg">
<path fill-rule="evenodd" clip-rule="evenodd" d="M8.12195 0.713379C8.12195 0.319391 7.80256 0 7.40857 0H1.42676C0.638781 0 0 0.638781 0 1.42676V2.41463V11.4999C0 12.6045 0.89543 13.4999 2 13.4999H16C17.1046 13.4999 18 12.6045 18 11.4999V3.42676C18 2.32219 17.1046 1.42676 16 1.42676H8.83533C8.44134 1.42676 8.12195 1.10737 8.12195 0.713379Z" fill="#03B89E"/>
<path d="M0 5C0 3.89543 0.895431 3 2 3H16C17.1046 3 18 3.89543 18 5V12C18 13.1046 17.1046 14 16 14H2C0.89543 14 0 13.1046 0 12V5Z" fill="#74D7CB"/>
</svg>
