<svg width="18" height="18" viewBox="0 0 18 18" fill="none" xmlns="http://www.w3.org/2000/svg">
<path d="M1 6.92285H2.85749C3.40977 6.92285 3.85749 7.37057 3.85749 7.92285V17C3.85749 17.5523 3.40977 18 2.85749 18H1C0.447715 18 0 17.5523 0 17V7.92285C0 7.37057 0.447715 6.92285 1 6.92285Z" fill="#016C5D"/>
<path d="M5.1416 17.0004V7.25914C5.1416 6.92513 5.22525 6.59643 5.38493 6.30306L8.53132 0.52196C8.70642 0.200246 9.04338 0 9.40966 0H9.82195C10.3379 0 10.7691 0.392531 10.8175 0.906205L10.9278 2.07696L10.7758 5.7083C10.752 6.2765 11.2062 6.75013 11.7749 6.75013H16.8139C17.4337 6.75013 17.9042 7.3082 17.7995 7.91911L16.2136 17.1693C16.1313 17.6494 15.7151 18.0004 15.228 18.0004H6.1416C5.58932 18.0004 5.1416 17.5526 5.1416 17.0004Z" fill="#03B89E"/>
</svg>
