<svg width="7" height="14" viewBox="0 0 7 14" fill="none" xmlns="http://www.w3.org/2000/svg">
<path fill-rule="evenodd" clip-rule="evenodd" d="M1.16429 13.6092C0.96496 13.8306 0.600408 13.8439 0.382566 13.6377C0.196029 13.4612 0.18403 13.184 0.354716 12.9943L5.13083 7.68887C5.49056 7.28927 5.49056 6.71132 5.13083 6.31172L0.354717 1.00625C0.184031 0.81664 0.196031 0.539439 0.382568 0.36288C0.600409 0.15669 0.964961 0.170003 1.16429 0.391428L6.49388 6.31172C6.8536 6.71132 6.8536 7.28927 6.49388 7.68887L1.16429 13.6092Z" fill="#BCBCBC"/>
<path fill-rule="evenodd" clip-rule="evenodd" d="M1.34666 13.7466C1.05803 14.0672 0.530167 14.0865 0.214736 13.7879C-0.0553674 13.5323 -0.0727429 13.1309 0.174409 12.8563L4.95052 7.55086C5.2383 7.23118 5.2383 6.76882 4.95052 6.44914L0.17441 1.14366C-0.0727413 0.869119 -0.0553663 0.467735 0.214736 0.212079C0.530168 -0.0864798 1.05803 -0.0672021 1.34666 0.253417L6.67625 6.17371C7.10792 6.65323 7.10792 7.34677 6.67625 7.82629L1.34666 13.7466ZM0.55246 13.4869C0.672711 13.6007 0.873949 13.5934 0.983982 13.4712L6.31357 7.55086C6.60135 7.23118 6.60135 6.76882 6.31357 6.44914L0.983984 0.528845C0.873951 0.406617 0.672712 0.399268 0.552461 0.513087C0.44949 0.61055 0.442866 0.763569 0.537087 0.868234L5.3132 6.17371C5.74487 6.65323 5.74487 7.34677 5.3132 7.82629L0.537086 13.1318C0.442864 13.2364 0.449489 13.3894 0.55246 13.4869Z" fill="#BCBCBC"/>
</svg>
