<svg width="18" height="18" viewBox="0 0 18 18" fill="none" xmlns="http://www.w3.org/2000/svg">
<rect x="6.1875" y="6.75" width="5.625" height="11.25" rx="0.8" fill="#03B89E"/>
<rect x="12.375" y="9" width="5.625" height="9" rx="0.8" fill="#03B89E"/>
<rect y="11.25" width="5.625" height="6.75" rx="0.8" fill="#03B89E"/>
<path d="M8.70294 0.221177C8.79322 -0.073725 9.20678 -0.0737257 9.29706 0.221176L9.73967 1.6669C9.77993 1.7984 9.90038 1.88808 10.0367 1.88808H11.501C11.7984 1.88808 11.9261 2.26907 11.6897 2.4513L10.4787 3.38508C10.3752 3.46492 10.3319 3.60146 10.3704 3.72712L10.8266 5.21708C10.9159 5.50901 10.5813 5.74462 10.3408 5.55913L9.18875 4.67084C9.07731 4.58491 8.92269 4.58491 8.81125 4.67084L7.65924 5.55913C7.41869 5.74462 7.08406 5.50901 7.17343 5.21708L7.62959 3.72712C7.66806 3.60146 7.62482 3.46492 7.52127 3.38508L6.31028 2.4513C6.07394 2.26907 6.20162 1.88808 6.49903 1.88808H7.96326C8.09962 1.88808 8.22007 1.7984 8.26033 1.6669L8.70294 0.221177Z" fill="#016C5D"/>
</svg>
