<svg width="18" height="18" viewBox="0 0 18 18" fill="none" xmlns="http://www.w3.org/2000/svg">
<path d="M8.0494 0.707765C8.33831 -0.23592 9.66169 -0.235922 9.9506 0.707763L11.367 5.33409C11.4958 5.75489 11.8812 6.04185 12.3176 6.04185H17.0031C17.9548 6.04185 18.3634 7.26101 17.6071 7.84416L13.7319 10.8322C13.4006 11.0877 13.2622 11.5247 13.3853 11.9268L14.845 16.6947C15.131 17.6288 14.0602 18.3828 13.2904 17.7892L9.604 14.9467C9.24741 14.6717 8.75259 14.6717 8.396 14.9467L4.70958 17.7892C3.9398 18.3828 2.86898 17.6288 3.15498 16.6947L4.61468 11.9268C4.73778 11.5247 4.59942 11.0877 4.26807 10.8322L0.392896 7.84416C-0.363381 7.26101 0.0451891 6.04185 0.996895 6.04185H5.68244C6.11879 6.04185 6.50421 5.75489 6.63304 5.33409L8.0494 0.707765Z" fill="#03B89E"/>
</svg>
