<svg width="18" height="18" viewBox="0 0 18 18" fill="none" xmlns="http://www.w3.org/2000/svg">
<path d="M9.00042 1.28613C4.74043 1.28613 1.28613 4.74043 1.28613 9.00042C1.28613 13.2604 4.74043 16.7147 9.00042 16.7147C13.2604 16.7147 16.7147 13.2604 16.7147 9.00042C16.7147 4.74043 13.2604 1.28613 9.00042 1.28613ZM12.0861 10.5433C12.0861 11.4119 11.3823 12.1158 10.5136 12.1158L7.45756 12.0861C6.58889 12.0861 5.88507 11.3823 5.88507 10.5136V7.4872C5.88507 6.61853 6.58889 5.9147 7.45756 5.9147L10.5136 5.88507C11.3823 5.88507 12.0861 6.58889 12.0861 7.45756V10.5433Z" fill="#03B89E"/>
<path fill-rule="evenodd" clip-rule="evenodd" d="M18 9C18 13.9706 13.9706 18 9 18C4.02944 18 0 13.9706 0 9C0 4.02944 4.02944 0 9 0C13.9706 0 18 4.02944 18 9ZM15.4275 8.99888C15.4275 12.5493 12.5493 15.4275 8.99888 15.4275C5.44848 15.4275 2.57031 12.5493 2.57031 8.99888C2.57031 5.44848 5.44848 2.57031 8.99888 2.57031C12.5493 2.57031 15.4275 5.44848 15.4275 8.99888ZM7.68555 5.71875C6.59824 5.71875 5.7168 6.60019 5.7168 7.6875V10.3125C5.7168 11.3998 6.59824 12.2812 7.68555 12.2812H10.3105C11.3979 12.2812 12.2793 11.3998 12.2793 10.3125V7.6875C12.2793 6.60019 11.3979 5.71875 10.3105 5.71875H7.68555ZM7.0293 7.6875C7.0293 7.32506 7.32311 7.03125 7.68555 7.03125H10.3105C10.673 7.03125 10.9668 7.32506 10.9668 7.6875V10.3125C10.9668 10.6749 10.673 10.9688 10.3105 10.9688H7.68555C7.32311 10.9688 7.0293 10.6749 7.0293 10.3125V7.6875Z" fill="#74D7CB"/>
</svg>
