<svg width="341" height="302" viewBox="0 0 341 302" fill="none" xmlns="http://www.w3.org/2000/svg">
<path fill-rule="evenodd" clip-rule="evenodd" d="M152.928 60.5267C149.673 57.2723 144.397 57.2723 141.142 60.5267C140.492 61.1776 140.492 62.2329 141.142 62.8837C144.397 66.1381 149.673 66.1381 152.928 62.8837C153.578 62.2329 153.578 61.1776 152.928 60.5267ZM146.965 63.6342C148.069 63.6342 148.965 62.7387 148.965 61.6342C148.965 60.5296 148.069 59.6342 146.965 59.6342C145.86 59.6342 144.965 60.5296 144.965 61.6342C144.965 62.7387 145.86 63.6342 146.965 63.6342Z" fill="black"/>
<path fill-rule="evenodd" clip-rule="evenodd" d="M131.928 60.5267C128.673 57.2723 123.397 57.2723 120.142 60.5267C119.492 61.1776 119.492 62.2329 120.142 62.8837C123.397 66.1381 128.673 66.1381 131.928 62.8837C132.578 62.2329 132.578 61.1776 131.928 60.5267ZM125.965 63.6342C127.069 63.6342 127.965 62.7387 127.965 61.6342C127.965 60.5296 127.069 59.6342 125.965 59.6342C124.86 59.6342 123.965 60.5296 123.965 61.6342C123.965 62.7387 124.86 63.6342 125.965 63.6342Z" fill="black"/>
<path d="M136.293 64.625C136.665 66.0176 137.234 67.153 137.878 68.4161C137.905 68.4693 138.242 69.0432 138.22 69.0687C137.67 69.6795 137.221 70.388 136.635 70.9953C136.314 71.3282 135.986 71.9801 135.594 72.1761" stroke="black" stroke-width="3" stroke-linecap="round"/>
<path d="M126.506 77.9076C127.677 79.1658 128.744 80.3889 130.375 81.0151C131.147 81.3115 131.918 81.4826 132.729 81.6133C135.67 82.0878 139.33 82.1727 142.074 80.9529C143.352 80.385 144.853 79.0874 145.524 77.8299C146.085 76.7772 147.062 75.9499 147.062 74.6914" stroke="black" stroke-width="3" stroke-linecap="round"/>
<path d="M123.148 51.6175C123.737 51.0289 123.932 50.8785 124.687 50.7708C125.811 50.6101 126.682 50.537 127.483 51.3379" stroke="black" stroke-width="3" stroke-linecap="round"/>
<path d="M144.654 51.6175C145.243 51.0289 145.438 50.8785 146.192 50.7708C147.317 50.6101 148.188 50.537 148.989 51.3379" stroke="black" stroke-width="3" stroke-linecap="round"/>
<path d="M134.184 32.9727C133.729 37.4777 133.217 41.9848 133.217 46.5169" stroke="black" stroke-width="3" stroke-linecap="round"/>
<path d="M135.898 88.4141C135.898 93.3792 135.813 98.3402 135.388 103.29C135.203 105.447 134.623 107.676 134.623 109.835" stroke="black" stroke-width="3" stroke-linecap="round"/>
<path d="M141.602 33.6172C141.253 38.0237 141.28 42.4227 141.28 46.839" stroke="black" stroke-width="3" stroke-linecap="round"/>
<path d="M151.922 34.5859C150.973 37.8386 152.148 41.3903 152.746 44.6366C152.954 45.7697 153.534 46.9869 153.534 48.1302" stroke="black" stroke-width="3" stroke-linecap="round"/>
<path d="M161.273 36.1953C160.966 41.2557 160.333 46.2767 160.305 51.352C160.288 54.529 160.428 57.727 160.287 60.901C160.128 64.4904 159.809 68.0753 159.678 71.6683C159.648 72.4931 160.099 75.1573 159.338 75.5381" stroke="black" stroke-width="3" stroke-linecap="round"/>
<path d="M136.658 109.844C128.74 109.844 120.857 110.707 112.916 110.707" stroke="black" stroke-width="3" stroke-linecap="round"/>
<path d="M135.793 108.117C139.773 110.96 144.686 112.365 149.175 114.161" stroke="black" stroke-width="3" stroke-linecap="round"/>
<path d="M111.287 62.9648C111.47 72.7263 115.815 83.504 124.67 88.6022C131.543 92.5594 138.195 94.443 146.115 92.3107C152.794 90.5126 157.523 84.8737 161.021 79.1606C162.451 76.8247 164.174 73.4167 164.174 70.7044" stroke="black" stroke-width="3" stroke-linecap="round"/>
<path d="M129.025 30.7148C128.201 36.1567 126.729 41.3816 126.123 46.8389" stroke="black" stroke-width="3" stroke-linecap="round"/>
<path d="M119.027 37.1641C117.346 41.9569 115.922 46.9319 115.461 51.9982C115.193 54.95 114.905 58.1661 114.189 61.0277" stroke="black" stroke-width="3" stroke-linecap="round"/>
<path d="M107.74 48.1289C107.646 53.8583 107.398 59.4143 107.811 65.1488C107.881 66.1141 107.703 72.7804 108.707 73.2825" stroke="black" stroke-width="3" stroke-linecap="round"/>
<path d="M127.412 19.7533C125.184 18.6395 120.007 22.7119 118.31 23.9456C117.048 24.8641 116.051 26.2402 115.068 27.4392C113.812 28.9697 112.099 30.3721 111.09 32.0793C109.515 34.7454 108.172 37.643 107.113 40.5534C106.148 43.2089 105.881 46.1696 104.838 48.7767" stroke="black" stroke-width="3" stroke-linecap="round"/>
<path d="M134.186 17.4926C136.749 14.9293 142.269 17.3987 145.257 17.7972C147.862 18.1444 151.751 19.3238 153.964 20.7174C157.635 23.0286 162.591 24.8293 165.287 28.2957C170.135 34.5285 170.948 42.5959 170.948 50.3858" stroke="black" stroke-width="3" stroke-linecap="round"/>
<path d="M167.722 51.0302C168.847 49.9048 172.474 50.035 173.777 51.1018C175.282 52.3331 175.784 56.018 175.784 57.9098C175.784 61.4903 173.915 63.0618 171.341 65.4702C169.597 67.1015 168.195 68.4872 165.787 69.0891" stroke="black" stroke-width="3" stroke-linecap="round"/>
<path d="M108.063 53.6111C107.548 53.3688 107.014 52.938 106.451 52.9662C105.487 53.0144 102.735 54.2462 102.259 55.0802C100.683 57.8377 100.438 59.8301 100.664 63.1064C100.996 67.9219 106.546 68.4453 110.321 68.4453" stroke="black" stroke-width="3" stroke-linecap="round"/>
<path d="M130.637 96.5C130.232 99.2476 129.67 102.102 129.67 104.885" stroke="black" stroke-width="3" stroke-linecap="round"/>
<path d="M144.827 93.6016C144.827 97.6732 144.573 101.816 145.15 105.856" stroke="black" stroke-width="3" stroke-linecap="round"/>
<path d="M124.187 106.5C116.099 107.544 108.398 110.487 100.61 112.788C97.6418 113.665 95.0074 115.011 92.1719 116.21C90.4524 116.938 88.7601 118.045 86.9405 118.45C85.4229 118.787 84.3459 119.722 82.7482 119.722C80.6719 119.722 78.5472 119.58 76.4778 119.74C72.2634 120.064 67.9931 120.181 63.7576 120.528C61.2986 120.73 58.4923 120.807 56.2868 121.836C54.1482 122.834 51.5067 122.819 49.2101 123.269C47.5363 123.597 45.7629 123.914 44.0504 123.914C41.361 123.914 38.3229 124.375 35.6659 124.881C33.7271 125.251 31.6366 125.978 29.6999 126.171C28.0811 126.333 25.6866 126.915 24.2177 127.533C22.1253 128.414 20.0032 128.703 17.9114 129.719C15.5471 130.867 14.0722 133.559 12.5009 135.559C10.4163 138.212 9.32056 141.382 8.09365 144.481C6.53549 148.418 4.68062 152.396 3.82972 156.556C3.29098 159.19 3.17198 161.876 2.86227 164.547C2.57753 167.003 1.23206 172.152 2.61145 174.221" stroke="black" stroke-width="3" stroke-linecap="round"/>
<path d="M150.309 108.109C151.337 108.951 152.837 109.388 154.035 109.901C155.987 110.737 157.864 111.722 159.858 112.463C164.35 114.132 169.179 114.439 173.814 115.509C177.025 116.25 180.159 116.984 183.363 117.802C186.568 118.62 189.745 118.91 192.984 119.557C196.102 120.181 199.237 121.279 202.372 122.048C204.27 122.513 205.718 122.847 207.46 123.517C209.71 124.383 212.52 123.911 214.948 123.911C221.243 123.911 227.537 123.911 233.831 123.911C238.517 123.911 243.069 124.283 247.716 124.574C252.928 124.9 258.146 124.871 263.356 125.362C264.678 125.487 266.072 125.291 267.226 126.025" stroke="black" stroke-width="3" stroke-linecap="round"/>
<path d="M119.823 89.2344C120.269 93.0801 121.141 97.4876 119.823 101.275C119.302 102.776 119.439 105.308 117.955 106.05" stroke="black" stroke-width="3" stroke-linecap="round"/>
<path d="M157.815 86.7422C156.437 89.1925 156.341 92.7323 155.947 95.496C155.566 98.1609 154.373 101.049 154.736 103.765C154.951 105.381 155.947 106.236 155.947 107.917" stroke="black" stroke-width="3" stroke-linecap="round"/>
<path d="M128.543 106.672C128.732 112.342 131.889 115.464 133.525 120.374" stroke="black" stroke-width="3" stroke-linecap="round"/>
<path d="M147.85 103.555C147.435 107.699 147.438 115.247 143.49 117.879" stroke="black" stroke-width="3" stroke-linecap="round"/>
<path d="M136.639 128.467C140.806 124.3 142.924 125.481 148.68 125.942C155.064 126.452 161.131 128.74 167.571 129.229C171.651 129.538 175.52 130.336 179.612 130.336" stroke="black" stroke-width="3" stroke-linecap="round"/>
<path d="M128.544 132.205C127.214 128.509 123.838 129.057 120.309 129.575C114.647 130.408 108.842 131.825 103.148 132.205C96.0366 132.679 88.9959 132.828 81.834 132.828" stroke="black" stroke-width="3" stroke-linecap="round"/>
<path d="M112.973 117.883C116.252 120.251 118.553 122.508 120.446 125.979" stroke="black" stroke-width="3" stroke-linecap="round"/>
<path d="M109.859 121.617C111.595 122.406 113.105 125.114 114.219 126.6" stroke="black" stroke-width="3" stroke-linecap="round"/>
<path d="M162.797 115.391C160.812 116.113 160.158 118.89 158.438 119.75" stroke="black" stroke-width="3" stroke-linecap="round"/>
<path d="M173.385 119.125C170.486 121.628 166.436 122.575 162.797 123.485" stroke="black" stroke-width="3" stroke-linecap="round"/>
<path d="M76.2266 131.583C74.7214 130.619 72.4016 129.626 71.2441 128.469" stroke="black" stroke-width="3" stroke-linecap="round"/>
<path d="M195.805 129.094C193.006 129.56 190.364 130.637 187.709 131.585" stroke="black" stroke-width="3" stroke-linecap="round"/>
<path d="M30.1401 149.023C27.9893 152.035 27.2368 154.212 23.9121 155.874" stroke="black" stroke-width="3" stroke-linecap="round"/>
<path d="M35.7441 146.531C35.8731 147.949 36.3168 150.866 37.6125 151.514" stroke="black" stroke-width="3" stroke-linecap="round"/>
<path d="M28.2715 158.986C29.9064 157.351 30.6767 157.117 32.9079 157.117C34.2702 157.117 34.2225 159.123 34.4995 160.231" stroke="black" stroke-width="3" stroke-linecap="round"/>
<path d="M228.192 79.2666C222.85 79.8008 220.946 82.7172 218.538 87.0517C215.229 93.0081 222.293 101.837 228.814 99.5077C236.39 96.8023 242.615 91.1119 239.886 82.2423C238.488 77.6968 229.272 77.0228 226.946 80.5122" stroke="black" stroke-width="3" stroke-linecap="round"/>
<path d="M225.205 87.6871C224.985 88.8176 225.338 89.9658 225.338 91.1051C225.338 91.9706 225.491 91.7829 226.31 91.5029C227.019 91.2603 227.441 91.002 228.196 91.002C228.744 91.002 231.893 91.2377 231.96 90.5673C232.089 89.2723 231.835 87.9513 231.835 86.6558C231.835 86.2598 231.903 85.8582 231.702 85.5066C231.598 85.3248 230.31 85.8546 230.089 85.8897C228.655 86.1178 227.059 86.2285 225.603 86.2285" stroke="black" stroke-width="3" stroke-linecap="round"/>
<path d="M235.72 69.8789C233.234 70.9695 226.838 72.8111 226.838 76.3925C226.838 79.9088 231.149 77.6991 233.351 77.5767C237.998 77.3186 243.492 73.5801 246.379 79.3532" stroke="black" stroke-width="3" stroke-linecap="round"/>
<path d="M237.494 68.6953C240.248 68.6953 241.126 68.962 243.185 69.9125C244.616 70.5726 245.791 71.8694 247.232 72.2811C249.363 72.8899 251.791 75.2089 254.074 75.2089" stroke="black" stroke-width="3" stroke-linecap="round"/>
<path d="M245.786 81.7188C247.888 84.0836 246.865 88.7708 245.654 91.193C244.184 94.1337 240.593 94.0854 238.088 95.338" stroke="black" stroke-width="3" stroke-linecap="round"/>
<path d="M236.902 96.5234C235.62 96.6659 233.35 99.0589 233.35 100.372C233.35 103.31 236.129 101.071 237.791 100.701C239.568 100.306 240.313 99.4841 242.232 99.4841C243.921 99.4841 246.101 99.9386 247.561 100.668" stroke="black" stroke-width="3" stroke-linecap="round"/>
<path d="M256.444 75.207C253.204 78.4475 249.931 79.9163 249.931 85.0103C249.931 88.5777 249.658 91.8984 253.187 93.8595C254.772 94.7396 255.735 94.7477 257.629 94.7477C260.222 94.7477 262.828 95.4868 265.326 95.3398C266.752 95.2559 265.377 91.576 266.05 90.7343C266.861 89.7204 268.207 88.8263 269.471 88.8263" stroke="black" stroke-width="3" stroke-linecap="round"/>
<path d="M258.812 71.0625C260.445 71.8308 263.162 72.8389 264.997 72.8389C265.883 72.8389 268.87 74.4571 269.339 75.2075C270.564 77.1672 272.676 80.2581 274.504 81.721C276.412 83.2476 278.042 87.5567 279.241 89.7149C280.584 92.1312 281.314 94.221 281.314 97.1167" stroke="black" stroke-width="3" stroke-linecap="round"/>
<path d="M252.299 108.367C253.095 112.746 259.337 113.287 262.069 115.473C266.041 118.651 266.229 125.405 268.155 129.684C270.675 135.284 271.839 142.854 271.839 148.929C271.839 154.514 272.432 160.235 272.432 165.673C272.432 169.495 273.024 173.213 273.024 177.056C273.024 182.479 271.089 187.801 270.688 193.208C269.887 204.028 270.063 215.08 270.063 225.94C270.063 232.344 271.855 238.622 273.945 244.592C275.608 249.343 278.581 253.306 280.722 257.587" stroke="black" stroke-width="3" stroke-linecap="round"/>
<path d="M239.865 180.609C233.269 193.008 224.661 205.362 219.732 218.506" stroke="black" stroke-width="3" stroke-linecap="round"/>
<path d="M233.943 200.742C235.814 204.691 237.052 208.91 238.944 212.914C240.556 216.325 242.461 219.773 243.056 223.54C243.347 225.384 243.322 227.242 243.878 229.033C244.318 230.449 244.147 235.155 245.194 235.678" stroke="black" stroke-width="3" stroke-linecap="round"/>
<path d="M180.65 29.6124C181.77 29.5465 183.749 28.7443 184.203 27.8359" stroke="black" stroke-width="3" stroke-linecap="round"/>
<path d="M184.204 27.8372C184.204 22.1226 183.122 16.5899 188.151 12.9021C190.785 10.9707 194.089 8.20573 197.132 7.04646C203.599 4.58283 210.188 4.28507 216.969 3.29623C232.149 1.08251 248.042 2.37512 263.353 2.37512C273.989 2.37512 285.182 1.44164 295.756 2.67119C300.961 3.27641 306.059 2.37794 310.922 4.74369C316.551 7.48238 319.015 11.2035 321.218 17.08C322.154 19.5734 322.172 22.4499 322.172 25.0739C322.172 29.7447 322.839 34.3647 322.765 39.0221C322.639 46.9054 318.121 51.6762 311.02 54.5164C300.542 58.7079 289.568 62.6421 278.222 63.3985C266.157 64.2029 254.072 63.9578 241.97 63.9578C227.987 63.9578 211.955 66.9283 201.968 54.9441C197.999 50.1809 194.365 43.7819 189.072 40.4037C185.717 38.2619 180.64 34.3507 176.506 34.3507" stroke="black" stroke-width="3" stroke-linecap="round"/>
<path d="M231.947 28.5859C232.814 28.5859 233.559 28.9023 234.057 29.4297H236.682V28.1289H237.795V33.7656H236.682V32.6875H234.033C233.547 33.209 232.809 33.5137 231.947 33.5078C230.365 33.5195 229.193 32.5 229.193 31.0469C229.193 29.6055 230.365 28.5859 231.947 28.5859ZM231.947 29.5234C230.963 29.5234 230.26 30.1445 230.26 31.0469C230.26 31.9609 230.963 32.582 231.947 32.582C232.908 32.582 233.611 31.9609 233.611 31.0469C233.611 30.1445 232.908 29.5234 231.947 29.5234ZM232.053 34.2695V35.4883H236.682V34.2695H237.795V38.5H230.951V34.2695H232.053ZM232.053 37.5859H236.682V36.3672H232.053V37.5859ZM234.572 31.7852H236.682V30.332H234.572C234.637 30.5547 234.678 30.7949 234.678 31.0469C234.678 31.3105 234.637 31.5566 234.572 31.7852ZM248.166 28.1406V35.8281H247.053V31.8789H245.049V30.9766H247.053V28.1406H248.166ZM248.447 37.5039V38.4062H241.346V35.1367H242.459V37.5039H248.447ZM243.174 30.2617C243.174 31.5742 244.123 32.8867 245.705 33.4141L245.131 34.3047C243.953 33.8887 243.08 33.0449 242.623 32.0078C242.166 33.1621 241.246 34.0938 239.998 34.5391L239.424 33.6367C241.041 33.0859 242.037 31.7031 242.037 30.2617V29.8516H239.764V28.9375H245.424V29.8516H243.174V30.2617ZM261.701 28.1289V38.6289H260.635V33.25H259.287V38.0898H258.244V28.3398H259.287V32.3359H260.635V28.1289H261.701ZM254.318 29.3711V34.9727C255.291 34.9668 256.352 34.8906 257.541 34.6562L257.658 35.6289C256.217 35.8867 255.01 35.957 253.885 35.957H253.205V29.3711H254.318ZM271.311 28.1289V32.4766H272.869V33.4023H271.311V38.6289H270.197V28.1289H271.311ZM262.943 35.5117C263.828 35.5059 264.824 35.5059 265.85 35.4766V33.25H263.705V29.125H264.807V32.3477H269.096V33.25H266.963V35.4414C267.848 35.4121 268.721 35.3535 269.541 35.2656L269.611 36.0742C267.396 36.4023 264.994 36.4141 263.107 36.4141L262.943 35.5117Z" fill="black"/>
<path d="M280.723 95.9336C280.938 100.024 284.006 104.519 286.973 107.217C293.959 113.568 298.165 124.213 302.5 132.383C303.911 135.042 306.535 137.33 308.323 139.818C311.372 144.06 314.623 148.196 317.468 152.582C320.065 156.585 322.277 160.977 324.541 165.181C326.192 168.248 326.813 171.535 328.357 174.623C333.293 184.495 334.206 196.21 335.233 206.993C336.285 218.046 338.752 228.924 338.752 240.153C338.752 244.484 338.78 248.548 338.16 252.884C337.255 259.219 337.463 267.014 334.311 272.688" stroke="black" stroke-width="3" stroke-linecap="round"/>
<path d="M245.193 241.008C245.378 242.857 245.716 245.009 246.246 246.798C247.149 249.845 247.671 253.183 248.746 256.14C250.299 260.409 253.4 265.756 257.168 268.509C262.963 272.745 267.448 279.081 273.221 283.412C278.224 287.163 283.773 289.572 289.078 292.656C292.174 294.456 295.784 294.477 298.815 296.406C301.052 297.829 304.69 299.489 307.368 299.63C314.177 299.988 316.119 299.265 321.218 293.774C328.017 286.452 330.7 275.463 332.83 265.878" stroke="black" stroke-width="3" stroke-linecap="round"/>
</svg>
